<svg width="48" height="48" viewBox="0 0 48 48" fill="none" xmlns="http://www.w3.org/2000/svg">
<g clip-path="url(#clip0_368_6824)">
<path d="M41 17C41 7.62598 33.374 0 24 0C14.626 0 7 7.62598 7 17C7 25.6958 13.5669 32.877 22 33.8721V38H18C16.896 38 16 38.896 16 40C16 41.104 16.896 42 18 42H22V46C22 47.104 22.896 48 24 48C25.104 48 26 47.104 26 46V42H30C31.104 42 32 41.104 32 40C32 38.896 31.104 38 30 38H26V33.8721C34.4331 32.877 41 25.6958 41 17ZM11 17C11 9.83203 16.832 4 24 4C31.168 4 37 9.83203 37 17C37 24.168 31.168 30 24 30C16.832 30 11 24.168 11 17Z" fill="#7A7A7A"/>
</g>
<defs>
<clipPath id="clip0_368_6824">
<rect width="48" height="48" fill="white"/>
</clipPath>
</defs>
</svg>
