<svg width="327" height="106" viewBox="0 0 327 106" fill="none" xmlns="http://www.w3.org/2000/svg">
<path d="M0 28C0 16.7643 0 11.1465 2.69649 7.11088C3.86382 5.36383 5.36383 3.86382 7.11088 2.69649C11.1465 0 16.7643 0 28 0H299C310.236 0 315.854 0 319.889 2.69649C321.636 3.86382 323.136 5.36383 324.304 7.11088C327 11.1465 327 16.7643 327 28V78C327 89.2357 327 94.8535 324.304 98.8891C323.136 100.636 321.636 102.136 319.889 103.304C315.854 106 310.236 106 299 106H208.163C203.427 106 199.057 103.454 196.722 99.3333L193.36 93.4004C187.266 82.6465 175.861 76 163.5 76C151.139 76 139.734 82.6465 133.64 93.4004L130.278 99.3333C127.943 103.454 123.573 106 118.837 106H28C16.7643 106 11.1465 106 7.11088 103.304C5.36383 102.136 3.86382 100.636 2.69649 98.8891C0 94.8535 0 89.2357 0 78V28Z" fill="#EBECEF"/>
</svg>
