<svg width="37" height="28" viewBox="0 0 37 28" fill="none" xmlns="http://www.w3.org/2000/svg">
<path fill-rule="evenodd" clip-rule="evenodd" d="M15.5623 7.21493H19.1693C20.1852 7.21493 21.3901 7.2496 22.1961 7.99598C22.7346 8.49461 23.0171 9.28904 22.9518 10.1419C22.7306 13.0338 21.0832 14.6537 18.8739 14.6537H17.0949C16.7922 14.6537 16.5915 14.8643 16.5061 15.4349L16.0096 18.7507C15.9774 18.9658 15.8886 19.0926 15.7265 19.1079H13.5045C13.258 19.1079 13.1703 18.9099 13.2348 18.481L14.8349 7.84413C14.8989 7.41786 15.121 7.21493 15.5623 7.21493Z" fill="#1B3D92"/>
<path fill-rule="evenodd" clip-rule="evenodd" d="M17.882 10.5449H21.4854C23.4199 10.5449 24.1484 11.5731 24.0359 13.0863C23.8505 15.5807 22.4141 16.96 20.509 16.96H19.547C19.2859 16.96 19.1103 17.1413 19.0391 17.6338L18.6265 20.4934C18.5997 20.6791 18.5067 20.7882 18.367 20.8015H16.1075C15.8949 20.8015 15.8193 20.6307 15.8749 20.2608L17.2547 11.0876C17.3099 10.7199 17.5014 10.5449 17.882 10.5449Z" fill="#00A2D3"/>
<path fill-rule="evenodd" clip-rule="evenodd" d="M16.3859 15.2737L17.0157 11.0875C17.071 10.7199 17.2626 10.5449 17.6432 10.5449H21.2466C21.8432 10.5449 22.325 10.6427 22.7027 10.8228C22.3406 13.3967 20.7552 14.8268 18.6791 14.8268H16.9C16.6659 14.8268 16.491 14.9524 16.3859 15.2737Z" fill="#1B2E7F"/>
</svg>
