<svg width="24" height="24" viewBox="0 0 24 24" fill="none" xmlns="http://www.w3.org/2000/svg">
<path fill-rule="evenodd" clip-rule="evenodd" d="M10.4177 3.54689L3.95371 8.61072C3.21583 9.18877 3.01086 10.0491 3.00059 11.0435C3.00003 11.0974 3.00178 11.1495 3.00586 11.2033C3.04767 11.7548 3.33681 15.1249 4.40528 18.9084C4.78287 19.9615 5.67128 21 6.89353 21H17.1068C18.3291 21 19.2175 19.9615 19.5951 18.9084C20.6636 15.1249 20.9527 11.7548 20.9945 11.2033C20.9986 11.1495 21.0003 11.0974 20.9998 11.0435C20.9895 10.0491 20.7845 9.18877 20.0466 8.61072L13.5827 3.54689C12.6519 2.8177 11.3485 2.8177 10.4177 3.54689ZM15.0002 13.75C15.0002 15.4069 13.657 16.75 12.0002 16.75C10.3433 16.75 9.00018 15.4069 9.00018 13.75C9.00018 12.0931 10.3433 10.75 12.0002 10.75C13.657 10.75 15.0002 12.0931 15.0002 13.75Z" fill="white"/>
</svg>
