<svg width="24" height="24" viewBox="0 0 24 24" fill="none" xmlns="http://www.w3.org/2000/svg">
<path fill-rule="evenodd" clip-rule="evenodd" d="M5.51901 3.31213C4.34515 3.41328 3.40777 4.33782 3.29918 5.51134C2.8542 10.3201 2.94055 13.6904 3.32857 18.4433C3.42621 19.6392 4.37117 20.5944 5.56642 20.6963C10.3059 21.1004 13.6523 21.1014 18.453 20.6944C19.6454 20.5933 20.5904 19.6432 20.6891 18.4503C21.0864 13.6488 21.1253 10.2868 20.704 5.52528C20.5996 4.34554 19.661 3.4117 18.4814 3.30957C13.6947 2.89513 10.3443 2.89634 5.51901 3.31213ZM12.75 8.00009C12.75 7.58588 12.4142 7.25009 12 7.25009C11.5858 7.25009 11.25 7.58588 11.25 8.00009V8.85009H7.5C7.08579 8.85009 6.75 9.18588 6.75 9.60009C6.75 10.0143 7.08579 10.3501 7.5 10.3501H13.4364C13.3714 10.8268 13.2421 11.467 12.9872 12.1315C12.7474 12.7568 12.4041 13.3887 11.9062 13.9298C11.3171 13.4751 10.7933 12.945 10.3514 12.3519C10.1039 12.0198 9.63398 11.9512 9.30184 12.1987C8.96971 12.4462 8.90111 12.9161 9.14862 13.2482C9.59436 13.8464 10.1087 14.3889 10.6791 14.8673C10.3515 15.0362 9.98569 15.1734 9.57702 15.2703C9.17397 15.3659 8.92469 15.77 9.02022 16.1731C9.11576 16.5761 9.51994 16.8254 9.92298 16.7299C10.7472 16.5345 11.4383 16.2124 12.0173 15.812C12.6436 16.1808 13.3141 16.4837 14.0174 16.7131C14.4112 16.8416 14.8346 16.6265 14.963 16.2327C15.0915 15.8389 14.8764 15.4155 14.4826 15.2871C14.0324 15.1402 13.5989 14.9585 13.186 14.7448C13.7403 14.086 14.1243 13.3557 14.3878 12.6687C14.6952 11.8671 14.8471 11.1077 14.9228 10.5512C14.9324 10.4811 14.9408 10.4139 14.9481 10.3501H16.5C16.9142 10.3501 17.25 10.0143 17.25 9.60009C17.25 9.18588 16.9142 8.85009 16.5 8.85009H12.75V8.00009Z" fill="white"/>
</svg>
