<svg width="24" height="24" viewBox="0 0 24 24" fill="none" xmlns="http://www.w3.org/2000/svg">
<path fill-rule="evenodd" clip-rule="evenodd" d="M7 2C9.7614 2 12 4.23857 12 7V2H17C19.7614 2 22 4.23857 22 7C22 9.7614 19.7614 12 17 12C19.7614 12 22 14.2386 22 17C22 18.3712 21.4481 19.6134 20.5543 20.5167L20.5355 20.5355L20.5189 20.552C19.6154 21.4471 18.3723 22 17 22C15.637 22 14.4015 21.4546 13.4995 20.5702C13.4878 20.5588 13.4761 20.5471 13.4644 20.5355C13.4535 20.5246 13.4426 20.5136 13.4318 20.5026C12.5462 19.6005 12 18.364 12 17C12 19.7614 9.7614 22 7 22C4.23857 22 2 19.7614 2 17V12H7C4.23857 12 2 9.7614 2 7C2 4.23857 4.23857 2 7 2ZM11 7C11 9.20915 9.20915 11 7 11V3C9.20915 3 11 4.79086 11 7ZM21 17C21 14.7908 19.2092 13 17 13C14.7908 13 13 14.7908 13 17H21ZM3 13V17C3 19.2092 4.79086 21 7 21C9.20915 21 11 19.2092 11 17V13H3ZM13 11V3H17C19.2092 3 21 4.79086 21 7C21 9.20915 19.2092 11 17 11H13Z" fill="white"/>
</svg>
