<svg width="13" height="13" viewBox="0 0 13 13" fill="none" xmlns="http://www.w3.org/2000/svg">
<path fill-rule="evenodd" clip-rule="evenodd" d="M12.6197 0.38028C12.1126 -0.126786 11.2904 -0.126718 10.7833 0.380432L6.50016 4.66353L2.29902 0.462394C1.79195 -0.0446719 0.969769 -0.044604 0.46262 0.462545C-0.0445303 0.969696 -0.0445984 1.79188 0.462468 2.29895L4.66361 6.50008L0.380504 10.7832C-0.126646 11.2903 -0.126714 12.1125 0.380352 12.6196C0.887418 13.1267 1.7096 13.1266 2.21675 12.6194L6.49985 8.33633L10.701 12.5375C11.208 13.0445 12.0302 13.0445 12.5374 12.5373C13.0445 12.0302 13.0446 11.208 12.5375 10.7009L8.33641 6.49978L12.6195 2.21668C13.1267 1.70953 13.1267 0.887346 12.6197 0.38028Z" fill="#3C3C43" fill-opacity="0.6"/>
</svg>
