<svg width="14" height="14" viewBox="0 0 14 14" fill="none" xmlns="http://www.w3.org/2000/svg">
<path fill-rule="evenodd" clip-rule="evenodd" d="M7 12.25C9.89949 12.25 12.25 9.89949 12.25 7C12.25 4.1005 9.89949 1.75 7 1.75C4.1005 1.75 1.75 4.1005 1.75 7C1.75 9.89949 4.1005 12.25 7 12.25ZM4.97603 5.81564C4.80517 5.64479 4.52816 5.64479 4.35731 5.81564C4.18645 5.9865 4.18645 6.2635 4.35731 6.43436L6.60815 8.6852C6.82456 8.90161 7.17544 8.90161 7.39185 8.6852L9.64269 6.43436C9.81355 6.2635 9.81355 5.9865 9.64269 5.81564C9.47184 5.64479 9.19483 5.64479 9.02397 5.81564L7 7.83961L4.97603 5.81564Z" fill="white"/>
</svg>
