<svg width="24" height="24" viewBox="0 0 24 24" fill="none" xmlns="http://www.w3.org/2000/svg">
<path d="M10.2508 3.71337C11.2227 2.7614 12.7775 2.76139 13.7494 3.71337L14.2286 4.1827C14.6894 4.63408 15.3069 4.88985 15.952 4.89654L16.6227 4.9035C17.9831 4.91762 19.0825 6.01701 19.0966 7.37743L19.1035 8.04811C19.1102 8.69315 19.366 9.31064 19.8174 9.77149L20.2867 10.2507C21.2387 11.2226 21.2387 12.7774 20.2867 13.7493L19.8174 14.2285C19.366 14.6893 19.1102 15.3068 19.1035 15.9519L19.0966 16.6225C19.0825 17.983 17.9831 19.0823 16.6227 19.0965L15.952 19.1034C15.3069 19.1101 14.6894 19.3659 14.2286 19.8173L13.7494 20.2866C12.7775 21.2386 11.2227 21.2386 10.2508 20.2866L9.77161 19.8173C9.31076 19.3659 8.69327 19.1101 8.04823 19.1034L7.37755 19.0965C6.01713 19.0823 4.91774 17.983 4.90363 16.6225L4.89667 15.9519C4.88997 15.3068 4.6342 14.6893 4.18282 14.2285L3.71349 13.7493C2.76152 12.7774 2.76152 11.2226 3.71349 10.2507L4.18282 9.77149C4.6342 9.31064 4.88997 8.69315 4.89667 8.04811L4.90363 7.37743C4.91774 6.01701 6.01713 4.91762 7.37755 4.9035L8.04823 4.89654C8.69327 4.88985 9.31076 4.63408 9.77161 4.1827L10.2508 3.71337Z" stroke="#404148" stroke-width="1.5"/>
<path d="M9 15L15 9" stroke="#2782CD" stroke-width="1.5" stroke-linecap="round"/>
<path d="M9 9H9.01" stroke="#2782CD" stroke-width="2" stroke-linecap="round"/>
<path d="M15 15H15.01" stroke="#2782CD" stroke-width="2" stroke-linecap="round"/>
</svg>
