<svg width="24" height="24" viewBox="0 0 24 24" fill="none" xmlns="http://www.w3.org/2000/svg">
<path fill-rule="evenodd" clip-rule="evenodd" d="M5.68897 6.03377C5.47593 6.09383 5.26338 6.16477 5.08384 6.29424C4.40935 6.78061 4 7.57177 4 8.42418V11.7903C4 14.5877 5.37993 17.2001 7.67731 18.7518L10.3556 20.5609C11.1995 21.1309 12.2947 21.1472 13.1548 20.6026L16.1187 18.7258C18.5332 17.1968 20 14.5155 20 11.6308V8.47134C20 7.57802 19.5506 6.75386 18.8209 6.27588C18.6619 6.17175 18.4801 6.11143 18.2973 6.05941C16.1395 5.44532 13.7306 3.83174 13.0949 3.38952C12.9863 3.31395 12.8759 3.24362 12.7536 3.19313C12.1286 2.93513 11.4289 2.93596 10.8055 3.19361C10.6424 3.26106 10.4995 3.3645 10.3614 3.4745C9.7364 3.97228 7.76602 5.44822 5.68897 6.03377ZM15.5352 10.5255C15.8254 10.2299 15.821 9.75504 15.5255 9.46484C15.2299 9.17464 14.755 9.17898 14.4648 9.47455L11.008 12.9952L9.54294 11.4578C9.25718 11.158 8.78245 11.1465 8.48259 11.4323C8.18273 11.718 8.1713 12.1928 8.45706 12.4926L10.3389 14.4673C10.695 14.841 11.2948 14.8442 11.6553 14.477L15.5352 10.5255Z" fill="white"/>
</svg>
