<svg width="24" height="24" viewBox="0 0 24 24" fill="none" xmlns="http://www.w3.org/2000/svg">
<path d="M3.21603 9.8141C3.29444 8.96656 3.97129 8.29883 4.8189 8.22578C8.30312 7.92549 10.7223 7.92461 14.1786 8.22393C15.0304 8.29769 15.7081 8.97213 15.7835 9.82416C16.0877 13.2631 16.0596 15.6912 15.7727 19.1589C15.7014 20.0204 15.0191 20.7066 14.1581 20.7796C10.6917 21.0736 8.27537 21.0729 4.85313 20.781C3.99008 20.7074 3.30775 20.0176 3.23725 19.1539C2.95707 15.7212 2.89472 13.2871 3.21603 9.8141Z" stroke="#202734" stroke-width="1.5"/>
<path d="M8.17822 5.23869C8.19018 5.09883 8.20278 4.95735 8.21603 4.8141C8.29445 3.96656 8.9713 3.29883 9.81891 3.22578C13.3031 2.92549 15.7223 2.92461 19.1786 3.22393C20.0304 3.29769 20.7081 3.97213 20.7835 4.82416C21.0877 8.26305 21.0596 10.6912 20.7727 14.1589C20.7015 15.0204 20.0191 15.7066 19.1582 15.7796C19.0073 15.7924 18.8585 15.8046 18.7115 15.8163" stroke="#404148" stroke-width="1.5" stroke-linecap="round"/>
</svg>
