<svg width="51" height="16" viewBox="0 0 51 16" fill="none" xmlns="http://www.w3.org/2000/svg">
<path fill-rule="evenodd" clip-rule="evenodd" d="M7.51489 11.9152C7.51489 11.2895 7.5218 9.61715 7.5061 9.41109C7.51978 6.9226 5.67753 5.16719 4.51367 5.30404C3.70832 5.37268 3.03324 5.6952 2.67098 6.62301C2.33495 7.48769 2.63539 8.63783 3.75213 8.90771C4.9461 9.19754 5.64352 9.43869 6.14814 9.77891C6.76646 10.1954 7.27122 10.9912 7.28462 11.9161" fill="#0060AF"/>
<path fill-rule="evenodd" clip-rule="evenodd" d="M7.01576 11.9162C7.01965 11.1142 6.56388 10.4051 5.96819 10.024C5.43979 9.68715 4.73041 9.46596 3.58601 9.18079C3.23226 9.09192 2.86222 8.8945 2.74766 8.64288C2.44463 8.94276 2.38959 9.61696 2.4429 10.0111C2.50486 10.4669 3.04738 11.2184 3.86426 11.2478C4.36311 11.2675 4.99382 11.1424 5.29627 11.0793C5.81804 10.9686 6.64356 11.2896 6.77498 11.9152" fill="#0060AF"/>
<path fill-rule="evenodd" clip-rule="evenodd" d="M7.93675 1.42579C6.55156 1.42579 5.35529 2.32288 5.35947 3.87522C5.36379 5.1806 6.43269 5.87943 6.81425 6.37857C7.39063 7.13075 7.7026 8.02105 7.73487 9.38332C7.76023 10.4675 7.75894 11.5381 7.76456 11.9175H8.07018C8.065 11.5206 8.05116 10.384 8.06687 9.34978C8.08762 7.98709 8.41082 7.13075 8.98749 6.37857C9.37237 5.87943 10.4403 5.1806 10.4426 3.87522C10.4479 2.32288 9.25205 1.42579 7.86831 1.42579" fill="#0060AF"/>
<path fill-rule="evenodd" clip-rule="evenodd" d="M8.28823 11.9152C8.28823 11.2895 8.28103 9.61715 8.29645 9.41109C8.2829 6.9226 10.124 5.16719 11.2889 5.30404C12.0942 5.37268 12.7684 5.6952 13.1318 6.62301C13.4674 7.48769 13.1654 8.63783 12.0501 8.90771C10.8553 9.19754 10.1589 9.43869 9.65296 9.77891C9.03537 10.1954 8.56591 10.9912 8.5515 11.9161" fill="#0060AF"/>
<path fill-rule="evenodd" clip-rule="evenodd" d="M8.78702 11.9162C8.7827 11.1142 9.23833 10.4051 9.83229 10.024C10.363 9.68715 11.0731 9.46596 12.2165 9.18079C12.571 9.09192 12.9406 8.8945 13.0531 8.64288C13.3576 8.94276 13.4126 9.61696 13.3592 10.0111C13.296 10.4669 12.7548 11.2184 11.9394 11.2478C11.4408 11.2675 10.8067 11.1424 10.5055 11.0793C9.98575 10.9686 9.15792 11.2896 9.02593 11.9152" fill="#0060AF"/>
<path fill-rule="evenodd" clip-rule="evenodd" d="M9.21418 14.5054L9.03708 13.2352L9.4649 13.1715C9.56894 13.1577 9.69574 13.1755 9.74646 13.2395C9.80252 13.3064 9.81966 13.3617 9.83047 13.4495C9.84675 13.5582 9.81477 13.6835 9.69027 13.7461V13.7499C9.82918 13.7499 9.91318 13.848 9.93768 14.0136C9.94114 14.0487 9.9518 14.133 9.94114 14.2035C9.91289 14.3712 9.81116 14.4253 9.63911 14.4489L9.21418 14.5054ZM9.48954 14.2781C9.54026 14.2709 9.59171 14.2682 9.63191 14.243C9.69358 14.2035 9.68796 14.1191 9.67932 14.0563C9.65799 13.9186 9.62139 13.8661 9.47254 13.8878L9.37888 13.9019L9.43825 14.285L9.48954 14.2781ZM9.40006 13.691C9.45669 13.6821 9.53335 13.6753 9.56534 13.6225C9.5822 13.5873 9.60352 13.5593 9.5894 13.4809C9.57196 13.388 9.5407 13.3303 9.42038 13.3527L9.30841 13.3704L9.35265 13.6959L9.40006 13.691Z" fill="#0060AF"/>
<path fill-rule="evenodd" clip-rule="evenodd" d="M11.0675 13.7414C11.0708 13.765 11.0747 13.7913 11.0762 13.815C11.1108 14.0465 11.0675 14.2384 10.8024 14.2912C10.4103 14.3652 10.3352 14.1262 10.2664 13.7913L10.2296 13.6101C10.1756 13.2898 10.1524 13.0472 10.5345 12.9724C10.7499 12.9339 10.8923 13.0181 10.9515 13.2287C10.9608 13.2601 10.9723 13.2911 10.9766 13.3228L10.7422 13.3703C10.7151 13.2911 10.6792 13.1497 10.5737 13.1616C10.3844 13.1841 10.4469 13.4153 10.4664 13.5121L10.5368 13.8598C10.558 13.965 10.6001 14.133 10.7639 14.1006C10.8969 14.0744 10.8389 13.8709 10.827 13.7874" fill="#0060AF"/>
<path fill-rule="evenodd" clip-rule="evenodd" d="M11.4437 14.1258L11.3627 12.8113L11.6776 12.7169L12.338 13.8601L12.09 13.933L11.9335 13.6425L11.6581 13.7237L11.6937 14.054L11.4437 14.1258ZM11.6351 13.5114L11.8341 13.4548L11.5698 12.923L11.6351 13.5114Z" fill="#0060AF"/>
<path fill-rule="evenodd" clip-rule="evenodd" d="M3.66368 13.132C3.76224 12.8222 3.85043 12.5939 4.22666 12.6952C4.42796 12.7506 4.55275 12.8376 4.54684 13.0673C4.54583 13.1184 4.52868 13.1706 4.51744 13.221L4.28329 13.1576C4.31398 13.0306 4.33343 12.93 4.17435 12.8819C3.99049 12.8324 3.94567 13.0514 3.92031 13.146L3.82507 13.4904C3.79481 13.5928 3.75849 13.7619 3.92031 13.8056C4.05403 13.8408 4.13502 13.7121 4.18343 13.5238L4.01974 13.4811L4.07637 13.2818L4.46153 13.4034L4.27868 14.0676L4.10144 14.0203L4.14136 13.8799H4.13631C4.05461 13.9948 3.95518 14.0068 3.86801 13.9903C3.48284 13.8881 3.52304 13.6409 3.61498 13.3106" fill="#0060AF"/>
<path fill-rule="evenodd" clip-rule="evenodd" d="M5.0972 13.6929L4.9812 14.2333L4.7201 14.1779L4.99835 12.9163L5.44346 13.0149C5.70398 13.0702 5.78266 13.184 5.74577 13.4187C5.72473 13.5533 5.65715 13.6982 5.49217 13.6864L5.49044 13.6843C5.62992 13.7321 5.64174 13.8013 5.61738 13.9206C5.60686 13.9716 5.53438 14.2798 5.58439 14.3296L5.58612 14.3676L5.31594 14.2982C5.3047 14.2129 5.34303 14.0592 5.35816 13.974C5.37329 13.8987 5.39764 13.7926 5.31983 13.7528C5.25902 13.7208 5.23625 13.7224 5.16737 13.7069L5.0972 13.6929ZM5.14173 13.4975L5.31752 13.5441C5.4243 13.5593 5.48366 13.505 5.5047 13.3782C5.52372 13.262 5.49908 13.2167 5.40326 13.1942L5.21478 13.1566L5.14173 13.4975Z" fill="#0060AF"/>
<path fill-rule="evenodd" clip-rule="evenodd" d="M6.77197 13.1981L7.03019 13.2275L6.91895 14.1146C6.86492 14.3958 6.75425 14.5186 6.43926 14.4803C6.11879 14.4404 6.04271 14.2972 6.06202 14.0137L6.17412 13.1275L6.43436 13.1566L6.32269 14.023C6.31073 14.1171 6.28868 14.2565 6.459 14.2735C6.61016 14.2848 6.64445 14.1863 6.6616 14.0641" fill="#0060AF"/>
<path fill-rule="evenodd" clip-rule="evenodd" d="M7.3149 14.5285L7.39271 13.2602L7.88868 13.2813C8.12327 13.2928 8.18451 13.4807 8.17731 13.6602C8.17039 13.7693 8.13581 13.8911 8.03898 13.9572C7.95958 14.0134 7.85742 14.0267 7.76289 14.0222L7.60122 14.0134L7.56894 14.5449L7.3149 14.5285ZM7.60842 13.8199L7.73983 13.8271C7.84661 13.831 7.91736 13.7895 7.92658 13.6355C7.93191 13.4878 7.87485 13.4626 7.73652 13.4566L7.63248 13.4531L7.60842 13.8199Z" fill="#0060AF"/>
<path fill-rule="evenodd" clip-rule="evenodd" d="M42.3057 2.65152L40.3339 6.1666C39.5896 5.57293 38.681 5.13619 37.5214 5.13619C34.7774 5.13619 33.6627 7.14493 33.6627 8.55999C33.6627 9.6105 34.363 11.1601 36.8046 11.1601C37.8295 11.1601 39.2863 10.46 39.7056 10.1413L37.7556 14.2194C36.826 14.4015 36.5205 14.5145 35.7338 14.5384C31.3637 14.6664 29.5979 12.0298 29.5991 9.3358C29.6021 5.77417 32.8261 1.4428 38.171 1.4428C38.4984 1.4428 38.899 1.55418 39.2415 1.67744L39.5878 1.24255" fill="#0060AF"/>
<path fill-rule="evenodd" clip-rule="evenodd" d="M50.4417 1.35299L51.0001 14.1282H46.8446L46.8423 11.9373H44.0087L43.0763 14.1282H38.5696L43.2812 5.00562L42.2188 4.99883L44.2372 1.35299H50.4417ZM46.8153 5.26121L45.2133 8.9771H46.8637L46.8153 5.26121Z" fill="#0060AF"/>
<path fill-rule="evenodd" clip-rule="evenodd" d="M26.9757 1.35282C29.0335 1.36414 30.1964 2.4612 30.1964 4.04581C30.1964 5.50686 28.97 6.79993 27.6237 7.46861C29.0098 7.96917 29.1297 9.19756 29.1297 10.0665C29.1297 12.1662 26.9847 14.128 24.1963 14.128H18.115L20.4871 5.13254L19.5127 5.12702L21.5046 1.35282C21.5046 1.35282 25.3023 1.3415 26.9757 1.35282ZM24.9568 6.53246C25.3825 6.53246 26.1341 6.4266 26.322 5.61753C26.5279 4.73911 25.8225 4.71548 25.4842 4.71548L24.2752 4.71038L23.8536 6.53246H24.9568ZM23.2476 8.78999L22.6909 10.8896H24.1146C24.6745 10.8896 25.4378 10.6164 25.6248 9.93319C25.8096 9.24809 25.276 8.78999 24.718 8.78999H23.2476Z" fill="#0060AF"/>
<path fill-rule="evenodd" clip-rule="evenodd" d="M7.99152 15.6978C5.88585 15.6978 3.72212 15.1885 1.56113 14.1812L1.5081 14.1556L1.48274 14.1025C0.512979 12.092 0 9.89325 0 7.74186C0 5.59358 0.491941 3.48875 1.46228 1.48101L1.48908 1.42766L1.54311 1.40105C3.54215 0.470979 5.69248 0 7.93676 0C10.0271 0 12.2599 0.524332 14.3922 1.51922L14.4468 1.54314L14.4722 1.59748C15.4604 3.64499 15.9816 5.84337 15.9816 7.95923C15.9816 10.0666 15.4811 12.1734 14.4916 14.2197L14.4657 14.2733L14.4107 14.2982C12.442 15.2134 10.2223 15.6978 7.99152 15.6978ZM1.76113 13.9055C3.86031 14.8755 5.95415 15.3651 7.99152 15.3651C10.1518 15.3651 12.3001 14.9014 14.2127 14.0222C15.1627 12.0394 15.6443 9.99868 15.6443 7.95924C15.6443 5.9113 15.1417 3.78128 14.1909 1.79391C12.1216 0.838507 9.96043 0.331865 7.93676 0.331865C5.76409 0.331865 3.68149 0.784446 1.74297 1.67744C0.812408 3.62334 0.338767 5.6625 0.338767 7.74186C0.338767 9.8249 0.830852 11.9559 1.76113 13.9055Z" fill="#0060AF"/>
</svg>
