<svg width="24" height="24" viewBox="0 0 24 24" fill="none" xmlns="http://www.w3.org/2000/svg">
<path fill-rule="evenodd" clip-rule="evenodd" d="M13.5017 21L18.3467 20.75C19.6393 20.75 20.5927 19.7475 20.6946 18.45C21.084 13.4896 21.0937 10.4954 20.6946 5.53883C20.5942 4.29259 19.5867 3.31907 18.3467 3.25335L13.6332 3.00355C12.202 2.9277 11.0002 4.0758 11.0002 5.51896V5.88668V11.25H4.81083L6.5305 9.53033C6.82339 9.23744 6.82339 8.76256 6.5305 8.46967C6.2376 8.17678 5.76273 8.17678 5.46984 8.46967L2.61126 11.3282C2.24026 11.6992 2.24026 12.3008 2.61126 12.6718L5.46983 15.5303C5.76273 15.8232 6.2376 15.8232 6.5305 15.5303C6.82339 15.2374 6.82339 14.7626 6.5305 14.4697L4.81083 12.75H11.0002V17.9773V18.4811C11.0002 19.8723 12.1202 21 13.5017 21ZM11.0002 12.75H17.0002C17.4144 12.75 17.7502 12.4142 17.7502 12C17.7502 11.5858 17.4144 11.25 17.0002 11.25H11.0002V12.75Z" fill="white"/>
</svg>
