<svg width="24" height="24" viewBox="0 0 24 24" fill="none" xmlns="http://www.w3.org/2000/svg">
<path d="M3.29918 6.59319C3.40777 5.61526 4.34515 4.8448 5.51901 4.76051C10.3443 4.41402 13.6947 4.41302 18.4814 4.75838C19.661 4.84349 20.5996 5.62169 20.704 6.6048C20.7645 7.17494 20.8155 7.721 20.8574 8.25H3.13986C3.18249 7.71776 3.23537 7.1678 3.29918 6.59319Z" fill="white"/>
<path fill-rule="evenodd" clip-rule="evenodd" d="M3.04434 9.75H20.9535C21.0745 12.2564 20.9738 14.5079 20.6891 17.3756C20.5904 18.3697 19.6454 19.1615 18.453 19.2457C13.6523 19.5849 10.3059 19.5841 5.56642 19.2474C4.37117 19.1624 3.42621 18.3664 3.32857 17.3698C3.04997 14.526 2.92689 12.2761 3.04434 9.75ZM6.5 15.5C6.08579 15.5 5.75 15.8358 5.75 16.25C5.75 16.6642 6.08579 17 6.5 17H8.5C8.91421 17 9.25 16.6642 9.25 16.25C9.25 15.8358 8.91421 15.5 8.5 15.5H6.5ZM11.5 15.5C11.0858 15.5 10.75 15.8358 10.75 16.25C10.75 16.6642 11.0858 17 11.5 17H15.5C15.9142 17 16.25 16.6642 16.25 16.25C16.25 15.8358 15.9142 15.5 15.5 15.5H11.5Z" fill="white"/>
</svg>
