<svg width="24" height="25" viewBox="0 0 24 25" fill="none" xmlns="http://www.w3.org/2000/svg">
<path d="M5.56588 21.2474C10.3044 21.5841 13.65 21.5849 18.4497 21.2457C19.6418 21.1615 20.5866 20.3697 20.6853 19.3756C20.9981 16.225 21.0887 13.8182 20.9074 11L13.0237 14.5403C12.3725 14.8327 11.6274 14.8328 10.9761 14.5406L3.08577 11C2.90432 13.8416 3.02271 16.2478 3.3285 19.3698C3.42612 20.3664 4.37088 21.1624 5.56588 21.2474Z" stroke="#404148" stroke-width="1.5"/>
<path d="M8.50017 6.58288C7.55649 6.62559 6.57277 6.6848 5.51864 6.76051C4.34503 6.8448 3.40785 7.61526 3.29928 8.59319C3.20507 9.44177 3.13468 10.2366 3.08594 11L10.9763 14.5406C11.6276 14.8328 12.3727 14.8327 13.0239 14.5403L20.9076 11C20.8587 10.2392 20.7899 9.44833 20.7004 8.6048C20.596 7.62169 19.6576 6.84349 18.4782 6.75838C17.4265 6.68248 16.4441 6.62331 15.5002 6.58085M8.50017 6.58288V6C8.50017 4.61929 9.61946 3.5 11.0002 3.5H13.0002C14.3809 3.5 15.5002 4.61929 15.5002 6V6.58085M8.50017 6.58288C10.9262 6.47308 13.0875 6.47235 15.5002 6.58085" stroke="#202734" stroke-width="1.5"/>
<path d="M11.5 11.5H12.5" stroke="#404148" stroke-width="1.5" stroke-linecap="round"/>
</svg>
