<svg width="24" height="24" viewBox="0 0 24 24" fill="none" xmlns="http://www.w3.org/2000/svg">
<path d="M16.4867 6.67853C18.2957 7.94729 19.5439 9.96453 19.7972 12.2921M4.30273 12.3378C4.53791 10.0193 5.76806 8.00206 7.55902 6.72417M8.55399 20.1603C9.60324 20.6988 10.7972 21 12.0545 21C13.2666 21 14.4063 20.7262 15.4284 20.2242" stroke="#404148" stroke-width="1.5" stroke-linecap="round" stroke-linejoin="round"/>
<path d="M12.0543 8.07505C13.443 8.07505 14.5688 6.93896 14.5688 5.53753C14.5688 4.13609 13.443 3 12.0543 3C10.6655 3 9.5397 4.13609 9.5397 5.53753C9.5397 6.93896 10.6655 8.07505 12.0543 8.07505Z" stroke="#2782CD" stroke-width="1.5" stroke-linecap="round" stroke-linejoin="round"/>
<path d="M5.51457 19.2292C6.90333 19.2292 8.02915 18.0931 8.02915 16.6917C8.02915 15.2902 6.90333 14.1542 5.51457 14.1542C4.12581 14.1542 3 15.2902 3 16.6917C3 18.0931 4.12581 19.2292 5.51457 19.2292Z" stroke="#2782CD" stroke-width="1.5" stroke-linecap="round" stroke-linejoin="round"/>
<path d="M18.4854 19.2292C19.8742 19.2292 21 18.0931 21 16.6917C21 15.2902 19.8742 14.1542 18.4854 14.1542C17.0967 14.1542 15.9709 15.2902 15.9709 16.6917C15.9709 18.0931 17.0967 19.2292 18.4854 19.2292Z" stroke="#2782CD" stroke-width="1.5" stroke-linecap="round" stroke-linejoin="round"/>
</svg>
