<svg width="24" height="24" viewBox="0 0 24 24" fill="none" xmlns="http://www.w3.org/2000/svg">
<path fill-rule="evenodd" clip-rule="evenodd" d="M12 3C12.3824 3 12.6923 3.30996 12.6923 3.69231V5.76923C12.6923 6.15158 12.3824 6.46154 12 6.46154C11.6176 6.46154 11.3077 6.15158 11.3077 5.76923V3.69231C11.3077 3.30996 11.6176 3 12 3Z" fill="white"/>
<path fill-rule="evenodd" clip-rule="evenodd" d="M18.028 5.972C18.2984 6.24236 18.2984 6.6807 18.028 6.95107L16.9929 7.98613C16.7226 8.25649 16.2842 8.25649 16.0139 7.98613C15.7435 7.71577 15.7435 7.27742 16.0139 7.00706L17.0489 5.972C17.3193 5.70163 17.7576 5.70163 18.028 5.972Z" fill="white"/>
<path fill-rule="evenodd" clip-rule="evenodd" d="M18.028 18.028C18.2984 17.7576 18.2984 17.3193 18.028 17.0489L16.9929 16.0139C16.7226 15.7435 16.2842 15.7435 16.0139 16.0139C15.7435 16.2842 15.7435 16.7226 16.0139 16.9929L17.0489 18.028C17.3193 18.2984 17.7576 18.2984 18.028 18.028Z" fill="white"/>
<path fill-rule="evenodd" clip-rule="evenodd" d="M5.972 18.028C5.70164 17.7576 5.70164 17.3193 5.972 17.0489L7.00707 16.0139C7.27743 15.7435 7.71578 15.7435 7.98614 16.0139C8.2565 16.2842 8.2565 16.7226 7.98614 16.9929L6.95107 18.028C6.68071 18.2984 6.24237 18.2984 5.972 18.028Z" fill="white"/>
<path fill-rule="evenodd" clip-rule="evenodd" d="M5.972 5.972C5.70164 6.24236 5.70164 6.6807 5.972 6.95107L7.00707 7.98613C7.27743 8.25649 7.71578 8.25649 7.98614 7.98613C8.2565 7.71577 8.2565 7.27742 7.98614 7.00706L6.95107 5.972C6.68071 5.70163 6.24237 5.70163 5.972 5.972Z" fill="white"/>
<path fill-rule="evenodd" clip-rule="evenodd" d="M12 17.5385C12.3824 17.5385 12.6923 17.8484 12.6923 18.2308V20.3077C12.6923 20.69 12.3824 21 12 21C11.6176 21 11.3077 20.69 11.3077 20.3077V18.2308C11.3077 17.8484 11.6176 17.5385 12 17.5385Z" fill="white"/>
<path fill-rule="evenodd" clip-rule="evenodd" d="M6.46154 12C6.46154 12.3824 6.15158 12.6923 5.76923 12.6923H3.69231C3.30996 12.6923 3 12.3824 3 12C3 11.6176 3.30996 11.3077 3.69231 11.3077H5.76923C6.15158 11.3077 6.46154 11.6176 6.46154 12Z" fill="white"/>
<path fill-rule="evenodd" clip-rule="evenodd" d="M21 12C21 12.3824 20.69 12.6923 20.3077 12.6923H18.2308C17.8484 12.6923 17.5385 12.3824 17.5385 12C17.5385 11.6176 17.8484 11.3077 18.2308 11.3077H20.3077C20.69 11.3077 21 11.6176 21 12Z" fill="white"/>
<path d="M16 12C16 14.2091 14.2091 16 12 16C9.79086 16 8 14.2091 8 12C8 9.79086 9.79086 8 12 8C14.2091 8 16 9.79086 16 12Z" fill="white"/>
</svg>
