<svg width="37" height="28" viewBox="0 0 37 28" fill="none" xmlns="http://www.w3.org/2000/svg">
<path fill-rule="evenodd" clip-rule="evenodd" d="M17.928 16.1606V13.6569V13.6564H19.2179C19.7497 13.6567 20.1967 13.4812 20.5587 13.13C20.9247 12.7966 21.1292 12.3173 21.1188 11.8177C21.1261 11.3209 20.9219 10.8451 20.5587 10.5129C20.1998 10.1597 19.7171 9.96698 19.2179 9.97759H17.1473V16.1606H17.928ZM17.928 12.8971V10.7388V10.7383H19.2373C19.5291 10.73 19.8104 10.8494 20.0098 11.0664C20.2104 11.2648 20.3236 11.5373 20.3236 11.8219C20.3236 12.1065 20.2104 12.3791 20.0098 12.5775C19.808 12.7898 19.5275 12.9059 19.2373 12.8971H17.928Z" fill="#5F6368"/>
<path fill-rule="evenodd" clip-rule="evenodd" d="M24.2843 12.2627C23.9504 11.949 23.4949 11.7921 22.9178 11.7921C22.1765 11.7921 21.6167 12.0683 21.2385 12.6209L21.9261 13.0614C22.1802 12.6872 22.5253 12.5 22.9614 12.5C23.2395 12.4967 23.5086 12.6001 23.715 12.7896C23.9209 12.9627 24.0393 13.2209 24.0375 13.4926V13.6742C23.7375 13.5015 23.3557 13.4152 22.8921 13.4152C22.349 13.4158 21.9148 13.5454 21.5896 13.8039C21.2643 14.0624 21.1017 14.4105 21.1017 14.8483C21.0946 15.2469 21.2646 15.6275 21.5643 15.8843C21.8728 16.1606 22.256 16.2987 22.7141 16.2987C23.2508 16.2987 23.6807 16.057 24.004 15.5735H24.038V16.1606H24.7848V13.5533C24.7851 13.0067 24.6183 12.5765 24.2843 12.2627ZM22.1666 15.3836C22.0031 15.2636 21.9066 15.0707 21.9077 14.8656C21.9077 14.6352 22.0139 14.4433 22.2277 14.2854C22.4395 14.1298 22.7039 14.052 23.0211 14.052C23.4565 14.052 23.796 14.1507 24.0394 14.348C24.0394 14.6815 23.9101 14.9721 23.6515 15.2198C23.4185 15.4568 23.1027 15.5902 22.7733 15.5908C22.5536 15.5949 22.3393 15.5217 22.1666 15.3836Z" fill="#5F6368"/>
<path fill-rule="evenodd" clip-rule="evenodd" d="M29.0717 11.9302L26.4647 18.0254H25.6587L26.6262 15.8927L24.9119 11.9302H25.7606L26.9996 14.9691H27.0165L28.2216 11.9302H29.0717Z" fill="#5F6368"/>
<path fill-rule="evenodd" clip-rule="evenodd" d="M14.7729 13.1172C14.7732 12.8752 14.7531 12.6335 14.7128 12.395H11.4201V13.763H13.306C13.228 14.2045 12.9761 14.5944 12.6086 14.8424V15.7304H13.7342C14.3932 15.1123 14.7729 14.1981 14.7729 13.1172Z" fill="#4285F4"/>
<path fill-rule="evenodd" clip-rule="evenodd" d="M11.4203 16.5884C12.3625 16.5884 13.1559 16.2736 13.7344 15.7309L12.6089 14.8429C12.2956 15.059 11.8921 15.1824 11.4203 15.1824C10.5096 15.1824 9.73662 14.5578 9.46021 13.7162H8.30075V14.6313C8.89341 15.8311 10.1004 16.5883 11.4203 16.5884Z" fill="#34A853"/>
<path fill-rule="evenodd" clip-rule="evenodd" d="M9.46012 13.7161C9.31399 13.2751 9.31399 12.7975 9.46012 12.3565V11.4413H8.30065C7.80495 12.4448 7.80495 13.6277 8.30065 14.6312L9.46012 13.7161Z" fill="#FBBC04"/>
<path fill-rule="evenodd" clip-rule="evenodd" d="M11.4203 10.8903C11.9182 10.882 12.3993 11.0734 12.7597 11.4231L13.7562 10.4093C13.1243 9.8055 12.2872 9.474 11.4203 9.4843C10.1004 9.48436 8.89341 10.2416 8.30075 11.4414L9.46021 12.3565C9.73662 11.5149 10.5096 10.8903 11.4203 10.8903Z" fill="#EA4335"/>
</svg>
