<svg width="38" height="28" viewBox="0 0 38 28" fill="none" xmlns="http://www.w3.org/2000/svg">
<path fill-rule="evenodd" clip-rule="evenodd" d="M13.0681 11.2327C12.8489 11.508 12.4983 11.7252 12.1476 11.6942C12.1038 11.3219 12.2754 10.9264 12.4763 10.6821C12.6955 10.399 13.079 10.1974 13.3895 10.1819C13.426 10.5696 13.2836 10.9497 13.0681 11.2327ZM13.3858 11.7678C13.0769 11.749 12.795 11.8665 12.5674 11.9614C12.4209 12.0225 12.2968 12.0742 12.2024 12.0742C12.0965 12.0742 11.9673 12.0197 11.8222 11.9585C11.6321 11.8784 11.4148 11.7867 11.187 11.7911C10.6646 11.7989 10.1789 12.1129 9.91221 12.6132C9.36432 13.6136 9.76976 15.0949 10.2994 15.9092C10.5587 16.3124 10.8692 16.7545 11.2783 16.739C11.4583 16.7318 11.5877 16.6734 11.7217 16.6131C11.876 16.5436 12.0362 16.4714 12.2864 16.4714C12.5279 16.4714 12.6812 16.5417 12.8283 16.6092C12.9681 16.6734 13.1024 16.735 13.3018 16.7312C13.7255 16.7235 13.9922 16.3279 14.2515 15.9247C14.5314 15.4919 14.6543 15.0695 14.673 15.0053L14.673 15.0053L14.6752 14.9979C14.6748 14.9974 14.6713 14.9958 14.6653 14.9928L14.6653 14.9928L14.6652 14.9928L14.6652 14.9928C14.5716 14.9473 13.8566 14.5998 13.8497 13.6679C13.8428 12.8857 14.4169 12.4894 14.5073 12.427L14.5073 12.427C14.5128 12.4232 14.5165 12.4206 14.5181 12.4193C14.1529 11.8454 13.5831 11.7833 13.3858 11.7678ZM16.3189 16.6886V10.6433H18.4556C19.5587 10.6433 20.3294 11.4499 20.3294 12.6287C20.3294 13.8075 19.5441 14.6218 18.4264 14.6218H17.2028V16.6886H16.3189ZM17.2028 11.4344H18.2219C18.9889 11.4344 19.4272 11.8687 19.4272 12.6326C19.4272 13.3964 18.9889 13.8346 18.2182 13.8346H17.2028V11.4344ZM23.2478 15.9634C23.0141 16.4365 22.4991 16.7351 21.9439 16.7351C21.122 16.7351 20.5486 16.2155 20.5486 15.4322C20.5486 14.6567 21.1038 14.2108 22.1301 14.1448L23.2332 14.075V13.7416C23.2332 13.2491 22.9301 12.9815 22.3895 12.9815C21.9439 12.9815 21.6188 13.2258 21.553 13.5981H20.7568C20.7823 12.8148 21.4763 12.2448 22.4151 12.2448C23.4268 12.2448 24.0843 12.807 24.0843 13.6795V16.6886H23.2661V15.9634H23.2478ZM22.1813 16.0177C21.7101 16.0177 21.4106 15.7773 21.4106 15.4089C21.4106 15.0289 21.6991 14.8079 22.2507 14.773L23.2332 14.7071V15.0483C23.2332 15.6145 22.7803 16.0177 22.1813 16.0177ZM26.7982 16.9251C26.4439 17.9837 26.0384 18.3327 25.1764 18.3327C25.1107 18.3327 24.8915 18.3249 24.8404 18.3094V17.5843C24.8952 17.5921 25.0303 17.5998 25.0997 17.5998C25.4905 17.5998 25.7097 17.4253 25.8448 16.9716L25.9252 16.7041L24.4276 12.303H25.3517L26.3927 15.8743H26.411L27.452 12.303H28.3505L26.7982 16.9251Z" fill="black"/>
</svg>
