<svg width="24" height="24" viewBox="0 0 24 24" fill="none" xmlns="http://www.w3.org/2000/svg">
<path d="M8.49996 17.5C8.49996 19.433 10.067 21 12 21C13.933 21 15.5 19.433 15.5 17.5M6.23553 17.6416C10.5652 18.111 13.4444 18.1121 17.7651 17.6421C18.4128 17.5717 18.8474 16.9304 18.7494 16.2863C18.4773 14.4987 18.3878 11.9137 18.3763 9.49802C18.3594 5.95697 15.541 3 12 3C8.45887 3 5.64052 5.95697 5.62364 9.49802C5.61213 11.9134 5.52261 14.4981 5.2506 16.2857C5.15256 16.93 5.58759 17.5714 6.23553 17.6416Z" stroke="#404148" stroke-width="1.5"/>
</svg>
