<svg width="50" height="16" viewBox="0 0 50 16" fill="none" xmlns="http://www.w3.org/2000/svg">
<path fill-rule="evenodd" clip-rule="evenodd" d="M7.36747 11.6816C7.36747 11.0682 7.37425 9.42868 7.35885 9.22667C7.37227 6.78698 5.56614 5.06599 4.42511 5.20015C3.63555 5.26745 2.97371 5.58365 2.61855 6.49326C2.28911 7.34099 2.58366 8.46857 3.6785 8.73315C4.84906 9.0173 5.5328 9.25372 6.02753 9.58727C6.63371 9.99559 7.12858 10.7758 7.14172 11.6826" fill="#0060AF"/>
<path fill-rule="evenodd" clip-rule="evenodd" d="M6.87822 11.6825C6.88204 10.8962 6.4352 10.201 5.8512 9.82731C5.33316 9.4971 4.63769 9.28024 3.51573 9.00067C3.16891 8.91354 2.80613 8.71999 2.69382 8.4733C2.39674 8.7673 2.34277 9.42828 2.39504 9.81468C2.45579 10.2616 2.98766 10.9983 3.78852 11.0272C4.2776 11.0465 4.89593 10.9238 5.19246 10.8619C5.70399 10.7534 6.51333 11.0681 6.64216 11.6815" fill="#0060AF"/>
<path fill-rule="evenodd" clip-rule="evenodd" d="M7.78116 1.39777C6.42314 1.39777 5.25032 2.27727 5.25442 3.79917C5.25865 5.07895 6.30659 5.76407 6.68067 6.25343C7.24575 6.99086 7.5516 7.8637 7.58324 9.19926C7.6081 10.2622 7.60683 11.3118 7.61234 11.6838H7.91198C7.90689 11.2946 7.89333 10.1803 7.90873 9.16638C7.92907 7.8304 8.24594 6.99086 8.8113 6.25343C9.18863 5.76407 10.2356 5.07895 10.2378 3.79917C10.2431 2.27727 9.07067 1.39777 7.71406 1.39777" fill="#0060AF"/>
<path fill-rule="evenodd" clip-rule="evenodd" d="M8.12575 11.6816C8.12575 11.0682 8.11869 9.42868 8.13381 9.22667C8.12053 6.78698 9.92553 5.06599 11.0675 5.20015C11.8571 5.26745 12.5181 5.58365 12.8744 6.49326C13.2034 7.34099 12.9073 8.46857 11.8139 8.73315C10.6425 9.0173 9.95971 9.25372 9.46372 9.58727C8.85824 9.99559 8.39798 10.7758 8.38385 11.6826" fill="#0060AF"/>
<path fill-rule="evenodd" clip-rule="evenodd" d="M8.61468 11.6825C8.61044 10.8962 9.05713 10.201 9.63944 9.82731C10.1597 9.4971 10.8559 9.28024 11.9769 9.00067C12.3244 8.91354 12.6868 8.71999 12.7971 8.4733C13.0956 8.7673 13.1496 9.42828 13.0972 9.81468C13.0353 10.2616 12.5047 10.9983 11.7052 11.0272C11.2164 11.0465 10.5947 10.9238 10.2995 10.8619C9.7899 10.7534 8.9783 11.0681 8.8489 11.6815" fill="#0060AF"/>
<path fill-rule="evenodd" clip-rule="evenodd" d="M9.03354 14.2209L8.85992 12.9757L9.27934 12.9133C9.38134 12.8997 9.50566 12.9172 9.55539 12.9799C9.61034 13.0455 9.62715 13.0998 9.63775 13.1858C9.65371 13.2923 9.62235 13.4153 9.50029 13.4766V13.4803C9.63647 13.4803 9.71883 13.5765 9.74285 13.7388C9.74624 13.7732 9.75669 13.8559 9.74624 13.925C9.71855 14.0894 9.61882 14.1424 9.45014 14.1656L9.03354 14.2209ZM9.3035 13.9981C9.35323 13.991 9.40366 13.9884 9.44308 13.9637C9.50354 13.925 9.49803 13.8423 9.48955 13.7807C9.46865 13.6457 9.43276 13.5942 9.28683 13.6155L9.19501 13.6293L9.25321 14.0049L9.3035 13.9981ZM9.21577 13.4226C9.27129 13.4139 9.34645 13.4072 9.37781 13.3555C9.39434 13.3209 9.41525 13.2934 9.4014 13.2166C9.38431 13.1256 9.35365 13.0689 9.23569 13.0909L9.12593 13.1082L9.1693 13.4273L9.21577 13.4226Z" fill="#0060AF"/>
<path fill-rule="evenodd" clip-rule="evenodd" d="M10.8504 13.472C10.8537 13.4952 10.8575 13.521 10.8589 13.5442C10.8928 13.7711 10.8504 13.9593 10.5905 14.011C10.2061 14.0836 10.1325 13.8493 10.065 13.521L10.029 13.3433C9.97598 13.0293 9.95324 12.7915 10.3279 12.7181C10.5391 12.6803 10.6787 12.7629 10.7367 12.9693C10.7458 13.0001 10.7571 13.0305 10.7613 13.0616L10.5315 13.1082C10.5049 13.0305 10.4697 12.8919 10.3663 12.9036C10.1807 12.9256 10.242 13.1523 10.2611 13.2472L10.3301 13.5881C10.3509 13.6912 10.3922 13.8559 10.5528 13.8241C10.6832 13.7985 10.6262 13.599 10.6147 13.5171" fill="#0060AF"/>
<path fill-rule="evenodd" clip-rule="evenodd" d="M11.2193 13.8488L11.1399 12.5601L11.4486 12.4676L12.096 13.5884L11.8529 13.6598L11.6995 13.375L11.4295 13.4546L11.4644 13.7785L11.2193 13.8488ZM11.4069 13.2465L11.602 13.191L11.3429 12.6696L11.4069 13.2465Z" fill="#0060AF"/>
<path fill-rule="evenodd" clip-rule="evenodd" d="M3.5919 12.8743C3.68853 12.5706 3.77499 12.3468 4.14384 12.4462C4.34119 12.5004 4.46353 12.5857 4.45774 12.8109C4.45675 12.861 4.43994 12.9122 4.42892 12.9616L4.19936 12.8994C4.22945 12.775 4.24852 12.6763 4.09256 12.6292C3.9123 12.5806 3.86837 12.7954 3.8435 12.8881L3.75012 13.2258C3.72046 13.3261 3.68486 13.4919 3.8435 13.5347C3.9746 13.5693 4.05399 13.443 4.10146 13.2585L3.94098 13.2166L3.9965 13.0212L4.37411 13.1404L4.19484 13.7916L4.02108 13.7452L4.06021 13.6076H4.05527C3.97517 13.7202 3.87769 13.732 3.79222 13.7158C3.41461 13.6156 3.45402 13.3732 3.54415 13.0494" fill="#0060AF"/>
<path fill-rule="evenodd" clip-rule="evenodd" d="M4.99733 13.4243L4.8836 13.954L4.62762 13.8998L4.90042 12.6629L5.3368 12.7596C5.59221 12.8138 5.66934 12.9254 5.63318 13.1554C5.61255 13.2874 5.5463 13.4294 5.38455 13.4179L5.38285 13.4158C5.5196 13.4627 5.53118 13.5306 5.50731 13.6475C5.497 13.6975 5.42594 13.9997 5.47496 14.0485L5.47665 14.0857L5.21177 14.0177C5.20075 13.9341 5.23833 13.7834 5.25316 13.6999C5.268 13.626 5.29187 13.522 5.21559 13.483C5.15597 13.4516 5.13365 13.4532 5.06612 13.438L4.99733 13.4243ZM5.04098 13.2327L5.21333 13.2783C5.31801 13.2933 5.37621 13.2401 5.39684 13.1157C5.41548 13.0018 5.39133 12.9574 5.29738 12.9354L5.1126 12.8985L5.04098 13.2327Z" fill="#0060AF"/>
<path fill-rule="evenodd" clip-rule="evenodd" d="M6.63923 12.9391L6.89239 12.9679L6.78333 13.8376C6.73035 14.1133 6.62186 14.2337 6.31304 14.1961C5.99886 14.157 5.92427 14.0166 5.9432 13.7387L6.05311 12.8699L6.30824 12.8984L6.19876 13.7478C6.18703 13.8401 6.16542 13.9768 6.3324 13.9934C6.48059 14.0045 6.51421 13.9079 6.53102 13.7881" fill="#0060AF"/>
<path fill-rule="evenodd" clip-rule="evenodd" d="M7.17142 14.2438L7.24771 13.0004L7.73395 13.021C7.96394 13.0323 8.02398 13.2165 8.01692 13.3925C8.01014 13.4994 7.97623 13.6189 7.8813 13.6837C7.80346 13.7388 7.7033 13.7518 7.61063 13.7474L7.45212 13.7388L7.42048 14.2599L7.17142 14.2438ZM7.45919 13.5491L7.58802 13.5562C7.6927 13.5599 7.76207 13.5193 7.77111 13.3683C7.77634 13.2235 7.72039 13.1988 7.58477 13.1929L7.48278 13.1895L7.45919 13.5491Z" fill="#0060AF"/>
<path fill-rule="evenodd" clip-rule="evenodd" d="M41.4762 2.59954L39.543 6.04568C38.8134 5.46365 37.9225 5.03548 36.7857 5.03548C34.0955 5.03548 33.0027 7.00483 33.0027 8.39214C33.0027 9.42204 33.6893 10.9413 36.0829 10.9413C37.0878 10.9413 38.516 10.2549 38.9271 9.94247L37.0153 13.9405C36.104 14.1191 35.8045 14.2298 35.0331 14.2533C30.7487 14.3788 29.0176 11.7939 29.0187 9.15274C29.0217 5.66094 32.1825 1.41452 37.4226 1.41452C37.7435 1.41452 38.1363 1.52371 38.4721 1.64456L38.8115 1.21819" fill="#0060AF"/>
<path fill-rule="evenodd" clip-rule="evenodd" d="M49.4526 1.32629L50 13.8509H45.9261L45.9238 11.703H43.1458L42.2316 13.8509H37.8133L42.4325 4.90729L41.3909 4.90063L43.3698 1.32629H49.4526ZM45.8973 5.15787L44.3268 8.80089H45.9448L45.8973 5.15787Z" fill="#0060AF"/>
<path fill-rule="evenodd" clip-rule="evenodd" d="M26.4468 1.32624C28.4643 1.33734 29.6043 2.41289 29.6043 3.96642C29.6043 5.39882 28.402 6.66653 27.0821 7.3221C28.441 7.81284 28.5585 9.01715 28.5585 9.86904C28.5585 11.9276 26.4556 13.8509 23.7219 13.8509H17.7599L20.0854 5.03184L19.1302 5.02643L21.0829 1.32624C21.0829 1.32624 24.8062 1.31514 26.4468 1.32624ZM24.4675 6.4043C24.8848 6.4043 25.6217 6.30052 25.8059 5.50732C26.0077 4.64613 25.3162 4.62296 24.9845 4.62296L23.7993 4.61796L23.3859 6.4043H24.4675ZM22.7917 8.61756L22.246 10.676H23.6418C24.1907 10.676 24.939 10.4082 25.1224 9.73834C25.3035 9.06668 24.7804 8.61756 24.2334 8.61756H22.7917Z" fill="#0060AF"/>
<path fill-rule="evenodd" clip-rule="evenodd" d="M7.8348 15.39C5.77043 15.39 3.64913 14.8907 1.53051 13.9031L1.47853 13.878L1.45366 13.8259C0.502919 11.8549 0 9.69924 0 7.59004C0 5.48389 0.482294 3.42034 1.4336 1.45197L1.45988 1.39966L1.51285 1.37357C3.47268 0.461743 5.58085 0 7.78112 0C9.83051 0 12.0195 0.51405 14.11 1.48943L14.1635 1.51287L14.1884 1.56615C15.1572 3.57351 15.6682 5.72878 15.6682 7.80315C15.6682 9.8692 15.1776 11.9347 14.2075 13.9408L14.182 13.9934L14.1281 14.0178C12.198 14.9151 10.0218 15.39 7.8348 15.39ZM1.72659 13.6328C3.78461 14.5838 5.83739 15.0638 7.8348 15.0638C9.95271 15.0638 12.0589 14.6091 13.934 13.7473C14.8654 11.8033 15.3375 9.80261 15.3375 7.80315C15.3375 5.79538 14.8447 3.70713 13.9126 1.75873C11.8839 0.822064 9.76511 0.325357 7.78112 0.325357C5.65106 0.325357 3.60929 0.769063 1.70879 1.64454C0.796477 3.55229 0.332125 5.55146 0.332125 7.59004C0.332125 9.63223 0.81456 11.7214 1.72659 13.6328Z" fill="#0060AF"/>
</svg>
