<svg width="24" height="24" viewBox="0 0 24 24" fill="none" xmlns="http://www.w3.org/2000/svg">
<path d="M9.43153 14.2362L9.97735 11.1448C9.98449 11.1044 10.0039 11.0672 10.0329 11.0382L16.6568 4.41421C17.4379 3.63316 18.7042 3.63316 19.4853 4.41421C20.2663 5.19526 20.2663 6.46159 19.4853 7.24264L12.8613 13.8666C12.8323 13.8956 12.7951 13.915 12.7547 13.9221L9.66326 14.4679C9.52652 14.4921 9.40739 14.373 9.43153 14.2362Z" stroke="#202734" stroke-width="1.5" stroke-linecap="round"/>
<path d="M12 4.00199C9.91017 3.98451 7.8491 4.08232 5.37856 4.29525C4.27015 4.39078 3.38504 5.26396 3.2825 6.37228C2.86233 10.9139 2.94386 14.097 3.31025 18.5858C3.40245 19.7153 4.29472 20.6174 5.42333 20.7137C9.89856 21.0953 13.0584 21.0962 17.5914 20.7118C18.7173 20.6163 19.6096 19.719 19.7028 18.5924C19.9382 15.7472 20.0403 13.4371 19.9855 11" stroke="#404148" stroke-width="1.5" stroke-linecap="round"/>
</svg>
