<svg width="37" height="28" viewBox="0 0 37 28" fill="none" xmlns="http://www.w3.org/2000/svg">
<g clip-path="url(#clip0_1_2134)">
<path d="M9.81196 9.45277C9.44604 9.37508 9.0654 9.5572 8.87273 9.90193C8.82725 9.9836 8.79446 10.0714 8.77374 10.1617C8.68877 9.81015 8.42153 9.52504 8.08203 9.45277C7.71611 9.37508 7.33513 9.5572 7.14247 9.90193C7.09698 9.9836 7.06421 10.0714 7.04347 10.1617C6.95818 9.81051 6.69126 9.52504 6.35176 9.45277C5.98584 9.37508 5.60487 9.5572 5.41221 9.90193C5.21888 10.2481 5.24966 10.702 5.4878 11.0138C5.72562 11.3253 6.12867 11.4464 6.48087 11.3094C6.7615 11.2003 6.97089 10.9423 7.0438 10.6373C7.07524 10.7732 7.13311 10.9025 7.21807 11.0138C7.45588 11.3253 7.85893 11.4464 8.21114 11.3094C8.49177 11.2003 8.70115 10.9423 8.77407 10.6373C8.8055 10.7732 8.86337 10.9025 8.94832 11.0138C9.18613 11.3253 9.58919 11.4464 9.9414 11.3094C10.2923 11.1728 10.5328 10.8031 10.5328 10.4002C10.5324 9.94529 10.2257 9.54094 9.81196 9.45277Z" fill="#FDAF27"/>
<path d="M6.95703 14.1436C7.04801 14.5638 7.2798 14.9559 7.68552 15.0759C8.07085 15.1897 8.50032 15.005 8.69866 14.6281C8.81775 14.4019 8.80268 14.1461 8.80169 13.8957C8.80101 13.7269 8.80002 13.5585 8.80035 13.3898C8.80035 13.2041 8.80035 13.0183 8.80134 12.8329C8.80235 12.5952 8.79599 12.3643 8.90571 12.1485C9.05723 11.8501 9.35859 11.6665 9.67333 11.6799C9.99109 11.6936 10.2807 11.909 10.4072 12.2244C10.4911 12.434 10.4768 12.6613 10.4774 12.8843C10.4781 13.0682 10.4781 13.2525 10.4781 13.4364C10.4781 13.8339 10.5012 14.2484 10.4296 14.6397C10.264 15.5456 9.68304 16.3341 8.89567 16.6973C8.10831 17.0604 7.17578 16.9632 6.46602 16.4465C6.11615 16.1917 5.82783 15.8394 5.63784 15.4321C5.4502 15.0292 5.33648 14.5259 5.40839 14.0749C5.46224 13.7389 5.70808 13.4642 6.01748 13.3956C6.33891 13.3244 6.6754 13.4848 6.84297 13.7894C6.90385 13.8997 6.93027 14.0196 6.95703 14.1436Z" fill="#FDAF27"/>
<path d="M31.7144 14.0811C31.7144 15.3119 30.7808 16.2944 29.6021 16.2944C28.4316 16.2944 27.5138 15.3202 27.5138 14.0811C27.5138 12.8421 28.4316 11.8762 29.6098 11.8762C30.7813 11.8762 31.7144 12.8504 31.7144 14.0811ZM28.5978 14.0894C28.5978 14.7561 29.0249 15.2346 29.6103 15.2346C30.188 15.2346 30.6227 14.7475 30.6227 14.0894C30.6227 13.4228 30.1875 12.9273 29.6103 12.9273C29.0249 12.9273 28.5978 13.4144 28.5978 14.0894Z" fill="black"/>
<path d="M14.8182 14.9132C15.0169 15.0365 15.2079 15.1626 15.446 15.1474C15.6741 15.1329 15.8825 15.0039 16.0123 14.8012C16.1331 14.613 16.1304 14.3979 16.1304 14.18C16.1304 13.8122 16.1304 11.2932 16.1304 11.11C16.1304 10.9832 16.124 10.8578 16.1692 10.7367C16.3033 10.3779 16.7378 10.2623 17.0107 10.5134C17.1569 10.6478 17.1984 10.8325 17.1984 11.0294C17.1984 11.4258 17.2091 14.1699 17.1957 14.442C17.1716 14.9331 16.9649 15.4086 16.6401 15.7516C16.3036 16.1071 15.8424 16.3026 15.3731 16.3023C14.9226 16.3019 14.4466 16.1151 14.1516 15.735C14.0332 15.5821 13.9643 15.4014 14.0108 15.2012C14.0556 15.0083 14.1998 14.854 14.3794 14.8084C14.5426 14.768 14.6797 14.8272 14.8182 14.9132Z" fill="black"/>
<path d="M22.2183 15.2673L22.2189 15.267C22.055 15.1597 21.9537 14.9689 21.9507 14.7618V12.4531C21.9507 12.1344 21.7115 11.8764 21.4165 11.8764C21.1463 11.8764 20.9238 12.0932 20.888 12.3747C20.6184 12.0607 20.2104 11.8764 19.7207 11.8764C18.6213 11.8764 17.8222 12.808 17.8222 14.0897C17.8222 15.3718 18.6213 16.303 19.7207 16.303C19.7257 16.303 19.7307 16.3026 19.7358 16.3026C19.7408 16.3026 19.7458 16.303 19.7508 16.303C20.2783 16.303 20.7358 16.0884 21.0697 15.7237C21.2402 16.0103 21.5155 16.2202 21.8446 16.2846C21.8768 16.2907 21.9089 16.294 21.9403 16.294C21.9423 16.294 21.9443 16.2936 21.946 16.2932C21.9483 16.2932 21.951 16.2936 21.9534 16.2936C22.2363 16.2936 22.4654 16.0461 22.4654 15.7404C22.4658 15.5395 22.3664 15.3642 22.2183 15.2673ZM19.9187 15.2518C19.3254 15.2518 18.9063 14.7647 18.9063 14.0897C18.9063 13.4143 19.3334 12.9189 19.9187 12.9189C20.504 12.9189 20.9074 13.3973 20.9074 14.0897C20.9074 14.7817 20.5118 15.2518 19.9187 15.2518Z" fill="black"/>
<path d="M26.9314 12.4572C26.9314 12.1241 26.71 11.8762 26.4093 11.8762C26.1323 11.8762 25.9109 12.0984 25.8872 12.4059C25.6182 12.0727 25.1988 11.8762 24.6927 11.8762C23.5933 11.8762 22.7942 12.8077 22.7942 14.0895C22.7942 15.3712 23.5933 16.3027 24.6927 16.3027C25.1864 16.3027 25.5945 16.1181 25.8634 15.7907V15.928C25.8597 16.6178 25.4634 17.0804 24.8747 17.0804C24.6225 17.0804 24.3957 16.9936 24.2191 16.8299C24.1532 16.7689 24.095 16.6973 24.0458 16.6175C23.8826 16.3523 23.5511 16.2803 23.3056 16.4567C23.0601 16.633 22.9936 16.9911 23.1568 17.2564C23.2601 17.424 23.3836 17.5751 23.5237 17.7052C23.8967 18.0513 24.3639 18.2342 24.875 18.2342C26.0534 18.2342 26.9117 17.2816 26.9307 15.9631L26.9317 15.7134C26.9317 15.7134 26.9317 15.7134 26.9317 15.713V12.4572H26.9314ZM24.8907 15.2519C24.2974 15.2519 23.8783 14.7648 23.8783 14.0898C23.8783 13.4148 24.3054 12.919 24.8907 12.919C25.4761 12.919 25.8794 13.3975 25.8794 14.0898C25.8794 14.7818 25.4838 15.2519 24.8907 15.2519Z" fill="black"/>
</g>
<defs>
<clipPath id="clip0_1_2134">
<rect width="25.974" height="8.72727" fill="white" transform="translate(5.28575 9.43501) scale(1.0175)"/>
</clipPath>
</defs>
</svg>
