<svg width="37" height="28" viewBox="0 0 37 28" fill="none" xmlns="http://www.w3.org/2000/svg">
<path fill-rule="evenodd" clip-rule="evenodd" d="M4.23938 14.2245H4.73134C5.0143 14.2245 5.24129 14.2478 5.49164 14.5503C5.6672 14.7579 5.86224 15.2213 5.86224 15.9669C5.86224 16.2361 5.86611 16.501 5.818 16.7738C5.73844 17.2052 5.54882 17.894 4.46188 17.894C4.17201 17.894 4.23938 17.8863 4.23938 17.8863V14.2245ZM4.79982 18.5299C6.26189 18.5299 6.91745 17.848 6.91745 15.986C6.91745 15.4933 6.77871 14.6686 6.33874 14.1644C5.88494 13.6482 5.29847 13.5825 4.80104 13.5825H3.1715V18.5299H4.79982Z" fill="#004F38"/>
<path fill-rule="evenodd" clip-rule="evenodd" d="M9.41707 17.2489C9.41707 17.4126 9.41016 17.6327 9.24572 17.7895C9.10571 17.9179 8.91039 17.9284 8.83313 17.9284C8.64841 17.9284 8.48332 17.8577 8.41184 17.6196C8.3939 17.5431 8.38606 17.4667 8.38606 17.3931C8.38606 17.0316 8.61543 16.8794 8.87092 16.8155C9.00574 16.7836 9.09441 16.7761 9.41707 16.7484V17.2489ZM9.41707 16.3019L8.88381 16.3563C8.30771 16.4268 8.09002 16.4812 7.84291 16.6512C7.44662 16.9333 7.44149 17.3454 7.44149 17.4814C7.44149 17.8186 7.53875 18.0736 7.67245 18.2207C7.84924 18.4344 8.12828 18.5135 8.39829 18.5135C9.05965 18.5135 9.37493 18.1996 9.37493 18.1996L9.38157 18.4232H10.2707V16.0822C10.2707 15.818 10.2779 15.4492 9.98803 15.1863C9.83765 15.0497 9.70451 14.9883 9.50083 14.9568C9.29627 14.9197 9.22414 14.9047 9.02709 14.9047C8.42614 14.9047 7.97155 15.0141 7.71197 15.4954C7.60041 15.7035 7.6084 15.9121 7.6084 16.0716H8.42614C8.43277 15.9325 8.4381 15.7403 8.54395 15.6063C8.5966 15.5301 8.72021 15.4218 8.94833 15.4218C9.02256 15.4218 9.23979 15.4218 9.35008 15.6093C9.41016 15.7205 9.41707 15.8659 9.41707 16.0294V16.3019Z" fill="#004F38"/>
<path fill-rule="evenodd" clip-rule="evenodd" d="M16.5178 17.2489C16.5178 17.4126 16.5114 17.6327 16.3448 17.7895C16.2091 17.9179 16.0114 17.9284 15.9321 17.9284C15.7482 17.9284 15.583 17.8577 15.5128 17.6196C15.4943 17.5431 15.4882 17.4667 15.4882 17.3931C15.4882 17.0316 15.7156 16.8794 15.9725 16.8155C16.1074 16.7836 16.1958 16.7761 16.5178 16.7484V17.2489ZM16.5178 16.3019L15.9851 16.3563C15.4069 16.4268 15.1921 16.4812 14.9436 16.6512C14.5491 16.9333 14.5421 17.3454 14.5421 17.4814C14.5421 17.8186 14.6394 18.0736 14.7722 18.2207C14.9502 18.4344 15.2313 18.5135 15.5 18.5135C16.1618 18.5135 16.4764 18.1996 16.4764 18.1996L16.4818 18.4232H17.3714V16.0822C17.3714 15.818 17.3774 15.4492 17.0899 15.1863C16.9389 15.0497 16.8037 14.9883 16.6015 14.9568C16.3975 14.9197 16.326 14.9047 16.1277 14.9047C15.5265 14.9047 15.0722 15.0141 14.8138 15.4954C14.7019 15.7035 14.7094 15.9121 14.7094 16.0716H15.5265C15.534 15.9325 15.5397 15.7403 15.645 15.6063C15.6958 15.5301 15.8196 15.4218 16.0503 15.4218C16.1236 15.4218 16.3409 15.4218 16.4528 15.6093C16.5114 15.7205 16.5178 15.8659 16.5178 16.0294V16.3019Z" fill="#004F38"/>
<path fill-rule="evenodd" clip-rule="evenodd" d="M29.9535 18.4233H29.0238V16.3283C29.0238 16.1932 29.0238 16.0824 29.0109 15.9679C29.0041 15.8585 28.9718 15.5017 28.5668 15.5017C28.4592 15.5017 28.3682 15.5301 28.3096 15.5554C28.0353 15.6878 28.0287 15.9198 28.0227 16.1053V18.4233H27.0893V14.9941H28.0227V15.3847C28.2578 15.1656 28.4688 14.9263 28.9909 14.9263C29.4306 14.9263 29.648 15.1034 29.7378 15.2128C29.9451 15.4553 29.9451 15.7707 29.9535 16.0169V18.4233Z" fill="#004F38"/>
<path fill-rule="evenodd" clip-rule="evenodd" d="M13.8593 18.4233H12.9287V16.3283C12.9287 16.1932 12.9287 16.0824 12.9138 15.9679C12.9085 15.8585 12.8761 15.5017 12.4663 15.5017C12.3641 15.5017 12.2722 15.5301 12.2139 15.5554C11.9382 15.6878 11.9303 15.9198 11.9244 16.1053V18.4233H10.9916V14.9941H11.9244V15.3847C12.1619 15.1656 12.3707 14.9263 12.8943 14.9263C13.3349 14.9263 13.55 15.1034 13.6418 15.2128C13.8515 15.4553 13.8515 15.7707 13.8593 16.0169V18.4233Z" fill="#004F38"/>
<path fill-rule="evenodd" clip-rule="evenodd" d="M18.053 14.9923H18.9861V15.3917C19.1644 15.2235 19.4794 14.9223 20.0402 14.9223C20.6793 14.9223 20.8573 15.322 20.9018 15.4516C21.2818 15.0681 21.533 14.9223 21.8988 14.9223C22.0765 14.9223 22.2003 14.9531 22.3187 14.9981C22.8189 15.1984 22.8311 15.6654 22.8391 15.9671V18.4198H21.8931V16.1865C21.8872 15.9428 21.8806 15.807 21.8186 15.6986C21.8082 15.6712 21.7148 15.4994 21.48 15.4994C21.4008 15.4994 21.2486 15.5197 21.1765 15.5615C20.9172 15.6924 20.9067 15.9166 20.9018 16.1005V18.4198H19.9773V16.1998C19.9773 15.9368 19.9819 15.4994 19.5589 15.4994C19.4653 15.4994 19.2996 15.5274 19.2177 15.5752C18.9861 15.7249 18.9795 15.9428 18.9861 16.248V18.4198H18.053V14.9923Z" fill="#004F38"/>
<path fill-rule="evenodd" clip-rule="evenodd" d="M25.5908 16.6336C25.5908 16.83 25.5834 17.0152 25.5648 17.205C25.5451 17.3931 25.5146 17.7734 25.2344 17.9335C25.1539 17.9736 25.0695 17.9947 24.9825 17.9947C24.4539 17.9947 24.4067 17.4164 24.3948 17.205C24.383 17.047 24.3741 16.8915 24.3741 16.7382C24.3741 16.6017 24.383 16.4113 24.4025 16.1867C24.4214 16.0052 24.4588 15.6571 24.7282 15.4933C24.8207 15.4449 24.9092 15.4246 25.0115 15.4246C25.5146 15.4246 25.5591 15.9735 25.5711 16.1867C25.5834 16.3365 25.5908 16.4879 25.5908 16.6336ZM26.5411 16.6512C26.5411 16.348 26.5411 15.7789 26.2187 15.3915C25.8263 14.9047 25.2658 14.9047 25.0695 14.9047C24.8391 14.9047 24.3104 14.9147 23.8962 15.3064C23.4272 15.7449 23.4272 16.441 23.4272 16.7945C23.4272 17.4643 23.5717 18.1736 24.383 18.4199C24.6191 18.4963 24.7453 18.5086 24.9825 18.5086C25.2059 18.5086 25.7611 18.5086 26.1741 18.0282C26.5411 17.6051 26.5411 16.9672 26.5411 16.6512Z" fill="#004F38"/>
<path fill-rule="evenodd" clip-rule="evenodd" d="M3.1715 6.65998V9.0133H8.02307V7.73168L3.1715 6.65998Z" fill="#F15B22"/>
<path fill-rule="evenodd" clip-rule="evenodd" d="M13.8261 9.0133L8.02178 6.65998L8.02297 7.73168L13.8261 9.0133Z" fill="#FFC222"/>
<path fill-rule="evenodd" clip-rule="evenodd" d="M8.02178 9.01326H13.824L8.02178 7.73163V9.01326Z" fill="#F7931D"/>
<path fill-rule="evenodd" clip-rule="evenodd" d="M13.8247 9.01121V9.01335L26.0127 11.7074V9.01121H13.8247Z" fill="#F15B22"/>
<path fill-rule="evenodd" clip-rule="evenodd" d="M33.8281 13.4346V9.01109H26.0132V11.7083L33.8281 13.4346Z" fill="#F7931D"/>
<path fill-rule="evenodd" clip-rule="evenodd" d="M26.0128 11.7083L13.8275 9.01407L26.0128 13.4367V11.7083Z" fill="#FFC222"/>
</svg>
