<svg width="24" height="25" viewBox="0 0 24 25" fill="none" xmlns="http://www.w3.org/2000/svg">
<path d="M19.3621 8C19.497 8.16067 19.6249 8.3275 19.7453 8.5C20.5361 9.63383 20.9999 11.0128 20.9999 12.5C20.9999 13.9872 20.5361 15.3662 19.7453 16.5C19.6249 16.6725 19.497 16.8393 19.3621 17M18 12.5C18 16.6421 14.6421 20 10.5 20C6.35786 20 3 16.6421 3 12.5C3 8.35786 6.35786 5 10.5 5C14.6421 5 18 8.35786 18 12.5Z" stroke="#404148" stroke-width="1.5" stroke-linecap="round"/>
<path d="M10.5 9C11.8807 9 13 9.7835 13 10.75M10.5 9C9.11929 9 8 9.7835 8 10.75C8 11.7165 9.11929 12.5 10.5 12.5M10.5 9V7.75M10.5 9V12.5M10.5 12.5C11.8807 12.5 13 13.2835 13 14.25C13 15.2165 11.8807 16 10.5 16M10.5 12.5V16M10.5 16C9.11929 16 8 15.2165 8 14.25M10.5 16V17.25" stroke="#202734" stroke-width="1.5" stroke-linecap="round"/>
</svg>
