<svg width="24" height="24" viewBox="0 0 24 24" fill="none" xmlns="http://www.w3.org/2000/svg">
<path d="M15.4999 6.5C15.4999 8.433 13.9329 10 11.9999 10C10.0669 10 8.49993 8.433 8.49993 6.5C8.49993 4.567 10.0669 3 11.9999 3C13.9329 3 15.4999 4.567 15.4999 6.5Z" stroke="#D5D9D1" stroke-width="1.5"/>
<path d="M5.42407 17.4898C5.76687 15.1147 7.6056 13.1739 9.99892 12.9995C11.3663 12.8999 12.6383 12.8997 14.0031 12.999C16.3954 13.1729 18.2328 15.1137 18.5755 17.4878L18.6421 17.9495C18.8396 19.3178 17.8891 20.595 16.5145 20.7424C13.2884 21.0883 10.722 21.0843 7.49114 20.7397C6.11438 20.5928 5.16069 19.3146 5.35848 17.9442L5.42407 17.4898Z" stroke="#D5D9D1" stroke-width="1.5"/>
</svg>
