<svg width="37" height="28" viewBox="0 0 37 28" fill="none" xmlns="http://www.w3.org/2000/svg">
<path fill-rule="evenodd" clip-rule="evenodd" d="M13.2268 7.87518L13.2144 8.12772L17.8673 13.8082L18.0345 13.8361L18.0555 13.8251L18.1372 13.6682L16.1528 6.75597L15.816 6.51975L13.2268 7.87518Z" fill="#0096B8"/>
<path fill-rule="evenodd" clip-rule="evenodd" d="M17.8673 13.8082L18.0343 13.8361L14.603 8.40348L13.2144 8.12773L17.8673 13.8082Z" fill="#005675"/>
<path fill-rule="evenodd" clip-rule="evenodd" d="M15.816 6.51975L14.6298 7.97298L15.1143 8.19337L16.1528 6.75621V6.75597L15.816 6.51975Z" fill="#0BBBEF"/>
<path fill-rule="evenodd" clip-rule="evenodd" d="M15.1137 8.1934L18.0555 13.8251L18.1372 13.6677L16.153 6.75648L15.1137 8.1934Z" fill="#007290"/>
<path fill-rule="evenodd" clip-rule="evenodd" d="M20.4317 6.53446L18.4417 15.8822L18.5119 16.0576L18.5453 16.0732L18.7706 16.0117L23.7082 8.22827L23.7027 7.8222L20.6938 6.38262L20.4317 6.53446Z" fill="#81B73E"/>
<path fill-rule="evenodd" clip-rule="evenodd" d="M21.7038 8.40617L18.5456 16.0732L18.7704 16.0118L23.7082 8.22834L21.7038 8.40617Z" fill="#69931D"/>
<path fill-rule="evenodd" clip-rule="evenodd" d="M18.4417 15.8817L18.5121 16.0572L21.136 8.08073L20.4317 6.53477L18.4417 15.8817Z" fill="#277933"/>
<path fill-rule="evenodd" clip-rule="evenodd" d="M23.7025 7.82255L21.5901 7.85096L21.704 8.40634L23.7082 8.22838L23.7027 7.82255H23.7025Z" fill="#AECC53"/>
<path fill-rule="evenodd" clip-rule="evenodd" d="M20.4318 6.53447L21.1353 8.08019L21.5902 7.85098L20.6939 6.38299L20.4318 6.53447Z" fill="#69931D"/>
<path fill-rule="evenodd" clip-rule="evenodd" d="M20.0701 3.88507L16.2183 3.92823L16.0982 4.1682L18.2264 10.5517L18.3528 10.6402L18.3566 10.6408L18.4738 10.5704L20.319 4.15369L20.0701 3.88507Z" fill="#E4032E"/>
<path fill-rule="evenodd" clip-rule="evenodd" d="M16.0982 4.16813L18.2264 10.5517L18.3521 10.6403L17.5908 4.94099L16.0982 4.16789V4.16813Z" fill="#791B15"/>
<path fill-rule="evenodd" clip-rule="evenodd" d="M18.3148 4.94206L18.3564 10.6408L18.4736 10.5698L20.3187 4.15373L18.3148 4.94206Z" fill="#B51227"/>
<path fill-rule="evenodd" clip-rule="evenodd" d="M23.098 21.111C23.101 21.0441 23.1047 20.9373 23.1077 20.7914V17.9841L23.0995 17.7117C23.0975 17.654 23.095 17.6147 23.0923 17.5937C23.0896 17.5718 23.0854 17.5531 23.0797 17.536C23.0604 17.4669 23.0182 17.418 22.9549 17.3882C22.8963 17.3611 22.8095 17.348 22.6971 17.3471V17.2519L24.15 17.2513C24.3614 17.2523 24.552 17.2672 24.7223 17.2978C24.8927 17.3275 25.0298 17.3689 25.1348 17.4219C25.4383 17.581 25.5885 17.8486 25.5867 18.2288C25.5905 18.7731 25.2661 19.1202 24.5948 19.2098L24.4822 19.2299C24.6332 19.236 24.8372 19.2911 24.9323 19.3156C25.0266 19.3396 25.119 19.3777 25.2097 19.4297C25.5658 19.6273 25.7414 19.9428 25.7378 20.3801C25.7395 20.9103 25.5053 21.2548 25.0296 21.4178C24.9258 21.4506 24.7953 21.4763 24.6379 21.4953C24.4797 21.5141 24.3084 21.5236 24.1231 21.524H22.6971V21.4283C22.8651 21.426 22.9806 21.3977 23.0318 21.3313C23.0529 21.309 23.0682 21.284 23.0781 21.2556C23.0884 21.2269 23.0946 21.1774 23.098 21.111ZM23.5452 17.383V19.1644H24.1122C24.7715 19.16 25.113 18.858 25.1166 18.2529C25.1213 17.6653 24.7616 17.3786 24.0637 17.383H23.5452ZM25.2303 20.332C25.2263 19.9172 25.0904 19.6234 24.8191 19.459C24.7366 19.413 24.632 19.3773 24.5062 19.3518C24.3808 19.3265 24.2421 19.3138 24.0906 19.3134H23.5452V21.3929H24.0906C24.4857 21.3947 24.7746 21.3133 24.9525 21.1429C25.0425 21.0607 25.111 20.95 25.1585 20.8105C25.2059 20.6712 25.2294 20.5112 25.2303 20.332Z" fill="black"/>
<path fill-rule="evenodd" clip-rule="evenodd" d="M27.8175 21.4021C27.7879 21.3378 27.7671 21.2613 27.7584 21.0654L27.7557 21.0078L27.7208 21.0516C27.6792 21.1026 27.6384 21.1481 27.5988 21.1861C27.5586 21.2245 27.5119 21.2639 27.4598 21.3037C27.3452 21.3968 27.2346 21.4624 27.1287 21.5004C27.0227 21.5385 26.9034 21.5569 26.7703 21.5555C26.5385 21.5569 26.3606 21.4961 26.2335 21.3767C26.1626 21.3063 26.1065 21.2176 26.0655 21.11C26.0251 21.0025 26.0041 20.8872 26.0032 20.763C26.0057 20.3058 26.26 20.0111 26.7805 19.8804C26.918 19.845 27.0635 19.8161 27.2165 19.7938C27.3697 19.771 27.5439 19.7523 27.7382 19.7379L27.7584 19.3392C27.7584 19.2028 27.7527 19.0921 27.7406 19.0082C27.7285 18.9231 27.7085 18.8488 27.6803 18.7862C27.6033 18.6201 27.4458 18.5406 27.2184 18.5406C26.8535 18.5383 26.6558 18.7303 26.6352 19.111C26.6333 19.1718 26.6281 19.2147 26.6207 19.2399C26.6138 19.2645 26.602 19.2823 26.5853 19.2954C26.5489 19.3226 26.491 19.3379 26.4082 19.3392C26.2291 19.3418 26.1622 19.2833 26.1651 19.1844C26.1663 19.0813 26.1974 18.9813 26.2596 18.8849C26.3223 18.7883 26.4092 18.7041 26.5216 18.6328C26.7235 18.5091 26.9822 18.4461 27.2995 18.4448C27.6467 18.4461 27.8795 18.5326 28.0067 18.6988C28.0582 18.7683 28.0964 18.8548 28.121 18.9594C28.1459 19.0634 28.1585 19.1959 28.1583 19.3566L28.1578 19.3904L28.155 19.5464L28.1474 19.9583L28.142 20.5243L28.1366 20.7984C28.1372 20.9274 28.142 21.0257 28.1503 21.1358C28.1581 21.2429 28.1928 21.3627 28.2707 21.3942C28.3515 21.4274 28.4296 21.4405 28.5781 21.4414C28.6872 21.4393 28.7711 21.4253 28.828 21.3986C28.8928 21.3685 28.9328 21.3037 28.9502 21.2119C28.9668 21.1227 28.9739 20.9863 28.9724 20.8041V19.2063C28.9759 18.9887 28.953 18.8357 28.897 18.7557C28.842 18.6779 28.7399 18.6441 28.5996 18.6459V18.5606L29.3722 18.499V19.1779L29.4125 19.0984C29.5267 18.8741 29.6564 18.715 29.801 18.6197C29.9453 18.5244 30.1262 18.4767 30.3441 18.4794C30.6719 18.4741 30.8999 18.5952 31.0333 18.8374C31.0825 18.9187 31.1179 19.0161 31.1392 19.1307C31.1604 19.2452 31.1713 19.3913 31.1705 19.5696V20.8041C31.1685 20.9881 31.1754 21.1254 31.1915 21.2146C31.2082 21.3063 31.2474 21.3706 31.3125 21.3999C31.3666 21.4248 31.4921 21.438 31.599 21.4409C31.6994 21.438 31.7769 21.4239 31.83 21.3986C31.8932 21.368 31.9316 21.3033 31.9478 21.2119C31.9636 21.1224 31.9705 20.9863 31.9684 20.8041V17.9015C31.9705 17.735 31.9641 17.6117 31.949 17.5321C31.9332 17.4489 31.8944 17.3922 31.831 17.3672C31.7759 17.3458 31.6933 17.3358 31.5849 17.3353V17.2506L32.3884 17.2051C32.3784 17.4022 32.3708 17.6033 32.3654 17.8092C32.3603 18.0238 32.3576 18.2113 32.3576 18.3718V20.3218L33.2426 19.2518C33.3678 19.0988 33.4365 18.9703 33.4375 18.8672C33.4437 18.7237 33.3128 18.659 33.0972 18.6472V18.5624H34.2476V18.6485C34.1785 18.6572 34.1185 18.6713 34.0672 18.6905C34.0116 18.7115 33.9546 18.7416 33.8964 18.7805C33.8373 18.8198 33.7876 18.8562 33.7477 18.889C33.7068 18.9226 33.6586 18.9707 33.6035 19.0327C33.5482 19.0949 33.4677 19.1889 33.3623 19.3152L33.0703 19.6623L33.8349 20.9899C33.9223 21.1472 34.0026 21.2582 34.0764 21.3211C34.1468 21.3816 34.2367 21.4204 34.3449 21.4388V21.5254H33.6453C33.6262 21.4826 33.5996 21.4265 33.5659 21.3579L33.4547 21.1337L33.3694 20.9649L32.8036 19.9473L32.3587 20.4968L32.3576 20.8041C32.3555 20.9863 32.3623 21.1227 32.3784 21.2119C32.3948 21.3037 32.4337 21.368 32.4979 21.3986C32.5541 21.4253 32.6375 21.4393 32.7461 21.4414V21.5254H30.3819V21.4414C30.542 21.4366 30.6521 21.4078 30.6961 21.343C30.7137 21.3182 30.7271 21.2897 30.7367 21.2578C30.7459 21.2259 30.7517 21.1843 30.7544 21.1337C30.7576 21.0939 30.7609 21.0361 30.7644 20.9605C30.7684 20.8845 30.7703 20.8324 30.7707 20.8045V19.6054C30.7718 19.3099 30.743 19.091 30.6824 18.9519C30.59 18.7329 30.4237 18.6232 30.1877 18.6222C29.9244 18.6214 29.7147 18.7596 29.5592 19.0327C29.5005 19.136 29.455 19.2536 29.422 19.3847C29.3896 19.5157 29.3725 19.6452 29.3722 19.772V20.8041C29.3702 20.9881 29.3771 21.1254 29.3931 21.2146C29.4098 21.3063 29.449 21.3706 29.5142 21.3999C29.5712 21.4261 29.6558 21.4393 29.7664 21.4414V21.5254H28.6035C28.5005 21.5293 28.3038 21.535 28.2066 21.5336C28.1043 21.5319 28.0552 21.5201 27.9621 21.5123C27.8795 21.4855 27.8448 21.462 27.8175 21.4021ZM26.4463 20.745C26.4482 20.9396 26.491 21.0973 26.5766 21.2163C26.6623 21.336 26.7782 21.3977 26.9213 21.4003C27.0659 21.3982 27.2028 21.3566 27.3303 21.2762C27.4579 21.1953 27.5586 21.0873 27.6313 20.9536C27.6756 20.8683 27.708 20.7586 27.7282 20.6252C27.7485 20.4932 27.7584 20.3285 27.7584 20.1313V19.8253C27.4994 19.8502 27.314 19.8773 27.1796 19.9088C27.0439 19.9403 26.9243 19.9853 26.8198 20.0447C26.5724 20.1803 26.4482 20.4155 26.4463 20.745Z" fill="black"/>
<path fill-rule="evenodd" clip-rule="evenodd" d="M3.69606 19.7256V20.7884C3.69405 20.9588 3.70296 21.0855 3.7226 21.1682C3.74253 21.2508 3.78526 21.3054 3.85147 21.3321C3.91739 21.3587 4.01905 21.3741 4.15578 21.3767V21.5253H2.64287V21.3767C2.77165 21.3741 2.86698 21.3587 2.92917 21.3321C2.99097 21.3054 3.03092 21.2508 3.04922 21.1682C3.06733 21.0855 3.07567 20.9588 3.07375 20.7884V17.9941C3.07547 17.8236 3.06752 17.6969 3.04999 17.6142C3.03236 17.5311 2.99375 17.4761 2.93472 17.4485C2.87551 17.421 2.78458 17.4049 2.66194 17.4V17.2514H4.10298C4.58876 17.2492 4.94471 17.3437 5.17064 17.535C5.39666 17.7266 5.50838 18.0278 5.5057 18.44C5.50742 19.0188 5.30305 19.3977 4.89287 19.577C4.78594 19.6229 4.6495 19.6591 4.48384 19.6854C4.3178 19.7116 4.13345 19.7252 3.93061 19.7256H3.69606ZM3.69606 19.56H3.94518C4.2444 19.5586 4.46449 19.4809 4.60581 19.3256C4.68256 19.236 4.74072 19.118 4.78058 18.9724C4.82005 18.8273 4.84017 18.6612 4.84037 18.4741C4.83883 17.7703 4.55934 17.418 4.00266 17.417H3.69606V19.56Z" fill="black"/>
<path fill-rule="evenodd" clip-rule="evenodd" d="M7.94143 19.9049H6.18133C6.18306 20.1121 6.19407 20.286 6.2142 20.4264C6.23422 20.5663 6.26651 20.6944 6.31078 20.8105C6.45699 21.1866 6.68282 21.3745 6.98847 21.3745C7.16151 21.3733 7.31835 21.3172 7.4593 21.2058C7.59995 21.0944 7.71713 20.9339 7.81036 20.7254L7.93501 20.8163C7.81247 21.0856 7.66271 21.2832 7.48593 21.4095C7.30916 21.5354 7.09357 21.598 6.83881 21.5966C6.43821 21.5909 6.06961 21.4497 5.83889 21.173C5.60798 20.8963 5.49032 20.5169 5.48572 20.036C5.49032 19.5512 5.60415 19.1678 5.82711 18.8854C6.04987 18.6031 6.40563 18.4588 6.78908 18.4527C7.04404 18.4532 7.29028 18.5174 7.46504 18.6451C7.63981 18.7723 7.76868 18.9589 7.85175 19.2046C7.87886 19.2859 7.89956 19.3789 7.91345 19.4845C7.92744 19.5893 7.93683 19.7296 7.94143 19.9049ZM6.18622 19.7401H7.28731C7.28281 19.5643 7.27438 19.4227 7.26173 19.3156C7.24937 19.208 7.22944 19.1123 7.20271 19.028C7.10958 18.729 6.96681 18.5808 6.77423 18.5833C6.55817 18.5857 6.3971 18.7526 6.29085 19.0847C6.26364 19.1709 6.24198 19.2653 6.22531 19.3676C6.20883 19.47 6.1957 19.5941 6.18622 19.7401Z" fill="black"/>
<path fill-rule="evenodd" clip-rule="evenodd" d="M8.0539 18.534L9.03025 18.4596C9.03552 18.5673 9.03935 18.6572 9.04203 18.7303C9.04471 18.8037 9.04596 18.8679 9.04596 18.9239V19.0957C9.25809 18.6678 9.5143 18.4518 9.81458 18.4483C9.94431 18.451 10.0498 18.4928 10.1307 18.5733C10.2117 18.6542 10.2535 18.7578 10.2559 18.8838C10.2541 18.9886 10.219 19.0726 10.1508 19.1359C10.0827 19.1988 9.99298 19.2317 9.88213 19.2329C9.74875 19.2377 9.66741 19.177 9.63799 19.0498C9.61873 18.9711 9.5989 18.9178 9.5782 18.8894C9.5577 18.8609 9.52752 18.8478 9.48728 18.8492H9.47703C9.37479 18.8587 9.27792 18.9484 9.18604 19.1189C9.14465 19.2037 9.11351 19.2972 9.09272 19.3999C9.07192 19.5026 9.06158 19.6211 9.06158 19.755V20.815C9.05947 20.9842 9.06704 21.1087 9.0839 21.1892C9.10067 21.2691 9.13899 21.3215 9.1984 21.3466C9.25809 21.371 9.35074 21.385 9.47703 21.388V21.5254H8.03321V21.388C8.15087 21.3885 8.23815 21.3759 8.29468 21.3501C8.3516 21.3243 8.3882 21.2705 8.40506 21.1892C8.42212 21.1069 8.42959 20.9824 8.42806 20.815V19.2273C8.43265 18.9912 8.41138 18.8378 8.36367 18.767C8.31595 18.6961 8.21276 18.6642 8.0539 18.6717V18.534Z" fill="black"/>
<path fill-rule="evenodd" clip-rule="evenodd" d="M11.4158 18.4597L11.4211 19.027C11.6314 18.6451 11.9327 18.4523 12.3248 18.4484C12.7236 18.4457 12.9696 18.6459 13.0622 19.0503C13.1749 18.8417 13.3038 18.6892 13.4484 18.5926C13.593 18.4951 13.762 18.447 13.9554 18.4484C14.261 18.45 14.4861 18.5612 14.6307 18.7805C14.687 18.864 14.7275 18.9654 14.7513 19.0857C14.7755 19.2062 14.7871 19.3624 14.7865 19.5543V20.815C14.7847 20.9824 14.7923 21.107 14.8092 21.1887C14.826 21.2705 14.8629 21.3243 14.9195 21.3501C14.9764 21.3759 15.0636 21.3885 15.1812 21.3876V21.5254H13.7736V21.3876C13.8862 21.3885 13.9698 21.3759 14.0243 21.3501C14.0789 21.3243 14.1144 21.2705 14.1305 21.1887C14.1472 21.107 14.1545 20.9824 14.153 20.815V19.5599C14.1542 19.2589 14.1205 19.0415 14.0523 18.9082C13.984 18.7745 13.8738 18.7093 13.7217 18.7119C13.5391 18.708 13.3849 18.813 13.2596 19.027C13.1515 19.2055 13.0977 19.3987 13.0984 19.6059V20.815C13.0969 20.9824 13.1043 21.107 13.1207 21.1887C13.1374 21.2705 13.1734 21.3243 13.2285 21.3501C13.2839 21.3759 13.3685 21.3885 13.4829 21.3876V21.5254H12.0909V21.3876C12.2034 21.3885 12.2871 21.3759 12.3417 21.3501C12.3962 21.3243 12.4317 21.2705 12.4478 21.1887C12.4643 21.107 12.4719 20.9824 12.47 20.815V19.5543C12.4727 18.9869 12.3325 18.7062 12.0494 18.7119C11.8733 18.7189 11.7255 18.8112 11.6067 18.9882C11.4876 19.1657 11.4257 19.3869 11.4211 19.6517V20.815C11.4195 20.9842 11.4268 21.11 11.4432 21.1914C11.4596 21.2731 11.495 21.3264 11.5495 21.3514C11.6041 21.3763 11.6876 21.3885 11.8002 21.3876V21.5254H10.3926V21.3876C10.5105 21.3885 10.5974 21.3763 10.6543 21.3514C10.7109 21.3264 10.7478 21.2731 10.7647 21.1914C10.7816 21.11 10.7892 20.9842 10.7873 20.815V19.2221C10.7929 18.9887 10.7716 18.8378 10.7237 18.7688C10.676 18.6993 10.5691 18.6674 10.4032 18.6717V18.534L11.4158 18.4597Z" fill="black"/>
<path fill-rule="evenodd" clip-rule="evenodd" d="M18.8739 18.722V20.6359C18.8737 20.7604 18.8779 20.8636 18.8862 20.9453C18.8946 21.027 18.9078 21.0956 18.9258 21.1515C18.9476 21.2155 18.9817 21.2666 19.0275 21.3052C19.0736 21.3431 19.1246 21.3628 19.1801 21.3636C19.2911 21.3619 19.4122 21.3024 19.5439 21.1862L19.6165 21.329C19.4079 21.5223 19.1709 21.6176 18.9051 21.6158C18.6184 21.6111 18.423 21.5057 18.318 21.3007C18.2975 21.2553 18.2815 21.2037 18.2701 21.1451C18.259 21.087 18.251 21.0087 18.2466 20.9095C18.2422 20.8106 18.24 20.6773 18.2401 20.5099V18.722H17.9442V18.5502C18.0574 18.5454 18.1531 18.5191 18.2318 18.4715C18.3106 18.4235 18.3791 18.3487 18.4377 18.2464C18.4836 18.1686 18.5215 18.082 18.5512 17.9872C18.581 17.8923 18.6071 17.7743 18.6298 17.633L18.8896 17.6047C18.8861 17.6803 18.883 17.7573 18.8808 17.8355C18.8786 17.9133 18.8767 18.0073 18.8757 18.1169C18.8744 18.2266 18.8739 18.3674 18.8739 18.5384H19.5024V18.722H18.8739Z" fill="black"/>
<path fill-rule="evenodd" clip-rule="evenodd" d="M17.9416 21.4042V21.5253C17.7898 21.5363 17.7283 21.5363 17.5686 21.5363C17.4419 21.5363 17.3106 21.5339 17.2016 21.489C17.1343 21.461 17.0967 21.437 17.0464 21.3789C17.0114 21.3172 16.989 21.3136 16.9778 21.1428C16.8437 21.3027 16.7042 21.4199 16.5592 21.4956C16.4139 21.5707 16.2575 21.6079 16.0898 21.6071C15.8405 21.604 15.6455 21.5283 15.5047 21.3793C15.3639 21.2302 15.2926 21.0252 15.2899 20.7646C15.289 20.2729 15.566 19.9672 16.1208 19.8479C16.371 19.7942 16.6548 19.7579 16.9727 19.7387V19.3663C16.9752 19.068 16.9466 18.8614 16.887 18.7463C16.8271 18.6313 16.7207 18.5764 16.5676 18.5816C16.4048 18.5776 16.2888 18.6427 16.2196 18.7762C16.1945 18.8225 16.176 18.8749 16.1644 18.9348C16.1529 18.9942 16.1435 19.0768 16.1365 19.1831C16.1324 19.2854 16.1055 19.3579 16.0559 19.4008C16.0064 19.4441 15.9276 19.465 15.8196 19.4641C15.5789 19.462 15.4578 19.3741 15.4561 19.2005C15.4569 19.0991 15.4853 19.0021 15.5413 18.9103C15.5971 18.818 15.6761 18.7371 15.7782 18.6673C15.9944 18.5204 16.2784 18.4478 16.63 18.4496C16.9874 18.4478 17.2436 18.526 17.3985 18.6847C17.4684 18.7573 17.5197 18.8499 17.5524 18.9623C17.5853 19.0751 17.6014 19.2194 17.601 19.3955L17.5957 19.8939L17.5907 20.3922C17.5864 20.5558 17.5845 20.6588 17.5855 20.7016C17.5836 20.9085 17.5895 21.0593 17.6031 21.1542C17.6168 21.2495 17.6318 21.2914 17.6883 21.343C17.7875 21.4056 17.8725 21.4038 17.9416 21.4042ZM16.9727 20.3122V19.8711C16.6008 19.8987 16.337 19.9746 16.1812 20.0984C16.0257 20.2225 15.95 20.4158 15.9547 20.6786C15.9563 20.8848 15.9946 21.0484 16.0697 21.1694C16.1445 21.2906 16.2466 21.3522 16.3753 21.3547C16.481 21.3539 16.5786 21.3203 16.6682 21.2538C16.7576 21.1878 16.8279 21.0951 16.8791 20.9767C16.9125 20.9042 16.9364 20.8158 16.9514 20.7108C16.9658 20.606 16.973 20.4731 16.9727 20.3122Z" fill="black"/>
<path fill-rule="evenodd" clip-rule="evenodd" d="M22.4134 21.4043V21.5253C22.2615 21.5363 22.2001 21.5368 22.0404 21.5368C21.9135 21.5368 21.7826 21.5345 21.6733 21.4895C21.606 21.4616 21.5685 21.4379 21.5183 21.3789C21.4832 21.3177 21.4607 21.3141 21.4496 21.1433C21.3155 21.3028 21.176 21.4204 21.0309 21.4961C20.8857 21.5708 20.7292 21.6084 20.5615 21.6076C20.3122 21.6044 20.1173 21.5284 19.9765 21.3798C19.8357 21.2307 19.7643 21.0257 19.7616 20.7651C19.7608 20.2734 20.0378 19.9678 20.5926 19.8485C20.8428 19.7947 21.1266 19.7584 21.4443 19.7392V19.3668C21.4469 19.0686 21.4183 18.8619 21.3587 18.7464C21.2989 18.6314 21.1924 18.5769 21.0392 18.5821C20.8766 18.5782 20.7605 18.6433 20.6913 18.7765C20.6661 18.823 20.6477 18.8754 20.6362 18.9353C20.6247 18.9947 20.6153 19.0773 20.6084 19.1835C20.6042 19.2855 20.5773 19.358 20.5276 19.4013C20.4782 19.4446 20.3994 19.4655 20.2913 19.4646C20.0507 19.4625 19.9296 19.3747 19.9278 19.2011C19.9286 19.0996 19.957 19.0026 20.013 18.9108C20.0688 18.8186 20.1479 18.7376 20.2499 18.6682C20.4662 18.5209 20.7502 18.4483 21.1017 18.4501C21.4591 18.4483 21.7154 18.5265 21.8703 18.6852C21.9402 18.7578 21.9914 18.8505 22.0241 18.9628C22.0569 19.0756 22.0732 19.2199 22.0727 19.3956L22.0675 19.8944L22.0624 20.3927C22.0582 20.5561 22.0563 20.6593 22.0572 20.7021C22.0554 20.9089 22.0613 21.0598 22.0748 21.1547C22.0886 21.25 22.1035 21.292 22.1601 21.3435C22.2592 21.4061 22.3443 21.4039 22.4134 21.4043ZM21.4443 20.3128V19.8712C21.0725 19.8992 20.8088 19.9752 20.653 20.0989C20.4971 20.2231 20.4217 20.4163 20.4264 20.6791C20.4281 20.8854 20.4664 21.0489 20.5414 21.1699C20.6163 21.2911 20.7184 21.3527 20.847 21.3552C20.9528 21.3544 21.0504 21.3208 21.1399 21.2543C21.2293 21.1883 21.2997 21.0956 21.3507 20.9772C21.3843 20.9046 21.4082 20.8163 21.423 20.7113C21.4376 20.6065 21.4448 20.4736 21.4443 20.3128Z" fill="black"/>
</svg>
