<svg width="146" height="150" viewBox="0 0 146 150" fill="none" xmlns="http://www.w3.org/2000/svg">
<g filter="url(#filter0_d_1_4431)">
<g clip-path="url(#clip0_1_4431)">
<rect x="19" y="3" width="108" height="108" rx="32" fill="#E0EDF0"/>
<path d="M67.2067 61.3282L62.3042 84.6495L80.6685 84.273L78.363 59.4478L67.2067 61.3282Z" fill="url(#paint0_radial_1_4431)"/>
<path d="M109.72 107.112C106.95 109.264 103.995 111.183 100.887 112.848C91.9105 117.667 81.5778 120.41 70.5857 120.41C67.5364 120.412 64.4911 120.199 61.474 119.772C61.0982 119.718 60.7217 119.664 60.3453 119.605C51.6079 118.215 43.279 115.035 35.9173 110.278C35.8796 110.255 35.8368 110.225 35.7998 110.201C36.2542 103.415 37.098 95.4063 38.5447 93.5045C38.7858 93.1925 39.0611 92.9066 39.3658 92.6518L39.5878 92.4604C39.6618 92.4071 39.7352 92.3475 39.8156 92.2816C39.9085 92.2101 40.0071 92.1386 40.1058 92.067C40.3336 91.9001 40.5809 91.7395 40.8399 91.5651L40.9879 91.4754C41.1235 91.3863 41.2715 91.2965 41.4137 91.2074C41.5922 91.1002 41.7836 90.9866 41.981 90.8793C42.1601 90.7776 42.3328 90.6766 42.5236 90.575C44.2638 89.6338 46.3668 88.6845 48.6126 87.7841C48.9021 87.6649 49.1922 87.5457 49.4823 87.4328C49.7725 87.3198 50.0665 87.2063 50.3579 87.0927C50.6669 86.9735 50.9629 86.8599 51.2524 86.7526C51.3264 86.7231 51.3945 86.6899 51.4685 86.6692C51.6905 86.5857 51.919 86.5023 52.1409 86.4182C52.3136 86.3555 52.4921 86.2927 52.6647 86.23C52.9056 86.1402 53.1464 86.0511 53.393 85.9677C54.3926 85.61 55.3798 85.2581 56.3418 84.9362C56.7961 84.7812 57.2427 84.6262 57.6743 84.4825C57.6931 84.4769 57.7113 84.4769 57.7295 84.4706C57.7594 84.458 57.7905 84.4481 57.8223 84.4411C58.1306 84.3338 58.4389 84.2385 58.7349 84.1368C58.7414 84.1368 58.7414 84.1368 58.7479 84.1312C59.321 83.9461 59.8766 83.7673 60.4069 83.5941H60.4128C60.9126 83.4335 61.4 83.2804 61.857 83.1348C61.8829 83.125 61.9096 83.1172 61.9368 83.1116C61.9491 83.1053 61.955 83.1053 61.9673 83.0997C62.2146 83.0219 62.4489 82.9503 62.6774 82.8788C62.7021 82.8725 62.7261 82.8606 62.7423 82.855H62.7481C62.9643 82.7922 63.1681 82.7238 63.3654 82.6579C64.8641 82.193 65.9189 81.8768 66.2863 81.7576L71.684 81.8354L71.8073 81.841L73.1334 81.8592L77.686 81.922C77.686 81.922 78.7654 82.1102 80.4991 82.4465C80.5172 82.4528 80.5296 82.4528 80.5477 82.459C80.6905 82.4829 80.8379 82.5124 80.98 82.5425C81.0047 82.5481 81.0235 82.5481 81.0599 82.5544C81.8005 82.6975 82.6267 82.8681 83.5264 83.067C83.9333 83.1505 84.341 83.2402 84.7726 83.335C85.3784 83.4726 86.0015 83.6158 86.6419 83.7647C86.7341 83.7823 86.8146 83.8005 86.9016 83.8275H86.9074C86.9386 83.8331 86.9567 83.8394 86.9879 83.8451C87.4013 83.9411 87.8142 84.0484 88.2399 84.1494C88.6534 84.2447 89.0604 84.3464 89.4797 84.4537C89.5198 84.4671 89.5611 84.477 89.603 84.4832C90.0041 84.5848 90.4111 84.6921 90.8187 84.7969C91.4788 84.9701 92.1383 85.1489 92.7867 85.3396C95.4019 86.0787 97.956 86.9082 100.102 87.808C100.423 87.9397 100.731 88.0709 101.034 88.2139C101.237 88.303 101.447 88.3984 101.638 88.5C101.799 88.5716 101.959 88.6494 102.113 88.7328C102.416 88.8878 102.712 89.0428 102.99 89.2097C103.125 89.2869 103.255 89.3709 103.39 89.4537C103.514 89.5315 103.631 89.6031 103.748 89.6809C104.094 89.9093 104.422 90.1624 104.729 90.4382C107.351 92.8124 108.862 100.243 109.72 107.112Z" fill="#F8C5A5"/>
<path d="M109.72 107.112C106.95 109.264 103.995 111.183 100.887 112.848C91.9105 117.667 81.5778 120.41 70.5857 120.41C67.5364 120.412 64.4911 120.199 61.474 119.772C61.0982 119.718 60.7217 119.664 60.3453 119.605C51.6079 118.215 43.279 115.035 35.9173 110.278C35.8796 110.255 35.8368 110.225 35.7998 110.201C36.2542 103.415 37.098 95.4063 38.5447 93.5045C38.7858 93.1925 39.0611 92.9066 39.3658 92.6518L39.5878 92.4604C39.6618 92.4071 39.7352 92.3475 39.8156 92.2816C39.9085 92.2101 40.0071 92.1386 40.1058 92.067C40.3336 91.9001 40.5809 91.7395 40.8399 91.5651L40.9879 91.4754C41.1235 91.3863 41.2715 91.2965 41.4137 91.2074C41.5922 91.1001 41.7836 90.9866 41.981 90.8793C42.1601 90.7776 42.3328 90.6766 42.5236 90.575C44.2638 89.6338 46.3668 88.6845 48.6126 87.7841C48.9021 87.6649 49.1922 87.5457 49.4823 87.4328C49.7725 87.3198 50.0665 87.2063 50.3579 87.0927C50.6669 86.9735 50.9629 86.8599 51.2524 86.7526C51.3264 86.7231 51.3945 86.6899 51.4685 86.6692C51.6905 86.5857 51.919 86.5023 52.1409 86.4182C52.3136 86.3554 52.4921 86.2927 52.6647 86.23C52.9056 86.1402 53.1464 86.0511 53.393 85.9677C54.3926 85.61 55.3798 85.258 56.3418 84.9362C56.7961 84.7812 57.2427 84.6262 57.6743 84.4825C57.6931 84.4769 57.7113 84.4769 57.7295 84.4706C57.7594 84.458 57.7905 84.4481 57.8223 84.4411C58.1306 84.3338 58.4389 84.2385 58.7349 84.1368C58.7414 84.1368 58.7414 84.1368 58.7479 84.1312C59.321 83.9461 59.8766 83.7673 60.4069 83.5941H60.4128L60.8262 83.5313C60.8262 89.125 63.1519 95.7558 63.442 96.5608C63.4485 96.567 63.4485 96.567 63.4485 96.5727C63.4485 96.5783 63.4485 96.579 63.4543 96.5846C63.4602 96.6028 63.4667 96.6266 63.4732 96.6442C63.4732 96.6386 63.4732 96.6386 63.479 96.6323V96.6266C64.3163 95.0055 65.3097 93.4642 66.4459 92.0231C67.4267 90.7883 68.6177 89.5134 69.9931 88.4687C71.9916 86.954 75.9828 85.4394 79.493 84.2949L80.6406 83.9247C81.7018 83.5972 82.6942 83.3048 83.5335 83.0664C83.9405 83.1499 84.3481 83.2396 84.7797 83.3343C85.3855 83.4719 86.0086 83.6152 86.6491 83.7641C86.7412 83.7817 86.8217 83.7999 86.9087 83.8269H86.9145C86.9457 83.8325 86.9639 83.8388 86.995 83.8444C87.4085 83.9404 87.8213 84.0477 88.2471 84.1487C88.6606 84.2441 89.0675 84.3458 89.4868 84.453C89.5269 84.4665 89.5682 84.4763 89.6101 84.4825C90.0113 84.5842 90.4182 84.6915 90.8259 84.7963C91.486 84.9694 92.1454 85.1483 92.7939 85.339C95.409 86.0781 97.9631 86.9076 100.11 87.8073C100.43 87.9391 100.739 88.0702 101.041 88.2133C101.244 88.3024 101.454 88.3978 101.645 88.4994C101.806 88.5709 101.967 88.6487 102.12 88.7322C102.423 88.8872 102.719 89.0421 102.997 89.209C103.132 89.2862 103.262 89.3703 103.397 89.4531C103.521 89.5309 103.638 89.6025 103.755 89.6803C104.101 89.9087 104.429 90.1618 104.736 90.4376C107.351 92.8124 108.862 100.243 109.72 107.112Z" fill="#65A3B3"/>
<path d="M89.5432 34.4687C89.3926 39.7392 86.5931 49.59 86.5931 49.59C86.5931 49.59 85.0185 54.2713 83.275 59.2124C81.6069 63.9603 79.7882 68.9503 79.0632 70.2792C77.5885 72.9854 68.7338 77.1233 66.5217 78.126C64.3097 79.1286 54.863 77.9792 53.3896 76.4087C52.1148 75.0553 47.9095 62.0014 47.6907 55.8343C47.6537 54.8254 47.7219 54.004 47.9283 53.4419C49.403 49.4432 49.8755 44.4293 49.7282 42.4297C49.6094 40.8291 49.6594 35.8459 51.5151 30.2523C52.0363 28.6819 52.9338 27.2527 54.1346 26.0812C55.3354 24.9096 56.8055 24.0288 58.4252 23.5105C60.5749 22.8284 63.5529 22.1338 67.642 21.5899C75.2408 20.586 82.6078 24.4761 82.6078 24.4761C82.6078 24.4761 89.6944 29.1888 89.5432 34.4687Z" fill="#F8C5A5"/>
<g style="mix-blend-mode:multiply" opacity="0.3">
<path d="M83.2772 59.2105C81.609 63.9584 79.7903 68.9484 79.0653 70.2773C77.5906 72.9835 68.7359 77.1214 66.5239 78.1241C64.3118 79.1267 54.8632 77.9791 53.3898 76.4087C52.115 75.0553 47.9097 62.0014 47.6909 55.8343C61.77 60.9931 79.0166 55.8882 81.9349 54.4144C83.0026 53.8773 83.3213 56.0934 83.2772 59.2105Z" fill="#9DC4E1"/>
</g>
<path d="M75.191 50.1621C74.1766 50.361 73.1497 50.4941 72.117 50.5606C71.3663 50.6147 70.6131 50.6288 69.8608 50.6026C68.5672 50.5606 67.1996 50.3855 65.9741 49.9626C65.9741 49.9626 66.753 47.0024 67.1489 46.7307C67.2989 46.6284 68.3114 46.646 69.5505 46.7307C70.5891 46.8091 71.7749 46.9302 72.7375 47.0751C73.5748 47.2006 74.2434 47.3405 74.49 47.4736C75.3474 47.9448 75.191 50.1621 75.191 50.1621Z" fill="white"/>
<path d="M61.2093 45.4019C61.3657 50.2608 58.2411 55.5664 57.616 56.5897C56.9909 57.6131 63.0838 58.6998 65.5834 57.1017C62.7716 57.9325 59.1017 56.7209 59.0219 56.3984C58.9421 56.0759 62.5373 51.4755 61.2093 45.4019Z" fill="#DE9B88"/>
<path d="M73.3165 48.5735C73.3169 48.9778 73.206 49.375 72.9952 49.7242C72.7845 50.0734 72.4813 50.3621 72.117 50.5606C71.3663 50.6148 70.6131 50.6288 69.8608 50.6026C69.5028 50.4244 69.198 50.1606 68.9753 49.8363C68.7527 49.512 68.6195 49.1381 68.5885 48.75C68.5576 48.362 68.6298 47.9727 68.7984 47.6192C68.967 47.2658 69.2264 46.9599 69.5518 46.7307C70.5903 46.8091 71.7762 46.9302 72.7388 47.0752C73.1116 47.4912 73.3167 48.0231 73.3165 48.5735Z" fill="#65A3B3"/>
<path d="M59.0129 49.8541C58.569 49.8716 58.1445 49.8779 57.7317 49.8779H57.5571C56.5834 49.8779 55.7195 49.8296 54.9575 49.7631C52.8519 49.588 51.6206 49.2611 51.6206 49.2611C51.6206 49.2611 52.0393 46.3749 52.6513 46.2532C52.9265 46.1986 54.0949 46.1503 55.345 46.1566C56.1323 46.1622 56.9443 46.1867 57.5882 46.2469C58.188 46.3015 58.6378 46.3799 58.7695 46.4979C59.2628 46.954 59.0129 49.8541 59.0129 49.8541Z" fill="white"/>
<path d="M65.6233 41.6849C70.2928 41.5067 78.8333 42.7672 78.8333 42.7672C78.8333 42.7672 78.4205 39.4142 77.5027 38.5251C76.5849 37.636 66.704 36.6804 66.704 36.6804C66.704 36.6804 65.5753 40.2449 65.6233 41.6849ZM60.6592 37.5519C60.6592 37.5519 59.9952 41.8129 59.6661 42.8438C55.2167 42.1843 48.3073 43.1079 48.3306 42.8827C48.354 42.6574 48.8395 40.1219 49.7547 39.15C50.6699 38.1781 60.6592 37.5519 60.6592 37.5519Z" fill="#64503F"/>
<path d="M57.8501 62.0138C64.3337 62.9199 72.2226 59.6729 72.2226 59.6729C72.2226 59.6729 64.4888 66.0909 57.8501 62.0138Z" fill="#DE9B88"/>
<path d="M58.4751 48.1199C58.4797 48.446 58.4162 48.7697 58.2884 49.0716C58.1606 49.3734 57.9711 49.6473 57.7312 49.8767H57.5566C56.583 49.8767 55.7133 49.8227 54.9571 49.7512C54.5521 49.2985 54.3322 48.7183 54.3385 48.1199C54.3385 47.2866 54.7383 46.5557 55.3446 46.1572C56.1319 46.1629 56.9439 46.1873 57.5878 46.2476C58.1278 46.6586 58.4751 47.3406 58.4751 48.1199Z" fill="#65A3B3"/>
<path d="M66.963 46.3052V46.9094C66.963 46.9094 74.0951 47.2137 74.9823 48.2208C75.2952 46.4087 66.963 46.3052 66.963 46.3052ZM52.6509 46.2538C55.3997 45.9306 58.9437 46.6603 58.9437 46.6603L59.0482 45.9557C59.0482 45.9557 52.7469 44.9989 52.6509 46.2538Z" fill="#64413F"/>
<path d="M94.1439 30.1857C94.1107 30.7744 94.0439 31.3609 93.944 31.9425V31.9488C93.6629 33.7489 93.1002 35.9839 92.5445 38.3518C92.4193 38.8776 92.2947 39.4028 92.1759 39.9342V39.9405C91.863 41.3058 91.5755 42.6887 91.3567 44.0358C91.2821 44.465 91.2198 44.8879 91.1698 45.3108C90.9322 47.0927 90.8634 48.7655 91.0757 50.1854C92.013 56.4253 83.8898 56.2257 83.8898 56.2257L83.2407 54.8968L81.9341 54.4137C83.7457 51.5758 84.5019 49.0867 84.6102 46.8336C84.6226 46.5136 84.6226 46.2061 84.6167 45.9031C84.5726 44.502 84.2851 43.1907 83.8541 41.9408C83.7476 41.6083 83.623 41.2763 83.4912 40.9501C83.3231 40.5328 83.1414 40.1162 82.9545 39.7115C82.3482 38.419 82.073 36.7625 81.973 35.1086C81.9484 34.7823 81.9354 34.4561 81.9354 34.1361C81.8543 30.9989 82.3294 28.1377 82.3294 28.1377C82.3294 28.1377 81.0793 28.7119 78.9802 29.5031C78.705 29.6116 78.4116 29.7201 78.0987 29.835C76.3806 30.4693 74.2185 31.2003 71.7748 31.8892C71.4626 31.9733 71.1504 32.058 70.8252 32.149C62.0932 34.4925 50.2644 36.0937 42.2256 30.9524C43.8483 29.4271 46.0272 27.8661 48.5398 26.3439C48.5456 26.3376 48.5456 26.3376 48.5521 26.3376C49.1454 25.975 49.7581 25.6129 50.3832 25.2565C50.3832 25.2565 50.3832 25.2503 50.389 25.2503C52.2713 24.1874 54.2887 23.1421 56.3696 22.1457C57.5944 21.5534 58.8439 20.9736 60.0998 20.424L60.1063 20.4177C65.6741 17.945 71.3165 15.8694 75.5913 14.5643C76.1534 14.3955 76.6909 14.2381 77.203 14.0994C79.7526 13.3804 81.6277 13.024 82.4274 13.1331C86.1765 13.6401 88.6761 23.0034 88.6761 23.0034C88.6761 23.0034 89.6133 18.6741 90.2384 19.176C90.8634 19.678 89.4069 23.3077 89.4069 23.3077C89.4069 23.3077 91.2821 23.2054 92.013 23.6095C92.7438 24.0136 89.5134 24.7151 89.5134 24.7151C89.5134 24.7151 93.4688 25.3193 94.0939 29.0444C94.1506 29.4222 94.1674 29.8046 94.1439 30.1857Z" fill="#64503F"/>
<path d="M71.7729 31.8892C71.4607 31.9733 71.1485 32.058 70.8233 32.1489C66.3116 26.0057 55.7193 25.3895 48.5522 26.3376C49.1455 25.9749 49.7582 25.6129 50.3833 25.2565C50.3833 25.2565 50.3833 25.2502 50.3891 25.2502C57.7815 24.646 67.5299 25.7641 71.7729 31.8892ZM78.9783 29.503C78.7031 29.6116 78.4097 29.7201 78.0969 29.8349C73.9039 21.9342 66.6115 19.3548 56.3697 22.1488C57.5945 21.5565 58.844 20.9767 60.1 20.4271L60.1064 20.4208C68.7989 19.1252 75.1222 22.1695 78.9783 29.503ZM84.7584 25.6185C84.7584 25.6185 85.2672 21.9944 81.4026 17.6212C80.0019 16.0363 77.8781 15.1321 75.5915 14.5643C76.1536 14.3955 76.691 14.238 77.2031 14.0994C79.0783 14.7394 80.7276 15.7062 82.0588 16.9749C84.5143 19.3184 85.5022 22.4657 84.7584 25.6185ZM94.144 30.1857C94.1108 30.7744 94.044 31.3609 93.9441 31.9425V31.9488C93.1873 32.7405 92.3158 33.4221 91.3569 33.9723C90.1139 34.6913 88.0141 35.6093 85.3646 35.6093C84.2139 35.6061 83.0702 35.4369 81.9712 35.1073C81.9466 34.781 81.9336 34.4548 81.9336 34.1348C85.9767 35.4637 89.2389 34.1411 90.8694 33.1986C92.3882 32.3177 93.5027 31.2002 94.144 30.1857ZM92.5447 38.3524C92.4194 38.8782 92.2948 39.4034 92.176 39.9348V39.9411C90.3801 41.3554 88.1314 42.122 85.815 42.1095C85.1571 42.1098 84.5005 42.0533 83.8529 41.9408C83.7464 41.6082 83.6218 41.2763 83.4901 40.95C85.8839 41.4576 88.1524 41.1973 90.1145 40.1827C91.0245 39.7079 91.8459 39.0893 92.5447 38.3524ZM91.3569 44.0364C91.2822 44.4656 91.2199 44.8885 91.1699 45.3114C89.7887 46.2525 88.0388 46.9848 86.1071 46.9848C85.6033 46.9841 85.1009 46.9335 84.6078 46.8335C84.6201 46.5135 84.6201 46.2061 84.6143 45.9031C87.2956 46.5192 89.7199 45.3773 91.3569 44.0364Z" fill="#705A47"/>
<path d="M83.2367 54.8963C86.3932 50.9936 91.8253 50.3549 91.2379 54.9672C90.6505 59.5795 81.5212 67.8266 81.6244 61.9914C81.6958 57.7342 83.2367 54.8963 83.2367 54.8963Z" fill="#F8C5A5"/>
<path d="M88.9625 55.3215C87.4949 52.0589 82.8703 58.231 84.3385 60.9271C84.4852 58.1601 87.2009 54.2574 88.9625 55.3215Z" fill="#DE9B88"/>
<path d="M63.4727 96.6448C66.3844 86.7344 74.6588 78.6812 74.6588 78.6812L83.1176 76.8923L84.7844 83.338C84.7844 83.338 72.4565 84.3846 63.4727 96.6448Z" fill="#65A3B3"/>
<path d="M63.4727 96.6448C61.0062 89.3232 62.7684 82.7671 62.7684 82.7671L63.3851 79.106L58.3645 79.9574C58.3645 79.9574 58.1886 88.6418 63.4727 96.6448Z" fill="#4B7C87"/>
<path d="M75.4525 79.2766C75.4525 79.2766 74.5087 80.2065 73.1392 81.8585C72.5225 82.592 71.8254 83.4742 71.0848 84.47C69.5738 86.5217 67.8959 89.0973 66.4459 92.0256C66.1006 92.7233 65.7676 93.4449 65.447 94.184C64.8856 95.4882 64.4015 96.8222 63.9969 98.1795C61.6778 106.033 61.4305 115.347 61.474 119.772C61.0981 119.718 60.7217 119.664 60.3452 119.605C60.4932 115.646 61.0735 105.613 63.2628 97.4278C63.331 97.1656 63.3985 96.9033 63.4731 96.6467C63.4731 96.641 63.4731 96.641 63.479 96.6348V96.6291C63.4848 96.6109 63.4913 96.5933 63.4971 96.5751C64.8732 91.757 67.3345 87.589 69.5984 84.5001C70.3325 83.4924 71.0413 82.5977 71.6898 81.8347C73.2625 79.9737 74.4529 78.865 74.632 78.7038L74.6567 78.6799L75.4525 79.2766Z" fill="#71B4C7"/>
<path d="M58.3643 79.9575L57.3076 80.2129C57.3076 80.2129 57.836 91.707 63.4738 97.667C63.8263 97.241 63.4777 96.6317 63.4777 96.6317C63.4777 96.6317 58.5409 89.4105 58.3643 79.9575Z" fill="#71B4C7"/>
</g>
<rect x="19" y="3" width="108" height="108" rx="32" stroke="white" stroke-width="6"/>
</g>
<defs>
<filter id="filter0_d_1_4431" x="0" y="0" width="146" height="150" filterUnits="userSpaceOnUse" color-interpolation-filters="sRGB">
<feFlood flood-opacity="0" result="BackgroundImageFix"/>
<feColorMatrix in="SourceAlpha" type="matrix" values="0 0 0 0 0 0 0 0 0 0 0 0 0 0 0 0 0 0 127 0" result="hardAlpha"/>
<feMorphology radius="16" operator="erode" in="SourceAlpha" result="effect1_dropShadow_1_4431"/>
<feOffset dy="20"/>
<feGaussianBlur stdDeviation="16"/>
<feComposite in2="hardAlpha" operator="out"/>
<feColorMatrix type="matrix" values="0 0 0 0 0.109804 0 0 0 0 0.117647 0 0 0 0 0.156863 0 0 0 0.12 0"/>
<feBlend mode="normal" in2="BackgroundImageFix" result="effect1_dropShadow_1_4431"/>
<feBlend mode="normal" in="SourceGraphic" in2="effect1_dropShadow_1_4431" result="shape"/>
</filter>
<radialGradient id="paint0_radial_1_4431" cx="0" cy="0" r="1" gradientUnits="userSpaceOnUse" gradientTransform="translate(68.3783 71.7079) scale(14.747 9.83136)">
<stop stop-color="#E5A691"/>
<stop offset="0.46" stop-color="#EFB69C"/>
<stop offset="1" stop-color="#F8C5A5"/>
</radialGradient>
<clipPath id="clip0_1_4431">
<rect x="19" y="3" width="108" height="108" rx="32" fill="white"/>
</clipPath>
</defs>
</svg>
