<svg width="32" height="10" viewBox="0 0 32 10" fill="none" xmlns="http://www.w3.org/2000/svg">
<path fill-rule="evenodd" clip-rule="evenodd" d="M0.448459 6.80777C0.448459 6.31867 0.440256 5.90821 0.415649 5.54223H1.26935L1.30937 6.171H1.33333C1.52682 5.83873 1.88067 5.4458 2.54071 5.4458C3.0559 5.4458 3.4583 5.76081 3.62702 6.23202H3.64359C3.78065 5.99637 3.94109 5.82192 4.12605 5.69925C4.34358 5.5336 4.59317 5.4458 4.91512 5.4458C5.56687 5.4458 6.22642 5.92583 6.22642 7.28779V9.7928H5.26076V7.44516C5.26076 6.7382 5.03577 6.31867 4.56119 6.31867C4.22259 6.31867 3.97283 6.58101 3.86891 6.88668C3.84447 6.99112 3.82035 7.12215 3.82035 7.24349V9.7928H2.85436V7.3313C2.85436 6.7382 2.63741 6.31867 2.17857 6.31867C1.80832 6.31867 1.55914 6.63341 1.47039 6.92956C1.42987 7.03497 1.41363 7.15685 1.41363 7.27881V9.7928H0.448459V6.80777Z" fill="#003D79"/>
<path fill-rule="evenodd" clip-rule="evenodd" d="M9.9888 8.77164C9.9888 9.1555 10.0049 9.5302 10.0452 9.7928H9.15151L9.08737 9.32159H9.06293C8.82161 9.65358 8.41117 9.88888 7.90418 9.88888C7.11528 9.88888 6.67285 9.26963 6.67285 8.62334C6.67285 7.54934 7.54976 7.00864 8.99854 7.01727V6.94717C8.99854 6.66775 8.89379 6.20543 8.20176 6.20543C7.81527 6.20543 7.4127 6.33646 7.14727 6.51945L6.95386 5.82174C7.24414 5.62932 7.75162 5.4458 8.37081 5.4458C9.62684 5.4458 9.9888 6.31049 9.9888 7.23531V8.77164ZM9.02265 7.7156C8.32258 7.69799 7.65475 7.86381 7.65475 8.50983C7.65475 8.92839 7.90418 9.1208 8.21817 9.1208C8.61204 9.1208 8.90224 8.84138 8.9905 8.53599C9.01445 8.45743 9.02265 8.36981 9.02265 8.30024V7.7156Z" fill="#003D79"/>
<path fill-rule="evenodd" clip-rule="evenodd" d="M10.6732 6.80777C10.6732 6.31867 10.6643 5.90821 10.6409 5.54223H11.5093L11.5579 6.17936H11.5817C11.7509 5.84808 12.1774 5.4458 12.8292 5.4458C13.5135 5.4458 14.2217 5.92583 14.2217 7.27036V9.7928H13.2319V7.39286C13.2319 6.78144 13.0227 6.31867 12.4834 6.31867C12.089 6.31867 11.8154 6.62425 11.7105 6.94735C11.6789 7.0436 11.6705 7.17482 11.6705 7.29616V9.7928H10.6732V6.80777Z" fill="#003D79"/>
<path fill-rule="evenodd" clip-rule="evenodd" d="M18.5135 3.83423V8.59667C18.5135 9.03302 18.5293 9.50521 18.5454 9.79291H17.6601L17.6205 9.12091H17.6041C17.3705 9.59248 16.895 9.88898 16.3242 9.88898C15.391 9.88898 14.6503 9.02501 14.6503 7.71571C14.6421 6.2928 15.463 5.44591 16.4046 5.44591C16.9436 5.44591 17.3303 5.69063 17.507 6.00511H17.5234V3.83423H18.5135ZM17.5234 7.31352C17.5234 7.22714 17.5151 7.1219 17.4996 7.0349C17.4109 6.6159 17.0968 6.27527 16.6461 6.27527C16.0104 6.27527 15.6562 6.8866 15.6562 7.68092C15.6562 8.45754 16.0104 9.02501 16.6381 9.02501C17.0403 9.02501 17.3947 8.72833 17.4911 8.26583C17.5151 8.1694 17.5234 8.06478 17.5234 7.95091V7.31352Z" fill="#003D79"/>
<path fill-rule="evenodd" clip-rule="evenodd" d="M19.213 9.79279H20.212V5.54248H19.213V9.79279Z" fill="#003D79"/>
<path fill-rule="evenodd" clip-rule="evenodd" d="M20.9115 6.91246C20.9115 6.33662 20.9032 5.92581 20.8792 5.54213H21.7405L21.772 6.35361H21.8054C21.9982 5.75136 22.457 5.54213 22.8754 5.54213C22.9717 5.54213 23.028 5.52425 23.1087 5.54213V6.4851C23.028 6.46766 22.9397 6.45022 22.8189 6.45022C22.3442 6.45022 22.022 6.7816 21.9336 7.26136C21.9179 7.35743 21.9017 7.47139 21.9017 7.59415V9.79296H20.9115V6.91246Z" fill="#003D79"/>
<path fill-rule="evenodd" clip-rule="evenodd" d="M23.5674 9.79279H24.5649V5.54248H23.5674V9.79279Z" fill="#003D79"/>
<path fill-rule="evenodd" clip-rule="evenodd" d="M23.3314 0.403266C22.7322 0.779565 21.319 1.65866 20.7914 1.98603V1.98603C20.4699 2.16368 19.7252 2.24126 19.304 1.6253V1.6253C19.2964 1.61418 18.7438 0.865233 18.7212 0.837033V0.837033C18.7054 0.817106 18.3481 0.242339 17.552 0.224369V0.224369C17.4343 0.221344 16.8495 0.217964 16.2789 0.56971V0.56971C15.5204 1.03968 13.7564 2.13344 13.7564 2.13344V2.13344C13.7559 2.13344 13.7559 2.13442 13.755 2.13442V2.13442C13.0299 2.58437 12.465 2.9347 12.465 2.9347V2.9347L13.1325 3.82385C13.4447 4.24436 14.1489 4.56968 14.7596 4.18947V4.18947C14.7596 4.18947 17.0159 2.77235 17.0242 2.76825V2.76825C18.0001 2.18779 18.753 2.18779 19.2528 2.40379V2.40379C19.7014 2.60937 20.0917 3.1216 20.0917 3.1216V3.1216C20.0917 3.1216 20.6017 3.80712 20.6916 3.92704V3.92704C20.9818 4.31446 21.4622 4.16225 21.4622 4.16225V4.16225C21.4622 4.16225 21.6402 4.14036 21.9085 3.9676V3.9676C21.9085 3.9676 24.0941 2.59318 24.0954 2.59274V2.59274C24.7894 2.15114 25.4259 2.06868 25.7513 2.10115V2.10115C26.7701 2.20158 27.0867 2.97357 27.5285 3.51213V3.51213C27.7886 3.82892 28.0234 4.00879 28.3824 3.99972V3.99972C28.6183 3.99429 28.8848 3.83915 28.9241 3.81112V3.81112L31.5413 2.17303C31.5413 2.17303 31.2727 1.73437 30.7228 1.05187V1.05187C30.2305 0.442942 29.7077 0.71845 29.2909 0.942361V0.942361C29.1158 1.0363 28.4812 1.49409 27.8526 1.81345V1.81345C27.4047 2.04092 26.7613 1.97251 26.4087 1.49996V1.49996C26.3876 1.47122 25.8171 0.722186 25.7572 0.630024V0.630024C25.5269 0.317243 25.0777 0.0371094 24.502 0.0371094V0.0371094C24.1519 0.0371094 23.7546 0.140658 23.3314 0.403266" fill="url(#paint0_linear_418_2730)"/>
<defs>
<linearGradient id="paint0_linear_418_2730" x1="12.465" y1="4.35785" x2="31.5413" y2="4.35785" gradientUnits="userSpaceOnUse">
<stop stop-color="#FFCA06"/>
<stop offset="0.330844" stop-color="#FBAA18"/>
<stop offset="0.694742" stop-color="#FFC907"/>
<stop offset="1" stop-color="#FAA619"/>
</linearGradient>
</defs>
</svg>
