<svg width="14" height="14" viewBox="0 0 14 14" fill="none" xmlns="http://www.w3.org/2000/svg">
<path fill-rule="evenodd" clip-rule="evenodd" d="M7 12.25C9.8995 12.25 12.25 9.8995 12.25 7C12.25 4.1005 9.8995 1.75 7 1.75C4.1005 1.75 1.75 4.1005 1.75 7C1.75 9.8995 4.1005 12.25 7 12.25ZM4.97603 8.18436C4.80517 8.35521 4.52816 8.35521 4.35731 8.18436C4.18645 8.0135 4.18645 7.73649 4.35731 7.56564L6.60815 5.3148C6.82456 5.09839 7.17544 5.09839 7.39185 5.3148L9.64269 7.56564C9.81355 7.73649 9.81355 8.0135 9.64269 8.18436C9.47184 8.35521 9.19483 8.35521 9.02397 8.18436L7 6.16039L4.97603 8.18436Z" fill="#404148"/>
</svg>
