<svg width="37" height="28" viewBox="0 0 37 28" fill="none" xmlns="http://www.w3.org/2000/svg">
<path fill-rule="evenodd" clip-rule="evenodd" d="M6.00045 16.4783L7.25613 18.1111H4.14729L6.00045 16.4783ZM5.60558 15.974L3.17369 18.116L3.1727 12.8479L5.60558 15.974ZM11.4569 10.6693C11.4569 10.6693 10.9231 10.4039 10.3028 10.4427C9.59379 10.4865 9.0006 10.772 8.65958 11.1488C8.445 11.3855 8.20779 11.6742 8.08863 11.9878C7.91583 12.4414 7.87893 13.0408 7.87893 13.0408C7.87893 13.0408 7.63095 12.8198 7.32024 12.1758C6.95898 11.4268 6.86017 10.9731 6.81121 10.4554C6.76764 10.0012 6.83604 9.55201 6.83604 9.55201H11.4569V10.6693ZM11.4569 12.1628V15.4845C11.4569 15.4845 11.1696 15.6004 10.9353 15.6004C10.701 15.6004 10.3019 15.5639 9.83849 15.2963C9.37841 15.031 9.12374 14.7099 8.92631 14.419C8.72609 14.1231 8.56077 13.7129 8.51161 13.4173C8.47212 13.1808 8.42955 12.5909 8.65958 12.1115C8.78442 11.8514 9.11946 11.4054 9.7645 11.3801C10.2903 11.3589 10.5818 11.504 10.8491 11.658C11.3576 11.9516 11.4569 12.1628 11.4569 12.1628ZM6.42532 15.2512L7.25882 14.5218C6.99318 14.1655 6.92299 14.0312 6.62604 13.5713C6.32202 13.1005 6.06735 12.5825 5.84958 11.9748C5.61386 11.3165 5.55692 10.9469 5.58295 10.4554C5.61556 9.83016 5.75097 9.55201 5.75097 9.55201H3.1715L3.1727 11.0117C3.1727 11.0117 5.14721 13.6099 6.42532 15.2512ZM8.80686 18.1087H11.4569V16.0798C11.4569 16.0798 10.7996 16.3964 10.3723 16.4219C10.118 16.4375 9.87109 16.4478 9.47274 16.3365C9.02992 16.213 8.77834 16.0925 8.36792 15.7371C8.03827 15.452 7.66136 15.031 7.66136 15.031L6.82298 15.7649C7.21195 16.2645 7.49923 16.6282 7.58717 16.726C7.96528 17.1456 8.12552 17.2998 8.38019 17.4493C8.63475 17.5991 9.4853 17.591 9.4853 17.591L8.80686 18.1087Z" fill="#E94E0F"/>
<path fill-rule="evenodd" clip-rule="evenodd" d="M31.4994 16.3039C31.4994 16.8918 31.5749 17.8581 30.9479 18.0933V18.1325H33.3292V18.0933C32.7027 17.8452 32.7778 16.8918 32.7778 16.3039V11.3803C32.7778 10.7928 32.7027 9.82626 33.3292 9.57814V9.53897H30.9479V9.57814C31.5872 9.82626 31.4994 10.7797 31.4994 11.3803V16.3039ZM22.7675 11.3803L27.0666 17.0616C27.6179 17.8058 28.0067 18.237 28.8965 18.5503V11.2236C28.8965 10.4924 28.8965 9.96985 29.5484 9.57814V9.53897H27.3423V9.57814C28.0067 9.96985 27.9939 10.4924 27.9939 11.2236V16.1734L23.4068 10.1396L23.2312 9.87842C23.1436 9.77399 23.0935 9.70874 23.0434 9.55206V9.53897H21.2132V9.57814C21.865 9.96985 21.865 10.4924 21.865 11.2236V16.4348C21.865 17.166 21.865 17.6883 21.2009 18.0933V18.1325H23.4194V18.0933C22.755 17.6883 22.7675 17.166 22.7675 16.4348V11.3803ZM15.7598 12.9999V10.4402L16.5994 10.3486C17.3515 10.2702 18.1535 10.7405 18.1535 11.6417C18.1535 12.7127 16.9878 12.9999 16.1734 12.9999H15.7598ZM15.7598 17.0877V13.8617L16.637 13.8096C17.74 13.7442 18.9181 14.2929 18.9181 15.5597C18.9181 16.8004 17.8781 17.2966 16.85 17.1922L15.7598 17.0877ZM14.4812 16.2909C14.4812 16.8918 14.5565 17.8452 13.9296 18.0933V18.1325H15.9977C16.9377 18.1325 17.9281 18.1718 18.8053 17.7277C19.6451 17.3097 20.3095 16.4476 20.3095 15.442C20.3095 14.1623 19.3943 13.3786 18.2663 13.1302C18.9808 12.8039 19.5195 12.3076 19.5195 11.4326C19.5195 10.2702 18.5547 9.53897 16.9004 9.53897H13.9296V9.57814C14.5691 9.82626 14.4812 10.7797 14.4812 11.3672V16.2909Z" fill="#005B6A"/>
</svg>
