<svg width="24" height="24" viewBox="0 0 24 24" fill="none" xmlns="http://www.w3.org/2000/svg">
<path fill-rule="evenodd" clip-rule="evenodd" d="M21 12C21 16.9706 16.9706 21 12 21C7.02944 21 3 16.9706 3 12C3 7.02944 7.02944 3 12 3C16.9706 3 21 7.02944 21 12ZM9.62611 7.9892C9.04483 8.43208 8.75 8.98997 8.75 9.54762C8.75 9.96183 8.41421 10.2976 8 10.2976C7.58579 10.2976 7.25 9.96183 7.25 9.54762C7.25 8.42211 7.8506 7.4562 8.71704 6.79605C9.58286 6.13638 10.7461 5.75 12 5.75C13.2539 5.75 14.4171 6.13638 15.283 6.79605C16.1494 7.4562 16.75 8.42211 16.75 9.54762C16.75 11.2392 15.4231 12.5353 13.8075 13.063C13.1348 13.2826 12.75 13.7632 12.75 14.1952V15C12.75 15.4142 12.4142 15.75 12 15.75C11.5858 15.75 11.25 15.4142 11.25 15V14.1952C11.25 12.8599 12.3344 11.9661 13.3418 11.6371C14.5787 11.2331 15.25 10.3705 15.25 9.54762C15.25 8.98997 14.9552 8.43208 14.3739 7.9892C13.792 7.54585 12.9552 7.25 12 7.25C11.0448 7.25 10.208 7.54585 9.62611 7.9892ZM12 16.7C11.5582 16.7 11.2 17.0582 11.2 17.5C11.2 17.9418 11.5582 18.3 12 18.3H12.01C12.4518 18.3 12.81 17.9418 12.81 17.5C12.81 17.0582 12.4518 16.7 12.01 16.7H12Z" fill="white"/>
</svg>
