<svg width="50" height="16" viewBox="0 0 50 16" fill="none" xmlns="http://www.w3.org/2000/svg">
<path fill-rule="evenodd" clip-rule="evenodd" d="M7.36746 11.6816C7.36746 11.0682 7.37424 9.42867 7.35884 9.22666C7.37226 6.78697 5.56613 5.06598 4.4251 5.20015C3.63555 5.26744 2.9737 5.58364 2.61855 6.49325C2.28911 7.34098 2.58366 8.46856 3.67849 8.73314C4.84905 9.01729 5.53279 9.25371 6.02752 9.58726C6.63371 9.99558 7.12857 10.7757 7.14171 11.6826" fill="#0060AF"/>
<path fill-rule="evenodd" clip-rule="evenodd" d="M6.87819 11.6825C6.882 10.8962 6.43517 10.2009 5.85116 9.8273C5.33312 9.49709 4.63766 9.28023 3.5157 9.00066C3.16888 8.91353 2.8061 8.71998 2.69379 8.47329C2.3967 8.76729 2.34274 9.42827 2.39501 9.81467C2.45575 10.2616 2.98763 10.9983 3.78849 11.0272C4.27756 11.0464 4.8959 10.9238 5.19242 10.8619C5.70396 10.7534 6.51329 11.0681 6.64212 11.6815" fill="#0060AF"/>
<path fill-rule="evenodd" clip-rule="evenodd" d="M7.78113 1.39777C6.42311 1.39777 5.25029 2.27727 5.25439 3.79916C5.25862 5.07894 6.30656 5.76407 6.68064 6.25342C7.24572 6.99085 7.55157 7.86369 7.58321 9.19925C7.60807 10.2622 7.6068 11.3118 7.61231 11.6838H7.91194C7.90686 11.2946 7.8933 10.1803 7.90869 9.16637C7.92904 7.83039 8.2459 6.99085 8.81126 6.25342C9.18859 5.76407 10.2355 5.07894 10.2378 3.79916C10.243 2.27727 9.07063 1.39777 7.71402 1.39777" fill="#0060AF"/>
<path fill-rule="evenodd" clip-rule="evenodd" d="M8.12574 11.6816C8.12574 11.0682 8.11867 9.42867 8.13379 9.22666C8.12051 6.78697 9.92551 5.06598 11.0675 5.20015C11.8571 5.26744 12.5181 5.58364 12.8744 6.49325C13.2034 7.34098 12.9073 8.46856 11.8139 8.73314C10.6424 9.01729 9.95969 9.25371 9.4637 9.58726C8.85822 9.99558 8.39796 10.7757 8.38384 11.6826" fill="#0060AF"/>
<path fill-rule="evenodd" clip-rule="evenodd" d="M8.61467 11.6825C8.61044 10.8962 9.05713 10.2009 9.63944 9.8273C10.1597 9.49709 10.8559 9.28023 11.9769 9.00066C12.3244 8.91353 12.6868 8.71998 12.7971 8.47329C13.0956 8.76729 13.1496 9.42827 13.0971 9.81467C13.0353 10.2616 12.5047 10.9983 11.7052 11.0272C11.2164 11.0464 10.5947 10.9238 10.2995 10.8619C9.78989 10.7534 8.9783 11.0681 8.8489 11.6815" fill="#0060AF"/>
<path fill-rule="evenodd" clip-rule="evenodd" d="M9.0335 14.2209L8.85988 12.9757L9.27931 12.9133C9.38131 12.8997 9.50562 12.9171 9.55535 12.9799C9.61031 13.0455 9.62712 13.0997 9.63771 13.1858C9.65367 13.2923 9.62231 13.4152 9.50026 13.4766V13.4803C9.63644 13.4803 9.7188 13.5765 9.74282 13.7388C9.74621 13.7732 9.75666 13.8559 9.74621 13.925C9.71852 14.0894 9.61878 14.1424 9.45011 14.1656L9.0335 14.2209ZM9.30347 13.9981C9.35319 13.991 9.40363 13.9884 9.44304 13.9637C9.50351 13.925 9.498 13.8423 9.48952 13.7807C9.46861 13.6457 9.43273 13.5942 9.2868 13.6155L9.19497 13.6293L9.25318 14.0049L9.30347 13.9981ZM9.21574 13.4226C9.27126 13.4139 9.34641 13.4072 9.37778 13.3554C9.3943 13.3209 9.41521 13.2934 9.40137 13.2166C9.38427 13.1255 9.35362 13.0689 9.23566 13.0909L9.12589 13.1082L9.16926 13.4273L9.21574 13.4226Z" fill="#0060AF"/>
<path fill-rule="evenodd" clip-rule="evenodd" d="M10.8504 13.472C10.8537 13.4952 10.8575 13.521 10.8589 13.5441C10.8928 13.7711 10.8504 13.9593 10.5905 14.011C10.2061 14.0836 10.1325 13.8492 10.065 13.521L10.0289 13.3432C9.97596 13.0293 9.95322 12.7914 10.3279 12.7181C10.5391 12.6803 10.6786 12.7629 10.7367 12.9693C10.7457 13.0001 10.757 13.0305 10.7613 13.0616L10.5314 13.1082C10.5049 13.0305 10.4697 12.8919 10.3663 12.9036C10.1807 12.9256 10.242 13.1523 10.261 13.2472L10.3301 13.5881C10.3509 13.6912 10.3921 13.8559 10.5528 13.8241C10.6832 13.7985 10.6262 13.5989 10.6146 13.5171" fill="#0060AF"/>
<path fill-rule="evenodd" clip-rule="evenodd" d="M11.2193 13.8488L11.1399 12.5601L11.4485 12.4676L12.096 13.5884L11.8528 13.6598L11.6994 13.375L11.4295 13.4546L11.4644 13.7785L11.2193 13.8488ZM11.4069 13.2465L11.6019 13.191L11.3429 12.6696L11.4069 13.2465Z" fill="#0060AF"/>
<path fill-rule="evenodd" clip-rule="evenodd" d="M3.59188 12.8743C3.68851 12.5706 3.77497 12.3468 4.14382 12.4461C4.34117 12.5004 4.46351 12.5857 4.45772 12.8109C4.45673 12.861 4.43992 12.9122 4.4289 12.9616L4.19934 12.8994C4.22943 12.775 4.2485 12.6763 4.09254 12.6291C3.91228 12.5806 3.86835 12.7954 3.84348 12.888L3.7501 13.2257C3.72044 13.3261 3.68484 13.4919 3.84348 13.5347C3.97458 13.5693 4.05397 13.443 4.10144 13.2585L3.94096 13.2166L3.99648 13.0212L4.37409 13.1404L4.19482 13.7915L4.02106 13.7452L4.06019 13.6076H4.05525C3.97515 13.7202 3.87767 13.732 3.7922 13.7158C3.41459 13.6156 3.454 13.3732 3.54413 13.0494" fill="#0060AF"/>
<path fill-rule="evenodd" clip-rule="evenodd" d="M4.99733 13.4243L4.88361 13.954L4.62763 13.8998L4.90042 12.6629L5.3368 12.7596C5.59221 12.8138 5.66935 12.9254 5.63318 13.1554C5.61256 13.2874 5.5463 13.4294 5.38455 13.4179L5.38285 13.4158C5.5196 13.4627 5.53118 13.5306 5.50731 13.6475C5.497 13.6975 5.42594 13.9997 5.47496 14.0485L5.47665 14.0857L5.21178 14.0177C5.20076 13.934 5.23833 13.7834 5.25317 13.6998C5.268 13.626 5.29187 13.522 5.21559 13.483C5.15597 13.4516 5.13365 13.4532 5.06613 13.438L4.99733 13.4243ZM5.04098 13.2327L5.21333 13.2783C5.31801 13.2933 5.37621 13.24 5.39684 13.1157C5.41549 13.0018 5.39133 12.9574 5.29738 12.9354L5.1126 12.8985L5.04098 13.2327Z" fill="#0060AF"/>
<path fill-rule="evenodd" clip-rule="evenodd" d="M6.63924 12.9391L6.8924 12.9679L6.78334 13.8376C6.73036 14.1133 6.62187 14.2337 6.31305 14.1961C5.99887 14.157 5.92428 14.0166 5.94321 13.7387L6.05312 12.8698L6.30825 12.8984L6.19877 13.7478C6.18704 13.8401 6.16543 13.9767 6.33241 13.9934C6.4806 14.0045 6.51422 13.9079 6.53103 13.7881" fill="#0060AF"/>
<path fill-rule="evenodd" clip-rule="evenodd" d="M7.17142 14.2438L7.24771 13.0003L7.73395 13.021C7.96394 13.0323 8.02398 13.2165 8.01692 13.3924C8.01014 13.4994 7.97623 13.6189 7.8813 13.6837C7.80346 13.7387 7.7033 13.7518 7.61063 13.7474L7.45212 13.7387L7.42048 14.2599L7.17142 14.2438ZM7.45919 13.5491L7.58802 13.5562C7.6927 13.5599 7.76207 13.5193 7.77111 13.3683C7.77634 13.2235 7.72039 13.1988 7.58477 13.1929L7.48278 13.1895L7.45919 13.5491Z" fill="#0060AF"/>
<path fill-rule="evenodd" clip-rule="evenodd" d="M41.4761 2.59953L39.543 6.04568C38.8133 5.46364 37.9225 5.03548 36.7857 5.03548C34.0955 5.03548 33.0026 7.00482 33.0026 8.39213C33.0026 9.42203 33.6892 10.9413 36.0829 10.9413C37.0877 10.9413 38.516 10.2549 38.9271 9.94246L37.0153 13.9405C36.1039 14.1191 35.8044 14.2298 35.0331 14.2533C30.7487 14.3788 29.0176 11.7939 29.0187 9.15273C29.0217 5.66094 32.1824 1.41451 37.4225 1.41451C37.7435 1.41451 38.1362 1.52371 38.472 1.64455L38.8115 1.21819" fill="#0060AF"/>
<path fill-rule="evenodd" clip-rule="evenodd" d="M49.4526 1.32629L50 13.8509H45.9261L45.9238 11.703H43.1458L42.2316 13.8509H37.8133L42.4325 4.90729L41.3909 4.90063L43.3698 1.32629H49.4526ZM45.8973 5.15786L44.3268 8.80088H45.9447L45.8973 5.15786Z" fill="#0060AF"/>
<path fill-rule="evenodd" clip-rule="evenodd" d="M26.4468 1.32624C28.4643 1.33734 29.6043 2.41289 29.6043 3.96641C29.6043 5.39881 28.402 6.66652 27.0821 7.32209C28.441 7.81283 28.5585 9.01714 28.5585 9.86903C28.5585 11.9276 26.4556 13.8509 23.7219 13.8509H17.7599L20.0854 5.03183L19.1302 5.02642L21.0829 1.32624C21.0829 1.32624 24.8062 1.31514 26.4468 1.32624ZM24.4675 6.4043C24.8848 6.4043 25.6216 6.30052 25.8059 5.50731C26.0077 4.64612 25.3162 4.62295 24.9845 4.62295L23.7993 4.61796L23.3859 6.4043H24.4675ZM22.7917 8.61755L22.246 10.676H23.6418C24.1907 10.676 24.939 10.4082 25.1224 9.73833C25.3035 9.06667 24.7804 8.61755 24.2334 8.61755H22.7917Z" fill="#0060AF"/>
<path fill-rule="evenodd" clip-rule="evenodd" d="M7.83479 15.39C5.77043 15.39 3.64913 14.8906 1.53051 13.9031L1.47852 13.8779L1.45366 13.8259C0.502919 11.8549 0 9.69923 0 7.59003C0 5.48389 0.482293 3.42034 1.4336 1.45196L1.45988 1.39966L1.51285 1.37357C3.47268 0.461743 5.58084 0 7.78111 0C9.8305 0 12.0195 0.514049 14.11 1.48943L14.1635 1.51287L14.1884 1.56615C15.1572 3.57351 15.6682 5.72877 15.6682 7.80314C15.6682 9.86919 15.1775 11.9347 14.2074 13.9408L14.182 13.9934L14.1281 14.0178C12.198 14.9151 10.0218 15.39 7.83479 15.39ZM1.72659 13.6328C3.7846 14.5837 5.83739 15.0638 7.83479 15.0638C9.9527 15.0638 12.0589 14.6091 13.934 13.7472C14.8653 11.8033 15.3375 9.8026 15.3375 7.80314C15.3375 5.79537 14.8447 3.70712 13.9126 1.75873C11.8839 0.822063 9.7651 0.325357 7.78111 0.325357C5.65105 0.325357 3.60929 0.769062 1.70879 1.64454C0.796476 3.55228 0.332124 5.55146 0.332124 7.59003C0.332124 9.63222 0.814559 11.7214 1.72659 13.6328Z" fill="#0060AF"/>
</svg>
