<svg width="24" height="24" viewBox="0 0 24 24" fill="none" xmlns="http://www.w3.org/2000/svg">
<path d="M14 3.04058C11.4757 2.93841 9.16166 3.0292 6.23865 3.31262C5.19543 3.41376 4.36239 4.33831 4.26588 5.51183C3.87042 10.3205 3.94716 13.6909 4.292 18.4438C4.37877 19.6397 5.21856 20.5949 6.28078 20.6968C10.4928 21.1009 13.4667 21.1019 17.7331 20.6948C18.7928 20.5937 19.6326 19.6437 19.7203 18.4508C19.9822 14.8894 20.0688 12.1199 19.9433 8.9839M14 3.04058L19.9433 8.9839M14 3.04058V6.48391C14 7.86462 15.1193 8.9839 16.5 8.9839H19.9433" stroke="#7A7A7A" stroke-width="1.5"/>
<path d="M8 12.5H16" stroke="#7A7A7A" stroke-width="1.5" stroke-linecap="round"/>
<path d="M8 16H13" stroke="#7A7A7A" stroke-width="1.5" stroke-linecap="round"/>
</svg>
