<svg width="37" height="28" viewBox="0 0 37 28" fill="none" xmlns="http://www.w3.org/2000/svg">
<path fill-rule="evenodd" clip-rule="evenodd" d="M7.61019 16.5341C7.61019 16.1617 7.61427 15.1662 7.60499 15.0436C7.61308 13.5623 6.52496 12.5173 5.83753 12.5988C5.36186 12.6396 4.96312 12.8316 4.74915 13.3839C4.55068 13.8986 4.72813 14.5833 5.38773 14.7439C6.09294 14.9164 6.50487 15.06 6.80292 15.2625C7.16813 15.5104 7.46627 15.9841 7.47418 16.5347" fill="#0060AF"/>
<path fill-rule="evenodd" clip-rule="evenodd" d="M7.31541 16.5347C7.31771 16.0573 7.04851 15.6352 6.69667 15.4084C6.38457 15.2079 5.96558 15.0762 5.28964 14.9064C5.0807 14.8535 4.86214 14.736 4.79448 14.5862C4.61549 14.7647 4.58298 15.1661 4.61447 15.4007C4.65107 15.672 4.9715 16.1193 5.45399 16.1369C5.74864 16.1486 6.12116 16.0741 6.2998 16.0365C6.60798 15.9707 7.09557 16.1617 7.17319 16.5342" fill="#0060AF"/>
<path fill-rule="evenodd" clip-rule="evenodd" d="M7.85931 10.2902C7.04115 10.2902 6.33458 10.8242 6.33704 11.7482C6.3396 12.5253 6.97094 12.9412 7.19631 13.2384C7.53674 13.6861 7.721 14.2161 7.74007 15.027C7.75505 15.6723 7.75428 16.3096 7.7576 16.5355H7.93812C7.93505 16.2992 7.92688 15.6226 7.93616 15.007C7.94842 14.1959 8.13932 13.6861 8.47992 13.2384C8.70725 12.9412 9.33799 12.5253 9.33936 11.7482C9.3425 10.8242 8.63618 10.2902 7.81888 10.2902" fill="#0060AF"/>
<path fill-rule="evenodd" clip-rule="evenodd" d="M8.06699 16.5341C8.06699 16.1617 8.06274 15.1662 8.07184 15.0436C8.06384 13.5623 9.15128 12.5173 9.8393 12.5988C10.315 12.6396 10.7132 12.8316 10.9279 13.3839C11.1261 13.8986 10.9477 14.5833 10.2889 14.7439C9.58321 14.9164 9.17188 15.06 8.87306 15.2625C8.50828 15.5104 8.231 15.9841 8.22249 16.5347" fill="#0060AF"/>
<path fill-rule="evenodd" clip-rule="evenodd" d="M8.36138 16.5347C8.35883 16.0573 8.62794 15.6352 8.97876 15.4084C9.29222 15.2079 9.71164 15.0762 10.387 14.9064C10.5963 14.8535 10.8147 14.736 10.8811 14.5862C11.061 14.7647 11.0935 15.1661 11.0619 15.4007C11.0246 15.672 10.7049 16.1193 10.2233 16.1369C9.92884 16.1486 9.55427 16.0741 9.37639 16.0365C9.0694 15.9707 8.58045 16.1617 8.50249 16.5342" fill="#0060AF"/>
<path fill-rule="evenodd" clip-rule="evenodd" d="M8.61377 18.0759L8.50917 17.3198L8.76186 17.2819C8.82331 17.2737 8.8982 17.2843 8.92816 17.3224C8.96127 17.3622 8.9714 17.3951 8.97778 17.4474C8.9874 17.5121 8.9685 17.5867 8.89497 17.6239V17.6262C8.97701 17.6262 9.02663 17.6846 9.0411 17.7832C9.04314 17.804 9.04944 17.8543 9.04314 17.8962C9.02646 17.996 8.96637 18.0282 8.86475 18.0423L8.61377 18.0759ZM8.77641 17.9406C8.80637 17.9363 8.83675 17.9347 8.8605 17.9197C8.89692 17.8962 8.89361 17.846 8.8885 17.8086C8.8759 17.7266 8.85429 17.6954 8.76637 17.7083L8.71105 17.7167L8.74611 17.9447L8.77641 17.9406ZM8.72356 17.5912C8.75701 17.5859 8.80228 17.5818 8.82118 17.5504C8.83114 17.5294 8.84373 17.5127 8.83539 17.4661C8.82509 17.4108 8.80662 17.3764 8.73556 17.3897L8.66943 17.4003L8.69556 17.594L8.72356 17.5912Z" fill="#0060AF"/>
<path fill-rule="evenodd" clip-rule="evenodd" d="M9.70854 17.6212C9.7105 17.6353 9.71279 17.651 9.71365 17.665C9.73407 17.8028 9.70854 17.9171 9.55194 17.9485C9.32036 17.9926 9.27601 17.8503 9.23533 17.651L9.21363 17.543C9.18171 17.3524 9.16801 17.208 9.39372 17.1635C9.52096 17.1405 9.60505 17.1907 9.64003 17.316C9.64547 17.3347 9.65228 17.3532 9.65483 17.372L9.51636 17.4003C9.50036 17.3532 9.47917 17.269 9.41687 17.2761C9.30504 17.2895 9.34197 17.4271 9.35346 17.4847L9.39508 17.6917C9.40759 17.7543 9.43244 17.8543 9.52921 17.835C9.60777 17.8194 9.57347 17.6983 9.56649 17.6486" fill="#0060AF"/>
<path fill-rule="evenodd" clip-rule="evenodd" d="M9.93073 17.85L9.8829 17.0676L10.0689 17.0114L10.4589 17.6919L10.3124 17.7353L10.22 17.5623L10.0574 17.6107L10.0784 17.8073L9.93073 17.85ZM10.0438 17.4843L10.1613 17.4506L10.0052 17.134L10.0438 17.4843Z" fill="#0060AF"/>
<path fill-rule="evenodd" clip-rule="evenodd" d="M5.33543 17.2584C5.39364 17.074 5.44573 16.9381 5.66795 16.9984C5.78685 17.0314 5.86055 17.0832 5.85706 17.2199C5.85647 17.2503 5.84634 17.2814 5.8397 17.3114L5.7014 17.2736C5.71952 17.1981 5.73101 17.1382 5.63705 17.1095C5.52845 17.0801 5.50199 17.2105 5.48701 17.2667L5.43075 17.4718C5.41288 17.5327 5.39143 17.6334 5.48701 17.6594C5.56599 17.6804 5.61382 17.6037 5.64242 17.4917L5.54573 17.4662L5.57918 17.3476L5.80668 17.42L5.69867 17.8153L5.59399 17.7872L5.61756 17.7036H5.61458C5.56633 17.772 5.5076 17.7792 5.45611 17.7693C5.22861 17.7085 5.25236 17.5613 5.30666 17.3647" fill="#0060AF"/>
<path fill-rule="evenodd" clip-rule="evenodd" d="M6.18218 17.5923L6.11367 17.9139L5.95945 17.881L6.12379 17.13L6.3867 17.1887C6.54057 17.2217 6.58704 17.2894 6.56526 17.4291C6.55283 17.5092 6.51291 17.5954 6.41546 17.5884L6.41444 17.5872C6.49683 17.6156 6.50381 17.6568 6.48942 17.7279C6.48321 17.7582 6.4404 17.9417 6.46993 17.9713L6.47095 17.9939L6.31137 17.9526C6.30474 17.9018 6.32738 17.8103 6.33631 17.7596C6.34525 17.7148 6.35963 17.6516 6.31367 17.6279C6.27776 17.6089 6.26431 17.6098 6.22363 17.6007L6.18218 17.5923ZM6.20848 17.476L6.31231 17.5037C6.37538 17.5128 6.41044 17.4804 6.42287 17.405C6.4341 17.3358 6.41955 17.3088 6.36295 17.2954L6.25163 17.273L6.20848 17.476Z" fill="#0060AF"/>
<path fill-rule="evenodd" clip-rule="evenodd" d="M7.17138 17.2977L7.3239 17.3153L7.25819 17.8433C7.22628 18.0107 7.16091 18.0838 6.97486 18.061C6.78558 18.0372 6.74064 17.952 6.75205 17.7832L6.81826 17.2557L6.97197 17.273L6.90601 17.7888C6.89895 17.8448 6.88592 17.9278 6.98652 17.9379C7.0758 17.9446 7.09606 17.886 7.10619 17.8132" fill="#0060AF"/>
<path fill-rule="evenodd" clip-rule="evenodd" d="M7.49191 18.0898L7.53787 17.3348L7.83082 17.3474C7.96938 17.3542 8.00555 17.4661 8.00129 17.5729C7.99721 17.6378 7.97678 17.7104 7.91959 17.7497C7.87269 17.7831 7.81235 17.7911 7.75652 17.7884L7.66103 17.7831L7.64196 18.0996L7.49191 18.0898ZM7.66528 17.668L7.7429 17.6723C7.80597 17.6746 7.84775 17.6499 7.8532 17.5582C7.85635 17.4703 7.82265 17.4553 7.74094 17.4517L7.67949 17.4496L7.66528 17.668Z" fill="#0060AF"/>
<path fill-rule="evenodd" clip-rule="evenodd" d="M28.1592 11.0198L26.9946 13.1122C26.555 12.7588 26.0183 12.4988 25.3334 12.4988C23.7127 12.4988 23.0543 13.6946 23.0543 14.5369C23.0543 15.1622 23.4679 16.0847 24.91 16.0847C25.5154 16.0847 26.3758 15.6679 26.6235 15.4782L25.4717 17.9057C24.9227 18.0141 24.7423 18.0814 24.2776 18.0956C21.6964 18.1718 20.6534 16.6023 20.6541 14.9987C20.6559 12.8786 22.5601 10.3003 25.7171 10.3003C25.9105 10.3003 26.1471 10.3666 26.3494 10.44L26.5539 10.1811" fill="#0060AF"/>
<path fill-rule="evenodd" clip-rule="evenodd" d="M32.9648 10.2468L33.2946 17.8514H30.8402L30.8388 16.5472H29.1652L28.6144 17.8514H25.9525L28.7354 12.4211L28.1079 12.417L29.3001 10.2468H32.9648ZM30.8228 12.5732L29.8767 14.7852H30.8514L30.8228 12.5732Z" fill="#0060AF"/>
<path fill-rule="evenodd" clip-rule="evenodd" d="M19.1047 10.2468C20.3202 10.2536 21.007 10.9066 21.007 11.8499C21.007 12.7196 20.2826 13.4893 19.4875 13.8873C20.3061 14.1853 20.3769 14.9165 20.3769 15.4337C20.3769 16.6836 19.11 17.8514 17.463 17.8514H13.8712L15.2722 12.4968L14.6967 12.4935L15.8732 10.2468C15.8732 10.2468 18.1163 10.2401 19.1047 10.2468ZM17.9122 13.3301C18.1637 13.3301 18.6076 13.2671 18.7186 12.7854C18.8402 12.2626 18.4236 12.2485 18.2237 12.2485L17.5097 12.2455L17.2607 13.3301H17.9122ZM16.9027 14.6739L16.5739 15.9237H17.4148C17.7455 15.9237 18.1963 15.7611 18.3068 15.3544C18.4159 14.9466 18.1008 14.6739 17.7712 14.6739H16.9027Z" fill="#0060AF"/>
<path fill-rule="evenodd" clip-rule="evenodd" d="M7.89166 18.7858C6.64796 18.7858 5.36996 18.4826 4.09357 17.883L4.06225 17.8677L4.04727 17.8361C3.47449 16.6394 3.1715 15.3305 3.1715 14.0499C3.1715 12.7711 3.46206 11.5182 4.03519 10.3231L4.05102 10.2913L4.08293 10.2755C5.26365 9.72182 6.53374 9.44146 7.85931 9.44146C9.09399 9.44146 10.4128 9.75358 11.6722 10.3458L11.7045 10.36L11.7194 10.3924C12.3031 11.6112 12.611 12.9198 12.611 14.1793C12.611 15.4337 12.3154 16.6878 11.7309 17.9059L11.7156 17.9378L11.6831 17.9526C10.5203 18.4974 9.20923 18.7858 7.89166 18.7858ZM4.2117 17.7188C5.45157 18.2962 6.6883 18.5877 7.89166 18.5877C9.16761 18.5877 10.4365 18.3117 11.5662 17.7883C12.1273 16.608 12.4117 15.3933 12.4117 14.1793C12.4117 12.9602 12.1149 11.6923 11.5533 10.5093C10.3311 9.94059 9.05459 9.63901 7.85931 9.63901C6.57604 9.63901 5.34595 9.90841 4.20098 10.44C3.65135 11.5983 3.37159 12.8121 3.37159 14.0499C3.37159 15.2898 3.66224 16.5583 4.2117 17.7188Z" fill="#0060AF"/>
</svg>
