<svg width="37" height="28" viewBox="0 0 37 28" fill="none" xmlns="http://www.w3.org/2000/svg">
<path fill-rule="evenodd" clip-rule="evenodd" d="M7.60989 16.534C7.60989 16.1616 7.61397 15.1661 7.60469 15.0435C7.61278 13.5622 6.52467 12.5172 5.83724 12.5987C5.36157 12.6396 4.96284 12.8315 4.74887 13.3838C4.5504 13.8985 4.72785 14.5832 5.38744 14.7438C6.09265 14.9163 6.50458 15.0599 6.80263 15.2624C7.16783 15.5103 7.46597 15.984 7.47388 16.5346" fill="#0060AF"/>
<path fill-rule="evenodd" clip-rule="evenodd" d="M7.31511 16.5345C7.31741 16.0571 7.04821 15.635 6.69637 15.4081C6.38428 15.2076 5.96529 15.076 5.28936 14.9062C5.08042 14.8533 4.86186 14.7358 4.7942 14.586C4.61521 14.7645 4.5827 15.1658 4.61419 15.4005C4.65079 15.6718 4.97122 16.1191 5.4537 16.1366C5.74835 16.1483 6.12087 16.0739 6.29951 16.0363C6.60769 15.9704 7.09528 16.1615 7.1729 16.5339" fill="#0060AF"/>
<path fill-rule="evenodd" clip-rule="evenodd" d="M7.85925 10.29C7.0411 10.29 6.33453 10.824 6.337 11.748C6.33955 12.5251 6.97089 12.941 7.19626 13.2382C7.53669 13.6859 7.72095 14.2159 7.74002 15.0268C7.755 15.6721 7.75423 16.3094 7.75755 16.5353H7.93806C7.935 16.299 7.92683 15.6224 7.93611 15.0068C7.94836 14.1956 8.13926 13.6859 8.47987 13.2382C8.70719 12.941 9.33793 12.5251 9.33929 11.748C9.34244 10.824 8.63613 10.29 7.81883 10.29" fill="#0060AF"/>
<path fill-rule="evenodd" clip-rule="evenodd" d="M8.06644 16.534C8.06644 16.1616 8.06218 15.1661 8.07129 15.0435C8.06329 13.5622 9.15072 12.5172 9.83874 12.5987C10.3144 12.6396 10.7126 12.8315 10.9273 13.3838C11.1255 13.8985 10.9471 14.5832 10.2884 14.7438C9.58265 14.9163 9.17132 15.0599 8.8725 15.2624C8.50773 15.5103 8.23044 15.984 8.22193 16.5346" fill="#0060AF"/>
<path fill-rule="evenodd" clip-rule="evenodd" d="M8.36108 16.5345C8.35852 16.0571 8.62764 15.635 8.97845 15.4081C9.29191 15.2076 9.71132 15.076 10.3867 14.9062C10.596 14.8533 10.8143 14.7358 10.8808 14.586C11.0606 14.7645 11.0931 15.1658 11.0616 15.4005C11.0243 15.6718 10.7046 16.1191 10.223 16.1366C9.92852 16.1483 9.55396 16.0739 9.37608 16.0363C9.06909 15.9704 8.58014 16.1615 8.50219 16.5339" fill="#0060AF"/>
<path fill-rule="evenodd" clip-rule="evenodd" d="M8.61371 18.0756L8.50911 17.3196L8.7618 17.2817C8.82325 17.2734 8.89814 17.284 8.9281 17.3221C8.96121 17.362 8.97134 17.3949 8.97772 17.4471C8.98734 17.5118 8.96844 17.5865 8.89491 17.6237V17.626C8.97695 17.626 9.02657 17.6843 9.04104 17.7829C9.04308 17.8038 9.04938 17.854 9.04308 17.896C9.0264 17.9958 8.96631 18.028 8.86469 18.042L8.61371 18.0756ZM8.77635 17.9404C8.80631 17.9361 8.83669 17.9345 8.86044 17.9195C8.89687 17.896 8.89355 17.8458 8.88844 17.8084C8.87584 17.7264 8.85423 17.6951 8.76631 17.708L8.71099 17.7164L8.74605 17.9445L8.77635 17.9404ZM8.7235 17.5909C8.75695 17.5856 8.80222 17.5816 8.82112 17.5502C8.83108 17.5292 8.84367 17.5125 8.83533 17.4658C8.82503 17.4106 8.80657 17.3762 8.7355 17.3895L8.66937 17.4L8.6955 17.5938L8.7235 17.5909Z" fill="#0060AF"/>
<path fill-rule="evenodd" clip-rule="evenodd" d="M9.70798 17.621C9.70993 17.635 9.71223 17.6507 9.71308 17.6648C9.73351 17.8026 9.70798 17.9168 9.55138 17.9483C9.3198 17.9923 9.27545 17.85 9.23477 17.6507L9.21307 17.5428C9.18115 17.3522 9.16745 17.2078 9.39316 17.1632C9.5204 17.1403 9.60448 17.1904 9.63946 17.3158C9.64491 17.3345 9.65172 17.3529 9.65427 17.3718L9.5158 17.4001C9.4998 17.3529 9.47861 17.2688 9.41631 17.2758C9.30448 17.2892 9.34141 17.4269 9.3529 17.4845L9.39452 17.6915C9.40703 17.7541 9.43188 17.8541 9.52865 17.8348C9.60721 17.8192 9.57291 17.6981 9.56593 17.6484" fill="#0060AF"/>
<path fill-rule="evenodd" clip-rule="evenodd" d="M9.93016 17.8499L9.88233 17.0675L10.0683 17.0113L10.4583 17.6918L10.3119 17.7351L10.2194 17.5622L10.0568 17.6106L10.0778 17.8072L9.93016 17.8499ZM10.0432 17.4842L10.1607 17.4505L10.0046 17.1339L10.0432 17.4842Z" fill="#0060AF"/>
<path fill-rule="evenodd" clip-rule="evenodd" d="M5.33514 17.2582C5.39336 17.0738 5.44544 16.9379 5.66766 16.9982C5.78656 17.0311 5.86026 17.0829 5.85677 17.2197C5.85618 17.2501 5.84605 17.2812 5.83941 17.3111L5.70111 17.2734C5.71924 17.1978 5.73073 17.1379 5.63677 17.1093C5.52817 17.0798 5.5017 17.2102 5.48672 17.2665L5.43046 17.4715C5.41259 17.5324 5.39114 17.6331 5.48672 17.6591C5.5657 17.6801 5.61353 17.6035 5.64213 17.4914L5.54545 17.466L5.57889 17.3474L5.80639 17.4197L5.69839 17.8151L5.5937 17.7869L5.61728 17.7034H5.6143C5.56604 17.7718 5.50732 17.7789 5.45583 17.7691C5.22833 17.7083 5.25208 17.5611 5.30638 17.3645" fill="#0060AF"/>
<path fill-rule="evenodd" clip-rule="evenodd" d="M6.18214 17.5923L6.11362 17.914L5.95941 17.881L6.12375 17.13L6.38665 17.1887C6.54053 17.2217 6.587 17.2894 6.56521 17.4291C6.55279 17.5092 6.51287 17.5954 6.41542 17.5884L6.4144 17.5872C6.49678 17.6157 6.50376 17.6568 6.48938 17.7279C6.48317 17.7582 6.44036 17.9417 6.46989 17.9713L6.47091 17.9939L6.31133 17.9526C6.30469 17.9018 6.32733 17.8103 6.33627 17.7596C6.34521 17.7148 6.35959 17.6516 6.31363 17.628C6.27771 17.6089 6.26427 17.6098 6.22359 17.6007L6.18214 17.5923ZM6.20844 17.476L6.31227 17.5037C6.37533 17.5128 6.4104 17.4804 6.42282 17.405C6.43406 17.3358 6.41951 17.3088 6.36291 17.2955L6.25159 17.273L6.20844 17.476Z" fill="#0060AF"/>
<path fill-rule="evenodd" clip-rule="evenodd" d="M7.17133 17.2975L7.32385 17.315L7.25814 17.843C7.22623 18.0104 7.16086 18.0835 6.97482 18.0607C6.78553 18.037 6.7406 17.9517 6.752 17.783L6.81822 17.2555L6.97192 17.2728L6.90596 17.7885C6.8989 17.8446 6.88588 17.9275 6.98648 17.9376C7.07576 17.9444 7.09601 17.8857 7.10614 17.813" fill="#0060AF"/>
<path fill-rule="evenodd" clip-rule="evenodd" d="M7.49161 18.0897L7.53757 17.3347L7.83052 17.3473C7.96907 17.3541 8.00525 17.4659 8.00099 17.5728C7.9969 17.6377 7.97648 17.7102 7.91929 17.7496C7.87239 17.783 7.81205 17.7909 7.75622 17.7883L7.66073 17.783L7.64166 18.0994L7.49161 18.0897ZM7.66498 17.6679L7.7426 17.6722C7.80567 17.6744 7.84745 17.6498 7.8529 17.5581C7.85605 17.4702 7.82235 17.4552 7.74064 17.4516L7.67919 17.4495L7.66498 17.6679Z" fill="#0060AF"/>
<path fill-rule="evenodd" clip-rule="evenodd" d="M28.159 11.0196L26.9944 13.112C26.5548 12.7586 26.0181 12.4986 25.3333 12.4986C23.7125 12.4986 23.0541 13.6944 23.0541 14.5367C23.0541 15.162 23.4678 16.0844 24.9098 16.0844C25.5152 16.0844 26.3757 15.6677 26.6233 15.478L25.4716 17.9055C24.9225 18.0139 24.7421 18.0811 24.2774 18.0953C21.6962 18.1716 20.6533 16.6021 20.654 14.9985C20.6558 12.8784 22.56 10.3001 25.7169 10.3001C25.9103 10.3001 26.1469 10.3664 26.3492 10.4398L26.5537 10.1809" fill="#0060AF"/>
<path fill-rule="evenodd" clip-rule="evenodd" d="M32.9643 10.2468L33.2941 17.8513H30.8397L30.8384 16.5471H29.1647L28.614 17.8513H25.9521L28.735 12.421L28.1075 12.417L29.2997 10.2468H32.9643ZM30.8224 12.5731L29.8762 14.7851H30.851L30.8224 12.5731Z" fill="#0060AF"/>
<path fill-rule="evenodd" clip-rule="evenodd" d="M19.1043 10.2468C20.3198 10.2535 21.0066 10.9065 21.0066 11.8498C21.0066 12.7195 20.2822 13.4892 19.4871 13.8872C20.3057 14.1852 20.3765 14.9164 20.3765 15.4336C20.3765 16.6835 19.1096 17.8513 17.4627 17.8513H13.8708L15.2719 12.4967L14.6964 12.4934L15.8728 10.2468C15.8728 10.2468 18.116 10.24 19.1043 10.2468ZM17.9119 13.33C18.1633 13.33 18.6072 13.267 18.7182 12.7854C18.8398 12.2625 18.4232 12.2484 18.2234 12.2484L17.5093 12.2454L17.2603 13.33H17.9119ZM16.9023 14.6738L16.5735 15.9236H17.4144C17.7452 15.9236 18.196 15.761 18.3064 15.3543C18.4156 14.9465 18.1004 14.6738 17.7709 14.6738H16.9023Z" fill="#0060AF"/>
<path fill-rule="evenodd" clip-rule="evenodd" d="M7.89136 18.7856C6.64766 18.7856 5.36967 18.4825 4.0933 17.8828L4.06198 17.8676L4.047 17.836C3.47422 16.6393 3.17123 15.3304 3.17123 14.0498C3.17123 12.771 3.46179 11.5181 4.03491 10.323L4.05074 10.2912L4.08266 10.2754C5.26337 9.72175 6.53345 9.4414 7.85901 9.4414C9.09368 9.4414 10.4124 9.75351 11.6719 10.3457L11.7041 10.36L11.7191 10.3923C12.3028 11.6111 12.6106 12.9197 12.6106 14.1792C12.6106 15.4336 12.315 16.6877 11.7306 17.9057L11.7153 17.9377L11.6828 17.9525C10.52 18.4973 9.20892 18.7856 7.89136 18.7856ZM4.21143 17.7187C5.45129 18.2961 6.688 18.5876 7.89135 18.5876C9.1673 18.5876 10.4362 18.3115 11.5658 17.7882C12.127 16.6079 12.4114 15.3932 12.4114 14.1792C12.4114 12.9601 12.1145 11.6922 11.553 10.5092C10.3307 9.94053 9.05428 9.63895 7.85901 9.63895C6.57575 9.63895 5.34567 9.90835 4.2007 10.4399C3.65107 11.5982 3.37132 12.812 3.37132 14.0498C3.37132 15.2897 3.66197 16.5582 4.21143 17.7187Z" fill="#0060AF"/>
</svg>
