<svg width="128" height="128" viewBox="0 0 128 128" fill="none" xmlns="http://www.w3.org/2000/svg">
<path d="M107.766 81.1297V35.2693C107.766 33.8451 106.601 32.8611 105.177 32.8611H95.1554C93.7311 32.8611 92.4881 33.8451 92.4881 35.2693V76.6499C90.8308 76.7017 89.1736 76.9088 87.5681 77.2973V48.7866C87.5681 47.3624 86.351 46.3266 84.9267 46.3266H74.9053C73.4811 46.3266 72.2899 47.3365 72.2899 48.7866V87.4482C69.2084 91.7727 67.5511 96.9776 67.577 102.312C67.577 116.503 79.0744 128 93.2391 128C107.43 128 118.927 116.503 118.927 102.338C118.927 93.8443 114.758 85.9204 107.766 81.1297ZM97.6672 38.0401H102.587V78.3849C101.008 77.7634 99.3504 77.2973 97.6672 77.0383V38.0401ZM77.4689 51.5056H82.389V79.084C80.654 79.8868 78.9967 80.8708 77.4689 82.0361V51.5056ZM110.9 112.748C107.197 118.989 100.49 122.795 93.265 122.795C81.9488 122.795 72.7819 113.602 72.7819 102.312C72.7819 94.0256 77.7797 86.5418 85.4447 83.3826C85.7554 83.3308 86.0402 83.2014 86.2992 83.046C88.5262 82.2174 90.9085 81.803 93.2909 81.803C93.8347 81.803 94.3526 81.8289 94.8964 81.8807H94.9223C98.0297 82.1138 101.059 83.0719 103.727 84.6774C113.463 90.452 116.674 103.011 110.9 112.748Z" fill="#2782CD"/>
<path d="M93.2909 100.214C91.4782 100.214 90.0281 98.7642 90.0281 96.9516C90.0281 95.1389 91.4523 93.6888 93.265 93.6629C95.0777 93.6629 96.5278 95.1389 96.5278 96.9257C96.5278 98.3499 97.6931 99.5152 99.1173 99.5152C100.567 99.5152 101.733 98.3758 101.759 96.9257C101.759 93.4557 99.6352 90.3224 96.3983 89.0535V86.9042C96.3983 85.48 95.233 84.3147 93.8088 84.3147C92.3846 84.3147 91.2193 85.48 91.2193 86.9042V88.7687C86.7135 89.934 83.9945 94.5433 85.1598 99.0491C86.092 102.778 89.4325 105.367 93.265 105.367C95.0518 105.367 96.5019 106.844 96.5019 108.63C96.5019 110.417 95.0259 111.867 93.2391 111.867C91.4523 111.867 90.0022 110.391 90.0022 108.604C90.0022 107.18 88.8369 106.015 87.4127 106.015C85.9884 106.015 84.849 107.154 84.8749 108.579V108.604C84.9008 112.437 87.4904 115.803 91.1934 116.761V117.927C91.1934 119.351 92.3587 120.516 93.7829 120.516C95.2071 120.516 96.3724 119.351 96.3724 117.927V116.502C100.723 114.793 102.846 109.899 101.163 105.575C99.8942 102.338 96.7608 100.214 93.2909 100.214Z" fill="#2782CD"/>
<path d="M44.3229 67.0427H34.2238C32.7996 67.0427 31.6343 68.208 31.6343 69.6322V110.288C31.6343 111.712 32.7996 112.877 34.2238 112.877H44.3229C45.7472 112.877 46.9124 111.712 46.9124 110.288V69.6322C46.9124 68.208 45.7472 67.0427 44.3229 67.0427ZM41.7334 107.957H36.8133V72.2218H41.7334V107.957Z" fill="#2782CD"/>
<path d="M64.7804 61.0869H54.6813C53.2571 61.0869 52.0918 62.2522 52.0918 63.6764V110.547C52.0918 111.971 53.2571 113.136 54.6813 113.136H64.7804C66.2047 113.136 67.37 111.971 67.37 110.547V63.6764C67.37 62.2522 66.2047 61.0869 64.7804 61.0869ZM62.1909 107.957H57.2708V66.266H62.1909V107.957Z" fill="#2782CD"/>
<path d="M23.8659 89.3125H13.7668C12.3425 89.3125 11.1772 90.4778 11.1772 91.902V110.288C11.1772 111.712 12.3425 112.877 13.7668 112.877H23.8659C25.2901 112.877 26.4554 111.712 26.4554 110.288V91.902C26.4554 90.4778 25.2901 89.3125 23.8659 89.3125ZM21.2764 107.957H16.3563V94.4915H21.2764V107.957Z" fill="#2782CD"/>
<path d="M107.378 0L89.6656 0.0258952C88.2414 0 87.0761 1.16528 87.0502 2.58952C87.0243 4.01376 88.1896 5.17904 89.6138 5.20494C89.6397 5.20494 89.6397 5.20494 89.6656 5.20494L101.137 5.17904L73.0409 33.1718L63.2266 23.4352C62.7346 22.969 62.0613 22.736 61.388 22.7619C60.7148 22.736 60.0415 22.969 59.5495 23.4352L9.83068 73.154C8.82076 74.1639 8.82076 75.7953 9.83068 76.7793C10.3227 77.2713 10.9701 77.5302 11.6692 77.5302C12.3684 77.5302 13.0158 77.2713 13.5078 76.7793L61.4139 28.8732L71.2282 38.7651C71.6943 39.283 72.3676 39.5679 73.0668 39.5938C73.7659 39.5679 74.4133 39.2571 74.9053 38.7651L104.788 8.85616L104.762 20.3795C104.762 21.8297 105.902 22.9949 107.352 23.0467C108.802 23.0208 109.942 21.8297 109.942 20.3795L109.967 2.61542C109.967 1.19118 108.802 0 107.378 0Z" fill="#2782CD"/>
</svg>
