<svg width="24" height="24" viewBox="0 0 24 24" fill="none" xmlns="http://www.w3.org/2000/svg">
<path d="M9.3 21H14.7C19.2 21 21 19.2 21 14.7V9.3C21 4.8 19.2 3 14.7 3H9.3C4.8 3 3 4.8 3 9.3V14.7C3 19.2 4.8 21 9.3 21Z" stroke="#404148" stroke-width="1.5" stroke-linecap="round" stroke-linejoin="round"/>
<path d="M10.2992 11.235H7.91417C7.34717 11.235 6.88818 11.694 6.88818 12.261V16.869H10.2992V11.235Z" stroke="#2782CD" stroke-width="1.5" stroke-linecap="round" stroke-linejoin="round"/>
<path d="M12.6853 7.13995H11.3173C10.7503 7.13995 10.2913 7.59897 10.2913 8.16597V16.86H13.7023V8.16597C13.7023 7.59897 13.2523 7.13995 12.6853 7.13995Z" stroke="#2782CD" stroke-width="1.5" stroke-linecap="round" stroke-linejoin="round"/>
<path d="M16.0935 12.765H13.7085V16.86H17.1195V13.791C17.1105 13.224 16.6515 12.765 16.0935 12.765Z" stroke="#2782CD" stroke-width="1.5" stroke-linecap="round" stroke-linejoin="round"/>
</svg>
