<svg width="37" height="28" viewBox="0 0 37 28" fill="none" xmlns="http://www.w3.org/2000/svg">
<path fill-rule="evenodd" clip-rule="evenodd" d="M5.96579 10.6268C6.31669 10.5668 6.6767 10.5737 7.02926 10.6107C7.35613 10.6816 7.68591 10.7608 7.98585 10.9196C8.59278 11.2236 9.1094 11.7165 9.45367 12.3233C9.73911 12.884 9.93548 13.513 9.90607 14.1555C9.91436 15.4745 9.11851 16.7312 7.99124 17.2919C7.26043 17.6569 6.41032 17.7069 5.62939 17.5068C5.10117 17.3363 4.5916 17.0605 4.20672 16.6368C3.84008 16.2797 3.56334 15.8246 3.38768 15.3348C3.15858 14.7324 3.13786 14.0625 3.23522 13.4278C3.41337 12.4851 3.9681 11.6208 4.75317 11.1197C5.11857 10.8669 5.53866 10.7169 5.96579 10.6268ZM5.49681 12.3194C5.2325 12.3477 4.94374 12.4451 4.7975 12.6957C4.63593 12.9357 4.61908 13.2358 4.60306 13.521L4.59905 13.5909C4.59576 13.6628 4.58964 13.7347 4.58353 13.8065C4.57118 13.9515 4.55884 14.0965 4.56964 14.2425C4.57769 14.3411 4.58338 14.4401 4.58906 14.539C4.60326 14.7862 4.61747 15.0335 4.66865 15.2761C4.73204 15.5819 4.99428 15.819 5.28346 15.8747C5.82239 15.9767 6.37141 15.9677 6.91714 15.9588L7.06696 15.9564C7.29026 15.9434 7.51356 15.9195 7.73438 15.8825C8.06498 15.8373 8.35705 15.5545 8.41132 15.2065C8.5062 14.7798 8.52318 14.3395 8.49501 13.9041C8.44198 13.6248 8.25389 13.373 7.99828 13.2707C7.88311 13.2123 7.75538 13.2127 7.63008 13.213C7.60798 13.2131 7.58597 13.2132 7.56411 13.2129C7.31764 13.2132 7.07118 13.2131 6.82474 13.2129H6.82472C6.39345 13.2127 5.96224 13.2124 5.5312 13.2146C5.48165 13.2156 5.4354 13.1978 5.38956 13.1802C5.37255 13.1736 5.3556 13.1671 5.33856 13.1616C5.33731 13.0641 5.34063 12.9184 5.46533 12.9158C5.79003 12.9081 6.11504 12.9104 6.44002 12.9126H6.44003C6.86804 12.9156 7.29602 12.9186 7.72319 12.8988C7.67679 12.6726 7.54546 12.4364 7.31926 12.3738C7.11502 12.3164 6.90373 12.2872 6.69369 12.2668C6.63378 12.266 6.57377 12.2648 6.51372 12.2636C6.17347 12.2567 5.8317 12.2499 5.49681 12.3194ZM7.81019 14.2195C7.70124 14.1886 7.57074 14.2338 7.53262 14.3517C7.5087 14.4874 7.54703 14.6182 7.58511 14.7481C7.6011 14.8026 7.61705 14.857 7.62832 14.9116L7.72775 14.972C7.77042 14.9459 7.81392 14.9224 7.85908 14.902C7.86396 14.7872 7.8903 14.6768 7.91664 14.5664C7.92832 14.5174 7.94 14.4685 7.94981 14.4192C7.92951 14.3378 7.87855 14.2634 7.81019 14.2195Z" fill="#01ACD7"/>
<path fill-rule="evenodd" clip-rule="evenodd" d="M14.1623 11.7108C13.8429 11.5794 13.4883 11.5942 13.1535 11.6377C12.4294 11.7551 11.7938 12.3354 11.5792 13.071C11.4819 13.3625 11.484 13.677 11.5096 13.981C11.5962 14.7588 12.1534 15.4418 12.8606 15.6797C13.3619 15.8389 13.9403 15.8442 14.403 15.5592C14.4635 15.5241 14.5184 15.4808 14.5733 15.4374L14.5733 15.4374C14.6245 15.3969 14.6758 15.3564 14.7316 15.3226L14.7324 15.363C14.7393 15.6836 14.747 16.0462 14.5153 16.2883C14.3599 16.4875 14.125 16.5924 13.8877 16.6306C13.3744 16.7294 12.8316 16.5454 12.4501 16.1765C12.3653 16.2672 12.2764 16.3539 12.1875 16.4405L12.1875 16.4405C12.0438 16.5807 11.9 16.7209 11.7735 16.8782C12.1729 17.2749 12.6788 17.5611 13.2273 17.6372C13.7634 17.7081 14.3401 17.6738 14.8177 17.3845C15.2229 17.1483 15.5419 16.745 15.667 16.2748C15.7447 16.0405 15.7436 15.7902 15.7426 15.5453L15.7424 15.504C15.742 14.2072 15.742 12.9109 15.7424 11.6142C15.5483 11.6117 15.3542 11.6118 15.16 11.6119C15.0198 11.612 14.8796 11.6121 14.7394 11.6112L14.7399 11.718C14.7405 11.8338 14.7411 11.9495 14.7386 12.0653C14.5658 11.917 14.3749 11.786 14.1623 11.7108ZM12.8901 12.8409C13.0562 12.6861 13.2766 12.6269 13.4916 12.5934C13.9196 12.5251 14.401 12.7309 14.6201 13.1332C14.7085 13.2963 14.7048 13.4805 14.7012 13.6631C14.6999 13.727 14.6986 13.7907 14.7013 13.8532C14.7374 14.2368 14.4527 14.5753 14.1267 14.7058C13.7327 14.8615 13.2468 14.8719 12.9029 14.5844C12.3875 14.1785 12.3772 13.2524 12.8901 12.8409ZM22.9643 11.612C22.5359 11.609 22.0893 11.7434 21.7806 12.0679C21.7779 12.0268 21.7754 11.9858 21.7729 11.9449L21.7728 11.9436C21.7684 11.8722 21.7639 11.801 21.7587 11.7299C21.4215 11.7256 21.0842 11.7243 20.747 11.7299C20.7475 12.8016 20.7474 13.8732 20.7473 14.9449V14.9507C20.7473 15.7559 20.7472 16.561 20.7474 17.3662C20.9844 17.3823 21.2219 17.3809 21.4594 17.3795H21.4594H21.4594H21.4594H21.4595C21.5699 17.3788 21.6803 17.3782 21.7906 17.3793C21.7983 16.882 21.7966 16.3844 21.7949 15.8867V15.8867V15.8867V15.8866V15.8865C21.7943 15.7165 21.7937 15.5465 21.7935 15.3765C22.5376 15.9973 23.722 15.929 24.3911 15.2169C25.1194 14.45 25.1612 13.0832 24.4598 12.2828C24.0907 11.8374 23.524 11.5912 22.9643 11.612ZM21.8424 13.2268C21.9513 12.8827 22.2844 12.6774 22.608 12.6099C22.9415 12.539 23.3143 12.6273 23.572 12.8657C24.0087 13.2824 24.012 14.0833 23.6002 14.5196C23.1872 14.9394 22.4564 14.9315 22.0458 14.5118C21.871 14.3495 21.7794 14.0955 21.7947 13.8527C21.7982 13.7888 21.7965 13.7238 21.7949 13.6589V13.6589V13.6588V13.6588V13.6588C21.7912 13.5117 21.7875 13.3643 21.8424 13.2268ZM17.7219 11.6655C18.3106 11.5411 18.9548 11.6159 19.4673 11.96C19.8571 12.2071 20.1537 12.6077 20.2863 13.0649C20.4682 13.6657 20.3866 14.353 20.046 14.8758C19.7076 15.4026 19.1296 15.7254 18.5331 15.7859C18.1656 15.812 17.7857 15.7989 17.4381 15.6584C16.8622 15.4553 16.3792 14.9563 16.2093 14.3399C16.027 13.7622 16.1115 13.101 16.4239 12.5895C16.7131 12.111 17.1978 11.7843 17.7219 11.6655ZM17.9684 12.6156C17.8217 12.6595 17.6846 12.7361 17.5645 12.834C17.1485 13.178 17.047 13.8584 17.3432 14.319C17.6817 14.905 18.555 15.0207 19.0132 14.53C19.2373 14.3138 19.3438 13.9911 19.314 13.6748C19.3393 12.9736 18.5985 12.4085 17.9684 12.6156ZM27.5852 11.6381C26.9824 11.555 26.3295 11.6434 25.8295 12.0301C25.5407 12.2711 25.2938 12.6025 25.2449 12.9966C25.3889 13.0225 25.5316 13.0552 25.6744 13.0879L25.6744 13.0879C25.8604 13.1305 26.0464 13.1731 26.2351 13.2007C26.3167 12.8566 26.6009 12.583 26.9344 12.5264C27.1502 12.4873 27.3748 12.499 27.5848 12.566C27.7683 12.6286 27.908 12.8396 27.8276 13.0406C27.6779 13.1839 27.4742 13.2272 27.2802 13.2685L27.2802 13.2685C27.2552 13.2739 27.2303 13.2791 27.2057 13.2846L27.1047 13.2997C26.6123 13.3727 26.1003 13.4487 25.6812 13.7475C25.1629 14.1281 25.1608 15.0237 25.6401 15.4396C26.0358 15.7967 26.593 15.8376 27.0893 15.7685C27.4328 15.701 27.7787 15.5449 27.9979 15.2478C27.9991 15.3211 27.9991 15.3944 27.9991 15.4677C27.9991 15.5411 27.9991 15.6145 28.0003 15.688L28.2273 15.6874H28.2274H28.2274C28.4672 15.6866 28.7072 15.6858 28.9474 15.6897C28.9483 15.1992 28.9482 14.7087 28.9481 14.2184V14.2157C28.948 13.8473 28.9479 13.479 28.9482 13.1106C28.952 12.8118 28.848 12.5207 28.6914 12.2745C28.437 11.8996 28.0053 11.7103 27.5852 11.6381ZM26.281 14.6153C26.2264 14.4791 26.332 14.3447 26.4376 14.2777C26.6507 14.1544 26.8905 14.1084 27.1299 14.0625C27.4183 14.0072 27.7061 13.952 27.9457 13.7618C27.9434 13.8215 27.9452 13.8841 27.947 13.9475C27.9533 14.1615 27.9598 14.3855 27.8102 14.5452C27.521 14.848 27.0806 14.9037 26.6916 14.8776C26.53 14.8676 26.3175 14.8089 26.281 14.6153ZM29.3644 11.7269C29.253 11.7271 29.1416 11.7273 29.0303 11.7273C29.3241 12.3721 29.6245 13.0136 29.925 13.6552C30.2068 14.2572 30.4887 14.8592 30.7653 15.464C30.6293 15.7778 30.4816 16.0859 30.3338 16.3939C30.1775 16.7195 30.0213 17.0451 29.8791 17.3775C29.9988 17.377 30.1186 17.378 30.2384 17.3789C30.5046 17.3811 30.771 17.3832 31.0371 17.3688C31.91 15.4905 32.782 13.6122 33.6533 11.733C33.2618 11.7225 32.8707 11.7243 32.4796 11.7312C32.1043 12.5964 31.7244 13.4599 31.3424 14.3217C31.2298 14.0663 31.1159 13.8115 31.0021 13.5567C30.8162 13.1405 30.6303 12.7244 30.4496 12.3059C30.4207 12.2377 30.3888 12.1709 30.3569 12.1042C30.2984 11.9817 30.24 11.8592 30.1998 11.7286C29.9213 11.7258 29.6429 11.7263 29.3644 11.7269Z" fill="#010101"/>
</svg>
