<svg width="24" height="24" viewBox="0 0 24 24" fill="none" xmlns="http://www.w3.org/2000/svg">
<path d="M3.31025 17.7278C2.94386 13.503 2.86233 10.5072 3.2825 6.23274C3.38504 5.18961 4.27015 4.36779 5.37856 4.27788C7.66111 4.09273 9.59413 4.00006 11.5232 4C12.1144 3.99998 12.6807 4.23163 13.1102 4.63656L14.1228 5.59132C14.5597 6.00332 15.138 6.23358 15.7395 6.2351L17.572 6.23972C18.7193 6.24261 19.6927 7.06449 19.8647 8.17285C15.4507 7.92582 12.1668 7.94367 7.55997 8.22578C6.36702 8.29883 5.4144 8.96656 5.30404 9.8141C4.85183 13.2871 4.93958 15.7212 5.33392 19.1539C5.35776 19.3614 5.43134 19.559 5.54623 19.7403C5.50537 19.7371 5.46441 19.7338 5.42333 19.7305C4.29472 19.6399 3.40245 18.7909 3.31025 17.7278Z" fill="#404148"/>
<path fill-rule="evenodd" clip-rule="evenodd" d="M8.09873 9.19104C12.119 8.93695 14.9104 8.93621 18.8984 9.18948C19.2905 9.21438 19.6506 9.32018 19.9474 9.48416C20.3945 9.73118 20.6979 10.1102 20.7502 10.5435C21.1012 13.4534 21.0688 15.5079 20.7378 18.4421C20.6555 19.1711 19.8682 19.7517 18.8748 19.8135C16.4673 19.9632 14.4989 20.0226 12.4521 19.9923C11.0983 19.9723 9.71024 19.913 8.13823 19.8147C7.1424 19.7524 6.3551 19.1687 6.27375 18.4379C5.95047 15.5333 5.87852 13.4737 6.24926 10.535C6.33974 9.81786 7.12072 9.25286 8.09873 9.19104ZM9.75 11C9.33579 11 9 11.3358 9 11.75C9 12.1642 9.33579 12.5 9.75 12.5H12.75C13.1642 12.5 13.5 12.1642 13.5 11.75C13.5 11.3358 13.1642 11 12.75 11H9.75Z" fill="#404148"/>
</svg>
