<svg width="24" height="24" viewBox="0 0 24 24" fill="none" xmlns="http://www.w3.org/2000/svg">
<path d="M3.95371 8.61072L10.4177 3.54689C11.3485 2.8177 12.6519 2.8177 13.5827 3.54689L20.0466 8.61072C20.7845 9.18877 20.9895 10.0491 20.9998 11.0435C21.0003 11.0974 20.9986 11.1495 20.9945 11.2033C20.9527 11.7548 20.6636 15.1249 19.5951 18.9084C19.2175 19.9615 18.3291 21 17.1068 21H6.89353C5.67128 21 4.78287 19.9615 4.40528 18.9084C3.33681 15.1249 3.04767 11.7548 3.00586 11.2033C3.00178 11.1495 3.00003 11.0974 3.00059 11.0435C3.01086 10.0491 3.21583 9.18877 3.95371 8.61072Z" stroke="#D5D9D1" stroke-width="1.5" stroke-linecap="round"/>
</svg>
