<svg width="50" height="50" viewBox="0 0 50 50" fill="none" xmlns="http://www.w3.org/2000/svg">
<g clip-path="url(#clip0_1_1967)">
<rect width="50" height="50" rx="25" fill="#E0EDF0"/>
<path d="M22.318 27.0036L20.0483 37.8005L28.5503 37.6262L27.483 26.1331L22.318 27.0036Z" fill="url(#paint0_radial_1_1967)"/>
<path d="M42.0001 48.1997C40.7176 49.1959 39.3495 50.0845 37.9106 50.8556C33.755 53.0862 28.9714 54.3562 23.8824 54.3562C22.4707 54.3574 21.0608 54.2586 19.664 54.0608C19.49 54.0361 19.3158 54.0111 19.1415 53.9835C15.0964 53.3401 11.2404 51.868 7.83222 49.6658C7.81479 49.6548 7.79496 49.6411 7.77783 49.6301C7.98818 46.4882 8.37883 42.7805 9.04864 41.9001C9.16024 41.7556 9.28769 41.6232 9.42877 41.5053L9.53154 41.4167C9.5658 41.392 9.59975 41.3644 9.63701 41.3339C9.67999 41.3008 9.72566 41.2677 9.77134 41.2346C9.87681 41.1573 9.9913 41.0829 10.1112 41.0022L10.1797 40.9606C10.2425 40.9194 10.311 40.8779 10.3768 40.8366C10.4595 40.7869 10.5481 40.7344 10.6395 40.6847C10.7224 40.6376 10.8023 40.5909 10.8907 40.5438C11.6963 40.1081 12.6699 39.6686 13.7097 39.2517C13.8437 39.1966 13.978 39.1414 14.1123 39.0891C14.2467 39.0368 14.3828 38.9842 14.5177 38.9316C14.6607 38.8764 14.7978 38.8239 14.9318 38.7742C14.966 38.7605 14.9976 38.7451 15.0319 38.7356C15.1346 38.6969 15.2404 38.6583 15.3432 38.6194C15.4231 38.5903 15.5057 38.5613 15.5857 38.5322C15.6972 38.4907 15.8086 38.4494 15.9228 38.4108C16.3856 38.2452 16.8427 38.0823 17.288 37.9332C17.4983 37.8615 17.7051 37.7897 17.9049 37.7232C17.9136 37.7206 17.922 37.7206 17.9305 37.7177C17.9443 37.7119 17.9587 37.7073 17.9734 37.7041C18.1162 37.6544 18.2589 37.6102 18.3959 37.5632C18.3989 37.5632 18.3989 37.5632 18.4019 37.5606C18.6673 37.4749 18.9245 37.3921 19.17 37.3119H19.1727C19.4041 37.2375 19.6298 37.1667 19.8413 37.0993C19.8533 37.0947 19.8657 37.0911 19.8783 37.0885C19.884 37.0856 19.8867 37.0856 19.8924 37.083C20.0069 37.047 20.1154 37.0139 20.2212 36.9808C20.2326 36.9779 20.2437 36.9723 20.2512 36.9697H20.2539C20.354 36.9407 20.4483 36.909 20.5397 36.8785C21.2335 36.6633 21.7218 36.5169 21.8919 36.4617L24.3909 36.4977L24.448 36.5003L25.0619 36.5087L27.1696 36.5378C27.1696 36.5378 27.6693 36.6249 28.4719 36.7806C28.4804 36.7835 28.4861 36.7835 28.4945 36.7864C28.5606 36.7975 28.6288 36.8111 28.6946 36.8251C28.706 36.8277 28.7147 36.8277 28.7316 36.8306C29.0744 36.8968 29.457 36.9758 29.8735 37.0679C30.0619 37.1065 30.2506 37.1481 30.4504 37.1919C30.7309 37.2557 31.0194 37.322 31.3159 37.3909C31.3585 37.3991 31.3958 37.4075 31.4361 37.42H31.4388C31.4532 37.4226 31.4616 37.4255 31.476 37.4281C31.6674 37.4725 31.8586 37.5222 32.0557 37.569C32.2471 37.6131 32.4355 37.6602 32.6296 37.7099C32.6482 37.7161 32.6673 37.7207 32.6867 37.7235C32.8724 37.7706 33.0608 37.8203 33.2496 37.8688C33.5552 37.9489 33.8605 38.0317 34.1607 38.12C35.3714 38.4622 36.5538 38.8462 37.5476 39.2628C37.696 39.3238 37.8388 39.3845 37.9788 39.4507C38.0729 39.492 38.1702 39.5361 38.2586 39.5832C38.3328 39.6163 38.4073 39.6523 38.4785 39.691C38.6186 39.7627 38.7556 39.8345 38.8842 39.9117C38.947 39.9474 39.0071 39.9864 39.0696 40.0247C39.127 40.0607 39.1811 40.0939 39.2355 40.1299C39.3957 40.2356 39.5475 40.3528 39.6895 40.4805C40.9035 41.5797 41.6031 45.0195 42.0001 48.1997Z" fill="#F8C5A5"/>
<path d="M42.0001 48.1997C40.7176 49.196 39.3495 50.0845 37.9106 50.8556C33.755 53.0862 28.9714 54.3562 23.8824 54.3562C22.4707 54.3574 21.0608 54.2587 19.664 54.0608C19.49 54.0361 19.3158 54.0111 19.1415 53.9835C15.0964 53.3402 11.2404 51.868 7.83222 49.6658C7.81479 49.6548 7.79496 49.6411 7.77783 49.6301C7.98818 46.4882 8.37883 42.7805 9.04864 41.9001C9.16024 41.7556 9.28769 41.6233 9.42877 41.5053L9.53154 41.4167C9.5658 41.392 9.59975 41.3644 9.63701 41.3339C9.67999 41.3008 9.72566 41.2677 9.77134 41.2346C9.87681 41.1573 9.9913 41.083 10.1112 41.0022L10.1797 40.9607C10.2425 40.9194 10.311 40.8779 10.3768 40.8366C10.4595 40.787 10.5481 40.7344 10.6395 40.6847C10.7224 40.6376 10.8023 40.5909 10.8907 40.5438C11.6963 40.1081 12.6699 39.6686 13.7097 39.2518C13.8437 39.1966 13.978 39.1414 14.1123 39.0891C14.2467 39.0368 14.3828 38.9842 14.5177 38.9316C14.6607 38.8765 14.7978 38.8239 14.9318 38.7742C14.966 38.7606 14.9976 38.7452 15.0319 38.7356C15.1346 38.6969 15.2404 38.6583 15.3432 38.6194C15.4231 38.5903 15.5057 38.5613 15.5857 38.5322C15.6972 38.4907 15.8086 38.4494 15.9228 38.4108C16.3856 38.2452 16.8427 38.0823 17.288 37.9333C17.4983 37.8615 17.7051 37.7898 17.9049 37.7232C17.9136 37.7206 17.922 37.7206 17.9305 37.7177C17.9443 37.7119 17.9587 37.7073 17.9734 37.7041C18.1162 37.6544 18.2589 37.6102 18.3959 37.5632C18.3989 37.5632 18.3989 37.5632 18.4019 37.5606C18.6673 37.4749 18.9245 37.3921 19.17 37.3119H19.1727L19.3641 37.2829C19.3641 39.8725 20.4408 42.9423 20.5751 43.315C20.5782 43.3179 20.5782 43.3179 20.5782 43.3205C20.5782 43.3231 20.5782 43.3234 20.5809 43.326C20.5836 43.3345 20.5866 43.3455 20.5896 43.3536C20.5896 43.351 20.5896 43.351 20.5923 43.3481V43.3455C20.9799 42.595 21.4398 41.8814 21.9659 41.2143C22.4199 40.6426 22.9713 40.0523 23.6081 39.5687C24.5333 38.8674 26.3811 38.1662 28.0062 37.6364L28.5374 37.465C29.0288 37.3134 29.4882 37.178 29.8768 37.0676C30.0652 37.1063 30.2539 37.1478 30.4537 37.1917C30.7342 37.2554 31.0227 37.3217 31.3192 37.3906C31.3618 37.3988 31.3991 37.4072 31.4394 37.4197H31.4421C31.4565 37.4223 31.4649 37.4252 31.4793 37.4278C31.6707 37.4723 31.8619 37.5219 32.059 37.5687C32.2504 37.6129 32.4388 37.6599 32.6329 37.7096C32.6515 37.7158 32.6706 37.7204 32.69 37.7232C32.8757 37.7703 33.0641 37.82 33.2529 37.8685C33.5585 37.9487 33.8638 38.0314 34.164 38.1198C35.3747 38.4619 36.5571 38.846 37.5509 39.2625C37.6993 39.3235 37.8421 39.3842 37.9821 39.4504C38.0762 39.4917 38.1735 39.5358 38.2619 39.5829C38.3361 39.616 38.4106 39.652 38.4818 39.6907C38.6219 39.7624 38.7589 39.8342 38.8875 39.9114C38.9503 39.9472 39.0104 39.9861 39.0729 40.0244C39.1303 40.0605 39.1844 40.0936 39.2388 40.1296C39.399 40.2353 39.5508 40.3525 39.6928 40.4802C40.9035 41.5797 41.6031 45.0196 42.0001 48.1997Z" fill="#65A3B3"/>
<path d="M32.6589 14.5686C32.5892 17.0086 31.2931 21.5692 31.2931 21.5692C31.2931 21.5692 30.5641 23.7365 29.757 26.024C28.9847 28.2221 28.1427 30.5323 27.807 31.1475C27.1243 32.4004 23.0249 34.3161 22.0008 34.7803C20.9767 35.2445 16.6033 34.7123 15.9211 33.9853C15.331 33.3587 13.384 27.3152 13.2828 24.4601C13.2656 23.993 13.2972 23.6127 13.3927 23.3525C14.0755 21.5012 14.2942 19.18 14.226 18.2542C14.171 17.5132 14.1942 15.2062 15.0533 12.6166C15.2946 11.8895 15.7101 11.2279 16.266 10.6855C16.822 10.1431 17.5026 9.73531 18.2524 9.49534C19.2476 9.17959 20.6263 8.85803 22.5195 8.60618C26.0374 8.14141 29.4481 9.9424 29.4481 9.9424C29.4481 9.9424 32.7289 12.1242 32.6589 14.5686Z" fill="#F8C5A5"/>
<g style="mix-blend-mode:multiply" opacity="0.3">
<path d="M29.7578 26.0233C28.9855 28.2214 28.1435 30.5316 27.8079 31.1468C27.1252 32.3996 23.0258 34.3154 22.0017 34.7796C20.9776 35.2437 16.6032 34.7125 15.9211 33.9854C15.3309 33.3588 13.384 27.3153 13.2827 24.4602C19.8008 26.8485 27.7854 24.4852 29.1364 23.8028C29.6307 23.5542 29.7783 24.5802 29.7578 26.0233Z" fill="#9DC4E1"/>
</g>
<path d="M26.0146 21.8341C25.545 21.9261 25.0696 21.9877 24.5915 22.0185C24.2439 22.0436 23.8952 22.0501 23.5469 22.038C22.948 22.0185 22.3149 21.9375 21.7476 21.7417C21.7476 21.7417 22.1082 20.3712 22.2915 20.2454C22.3609 20.1981 22.8297 20.2062 23.4033 20.2454C23.8841 20.2817 24.4331 20.3378 24.8787 20.4049C25.2664 20.463 25.5759 20.5278 25.6901 20.5894C26.0871 20.8075 26.0146 21.8341 26.0146 21.8341Z" fill="white"/>
<path d="M19.5417 19.6304C19.6141 21.8799 18.1675 24.3362 17.8781 24.8099C17.5887 25.2837 20.4095 25.7868 21.5667 25.047C20.265 25.4316 18.566 24.8707 18.529 24.7214C18.492 24.572 20.1565 22.4422 19.5417 19.6304Z" fill="#DE9B88"/>
<path d="M25.1467 21.0987C25.1469 21.2859 25.0956 21.4698 24.998 21.6315C24.9004 21.7931 24.76 21.9268 24.5914 22.0187C24.2438 22.0438 23.8951 22.0503 23.5468 22.0382C23.3811 21.9556 23.24 21.8335 23.1369 21.6834C23.0338 21.5333 22.9722 21.3601 22.9578 21.1805C22.9435 21.0008 22.9769 20.8206 23.055 20.657C23.1331 20.4933 23.2531 20.3517 23.4038 20.2456C23.8846 20.2819 24.4336 20.338 24.8792 20.4051C25.0518 20.5977 25.1468 20.844 25.1467 21.0987Z" fill="#65A3B3"/>
<path d="M18.5244 21.6916C18.3189 21.6997 18.1224 21.7026 17.9312 21.7026H17.8504C17.3997 21.7026 16.9997 21.6802 16.6469 21.6494C15.6721 21.5684 15.1021 21.417 15.1021 21.417C15.1021 21.417 15.2959 20.0808 15.5792 20.0245C15.7067 19.9992 16.2475 19.9768 16.8263 19.9797C17.1908 19.9824 17.5667 19.9937 17.8648 20.0216C18.1425 20.0468 18.3507 20.0832 18.4117 20.1378C18.6401 20.3489 18.5244 21.6916 18.5244 21.6916Z" fill="white"/>
<path d="M21.585 17.9094C23.7468 17.8269 27.7007 18.4105 27.7007 18.4105C27.7007 18.4105 27.5096 16.8582 27.0847 16.4465C26.6598 16.0349 22.0853 15.5925 22.0853 15.5925C22.0853 15.5925 21.5628 17.2428 21.585 17.9094ZM19.2868 15.996C19.2868 15.996 18.9794 17.9687 18.827 18.4459C16.7671 18.1406 13.5683 18.5682 13.5791 18.4639C13.5899 18.3597 13.8147 17.1858 14.2384 16.7359C14.6621 16.2859 19.2868 15.996 19.2868 15.996Z" fill="#64503F"/>
<path d="M17.9863 27.3211C20.988 27.7405 24.6403 26.2373 24.6403 26.2373C24.6403 26.2373 21.0598 29.2086 17.9863 27.3211Z" fill="#DE9B88"/>
<path d="M18.276 20.8886C18.2781 21.0396 18.2487 21.1895 18.1895 21.3292C18.1304 21.469 18.0426 21.5957 17.9316 21.702H17.8508C17.4 21.702 16.9974 21.677 16.6473 21.6439C16.4598 21.4343 16.358 21.1657 16.3609 20.8886C16.3609 20.5028 16.546 20.1644 16.8267 19.98C17.1912 19.9826 17.5671 19.9939 17.8652 20.0218C18.1152 20.2121 18.276 20.5278 18.276 20.8886Z" fill="#65A3B3"/>
<path d="M22.2051 20.0485V20.3282C22.2051 20.3282 25.507 20.4691 25.9177 20.9353C26.0626 20.0964 22.2051 20.0485 22.2051 20.0485ZM15.5791 20.0247C16.8517 19.8751 18.4924 20.2129 18.4924 20.2129L18.5408 19.8867C18.5408 19.8867 15.6236 19.4437 15.5791 20.0247Z" fill="#64413F"/>
<path d="M34.7892 12.5858C34.7738 12.8584 34.7429 13.1299 34.6966 13.3992V13.4021C34.5665 14.2354 34.306 15.2701 34.0487 16.3664C33.9907 16.6098 33.9331 16.853 33.8781 17.099V17.1019C33.7332 17.734 33.6001 18.3742 33.4988 18.9979C33.4643 19.1966 33.4354 19.3924 33.4123 19.5882C33.3023 20.4131 33.2705 21.1875 33.3687 21.8449C33.8026 24.7337 30.0419 24.6414 30.0419 24.6414L29.7414 24.0261L29.1365 23.8025C29.9752 22.4886 30.3253 21.3363 30.3755 20.2932C30.3812 20.145 30.3812 20.0027 30.3785 19.8624C30.358 19.2137 30.2249 18.6066 30.0254 18.028C29.9761 17.874 29.9184 17.7204 29.8574 17.5693C29.7796 17.3761 29.6954 17.1833 29.6089 16.9959C29.3282 16.3975 29.2008 15.6306 29.1545 14.8649C29.1431 14.7139 29.1371 14.5628 29.1371 14.4147C29.0995 12.9623 29.3195 11.6377 29.3195 11.6377C29.3195 11.6377 28.7407 11.9035 27.7689 12.2698C27.6415 12.32 27.5057 12.3703 27.3609 12.4234C26.5654 12.7171 25.5645 13.0555 24.4331 13.3745C24.2886 13.4134 24.144 13.4526 23.9935 13.4947C19.9509 14.5797 14.4746 15.321 10.7529 12.9408C11.5042 12.2346 12.5129 11.5119 13.6762 10.8072C13.6789 10.8043 13.6789 10.8043 13.6819 10.8043C13.9565 10.6364 14.2402 10.4688 14.5296 10.3038C14.5296 10.3038 14.5296 10.3009 14.5323 10.3009C15.4037 9.8088 16.3377 9.32486 17.3011 8.86357C17.8681 8.58936 18.4466 8.32095 19.028 8.06649L19.0311 8.06359C21.6087 6.9188 24.221 5.95789 26.2 5.35369C26.4603 5.27555 26.7091 5.20263 26.9462 5.13844C28.1265 4.80555 28.9947 4.64055 29.3649 4.6911C31.1006 4.92581 32.2578 9.26066 32.2578 9.26066C32.2578 9.26066 32.6917 7.25634 32.9811 7.48872C33.2705 7.72111 32.5961 9.40155 32.5961 9.40155C32.5961 9.40155 33.4643 9.3542 33.8026 9.54127C34.141 9.72834 32.6454 10.0531 32.6454 10.0531C32.6454 10.0531 34.4767 10.3328 34.766 12.0574C34.7923 12.2323 34.8001 12.4094 34.7892 12.5858Z" fill="#64503F"/>
<path d="M24.432 13.3745C24.2874 13.4134 24.1429 13.4526 23.9923 13.4947C21.9036 10.6506 16.9997 10.3654 13.6816 10.8043C13.9563 10.6364 14.24 10.4688 14.5293 10.3038C14.5293 10.3038 14.5293 10.3009 14.5321 10.3009C17.9544 10.0211 22.4676 10.5388 24.432 13.3745ZM27.7678 12.2697C27.6404 12.32 27.5046 12.3703 27.3597 12.4234C25.4185 8.76567 22.0424 7.5715 17.3008 8.86502C17.8679 8.5908 18.4463 8.3224 19.0278 8.06793L19.0308 8.06503C23.0551 7.46518 25.9825 8.8746 27.7678 12.2697ZM30.4437 10.4714C30.4437 10.4714 30.6793 8.79356 28.8902 6.7689C28.2417 6.03514 27.2584 5.61656 26.1998 5.35367C26.46 5.27554 26.7088 5.20262 26.9459 5.13843C27.8141 5.43472 28.5776 5.88235 29.194 6.4697C30.3307 7.55465 30.7881 9.01171 30.4437 10.4714ZM34.7889 12.5858C34.7736 12.8583 34.7427 13.1299 34.6964 13.3991V13.402C34.346 13.7686 33.9426 14.0841 33.4986 14.3389C32.9231 14.6717 31.951 15.0967 30.7244 15.0967C30.1917 15.0953 29.6622 15.0169 29.1534 14.8643C29.142 14.7133 29.136 14.5622 29.136 14.4141C31.0078 15.0293 32.5181 14.417 33.2729 13.9807C33.9761 13.5728 34.492 13.0555 34.7889 12.5858ZM34.0485 16.3667C33.9905 16.6101 33.9328 16.8533 33.8778 17.0993V17.1022C33.0464 17.757 32.0053 18.1119 30.9329 18.1061C30.6283 18.1062 30.3243 18.0801 30.0245 18.028C29.9753 17.874 29.9176 17.7203 29.8566 17.5693C30.9648 17.8043 32.015 17.6837 32.9234 17.214C33.3447 16.9942 33.725 16.7078 34.0485 16.3667ZM33.4986 18.9982C33.464 19.1969 33.4352 19.3926 33.412 19.5884C32.7726 20.0242 31.9624 20.3631 31.0682 20.3631C30.8349 20.3629 30.6023 20.3394 30.374 20.2931C30.3797 20.145 30.3797 20.0027 30.377 19.8624C31.6184 20.1476 32.7407 19.6189 33.4986 18.9982Z" fill="#705A47"/>
<path d="M29.7395 24.0258C31.2008 22.219 33.7157 21.9233 33.4438 24.0586C33.1718 26.1939 28.9453 30.012 28.9931 27.3105C29.0261 25.3396 29.7395 24.0258 29.7395 24.0258Z" fill="#F8C5A5"/>
<path d="M32.39 24.2229C31.7106 22.7124 29.5696 25.5699 30.2493 26.8181C30.3172 25.5371 31.5745 23.7303 32.39 24.2229Z" fill="#DE9B88"/>
<path d="M20.5894 43.3539C21.9374 38.7657 25.7681 35.0374 25.7681 35.0374L29.6842 34.2092L30.4559 37.1933C30.4559 37.1933 24.7486 37.6779 20.5894 43.3539Z" fill="#65A3B3"/>
<path d="M20.5894 43.354C19.4475 39.9643 20.2633 36.9291 20.2633 36.9291L20.5488 35.2341L18.2244 35.6283C18.2244 35.6283 18.143 39.6489 20.5894 43.354Z" fill="#4B7C87"/>
<path d="M26.1357 35.3131C26.1357 35.3131 25.6988 35.7436 25.0647 36.5084C24.7792 36.848 24.4565 37.2564 24.1136 37.7174C23.4141 38.6673 22.6373 39.8597 21.966 41.2154C21.8061 41.5384 21.652 41.8725 21.5035 42.2147C21.2436 42.8184 21.0195 43.436 20.8322 44.0645C19.7585 47.7001 19.644 52.0123 19.6642 54.0608C19.4902 54.0361 19.3159 54.0111 19.1416 53.9835C19.2101 52.1506 19.4788 47.5058 20.4923 43.7165C20.5239 43.595 20.5551 43.4736 20.5897 43.3548C20.5897 43.3522 20.5897 43.3522 20.5924 43.3493V43.3467C20.5951 43.3382 20.5981 43.3301 20.6008 43.3217C21.2379 41.0911 22.3774 39.1614 23.4255 37.7314C23.7654 37.2649 24.0935 36.8506 24.3937 36.4974C25.1218 35.6358 25.6729 35.1226 25.7559 35.0479L25.7673 35.0369L26.1357 35.3131Z" fill="#71B4C7"/>
<path d="M18.2246 35.6282L17.7354 35.7464C17.7354 35.7464 17.98 41.0677 20.5901 43.827C20.7533 43.6298 20.5919 43.3477 20.5919 43.3477C20.5919 43.3477 18.3063 40.0046 18.2246 35.6282Z" fill="#71B4C7"/>
</g>
<defs>
<radialGradient id="paint0_radial_1_1967" cx="0" cy="0" r="1" gradientUnits="userSpaceOnUse" gradientTransform="translate(22.8604 31.8091) scale(6.82733 4.55156)">
<stop stop-color="#E5A691"/>
<stop offset="0.46" stop-color="#EFB69C"/>
<stop offset="1" stop-color="#F8C5A5"/>
</radialGradient>
<clipPath id="clip0_1_1967">
<rect width="50" height="50" rx="25" fill="white"/>
</clipPath>
</defs>
</svg>
