<svg width="322" height="68" viewBox="0 0 322 68" fill="none" xmlns="http://www.w3.org/2000/svg">
<path d="M0 34C0 15.2223 15.2223 0 34 0H95C107.381 0 118.217 6.61799 124.162 16.5095C125.505 18.744 130.495 18.744 131.838 16.5095C137.783 6.61799 148.619 0 161 0C173.381 0 184.217 6.61799 190.162 16.5095C191.505 18.744 196.495 18.744 197.838 16.5095C203.783 6.61799 214.619 0 227 0H288C306.778 0 322 15.2223 322 34C322 52.7777 306.778 68 288 68H227C214.619 68 203.783 61.382 197.838 51.4905C196.495 49.256 191.505 49.256 190.162 51.4905C184.217 61.382 173.381 68 161 68C148.619 68 137.783 61.382 131.838 51.4905C130.495 49.256 125.505 49.256 124.162 51.4905C118.217 61.382 107.381 68 95 68H34C15.2223 68 0 52.7777 0 34Z" fill="#0060AF"/>
</svg>
