<svg width="24" height="24" viewBox="0 0 24 24" fill="none" xmlns="http://www.w3.org/2000/svg">
<path fill-rule="evenodd" clip-rule="evenodd" d="M12 3C8.29455 3 5.37738 6.05891 5.35992 9.68718C5.34921 11.9146 5.26537 14.2562 5.02029 15.8518C4.87691 16.7853 5.50461 17.7833 6.55356 17.8959C7.11313 17.956 7.64735 18.0079 8.16314 18.0516C8.60058 19.7467 10.1525 21 12 21C13.8471 21 15.3988 19.7472 15.8365 18.0524C16.3528 18.0087 16.8873 17.9567 17.4472 17.8963C18.496 17.7833 19.1231 16.7854 18.9797 15.8524C18.7346 14.2567 18.6507 11.9149 18.64 9.68718C18.6225 6.05891 15.7054 3 12 3ZM12 19.6154C10.9755 19.6154 10.0914 19.0197 9.68138 18.1589C11.2682 18.2472 12.7332 18.2475 14.3182 18.1597C13.908 19.0201 13.0241 19.6154 12 19.6154Z" fill="white"/>
</svg>
