<svg width="24" height="24" viewBox="0 0 24 24" fill="none" xmlns="http://www.w3.org/2000/svg">
<path d="M14.0747 10.6159C14.9667 10.6159 15.6898 9.89272 15.6898 9.00056C15.6898 8.10841 14.9667 7.38518 14.0747 7.38518C13.1828 7.38518 12.4597 8.10841 12.4597 9.00056C12.4597 9.89272 13.1828 10.6159 14.0747 10.6159Z" fill="#404148"/>
<path fill-rule="evenodd" clip-rule="evenodd" d="M5.95753 3.29112C10.45 2.90394 13.582 2.90276 18.0396 3.28878C19.4618 3.41195 20.5945 4.53805 20.7206 5.96276C21.0532 9.72317 21.0781 12.5558 20.8523 16.0562C20.8118 16.684 20.7633 17.3328 20.7072 18.0117C20.5883 19.4483 19.4505 20.5939 18.0122 20.7158C13.5429 21.0948 10.4153 21.094 6.00191 20.7176C4.55942 20.5946 3.42293 19.4427 3.30554 18.0045C3.24998 17.3239 3.20101 16.6728 3.15947 16.0419C2.93158 12.581 2.92812 9.74031 3.27906 5.94713C3.41038 4.52771 4.54308 3.41303 5.95753 3.29112ZM17.9202 4.66824C13.5426 4.28915 10.4904 4.29021 6.07638 4.67063C5.32413 4.73546 4.72663 5.32764 4.65751 6.07471C4.3347 9.56387 4.31806 12.2178 4.50283 15.3436L8.25064 11.595C8.79126 11.0543 9.66778 11.0543 10.2084 11.595L13.0563 14.4435C13.2365 14.6237 13.5286 14.6237 13.7088 14.4435L15.1724 12.9797C15.713 12.4389 16.5895 12.4389 17.1301 12.9797L19.5079 15.3579C19.6881 12.2034 19.6485 9.55441 19.3416 6.0848C19.275 5.33154 18.6753 4.73363 17.9202 4.66824Z" fill="#404148"/>
</svg>
