<svg width="20" height="20" viewBox="0 0 20 20" fill="none" xmlns="http://www.w3.org/2000/svg">
<path d="M1.95371 6.61072L8.41767 1.54689C9.34848 0.817703 10.6519 0.817703 11.5827 1.54689L18.0466 6.61072C18.7845 7.18877 18.9895 8.04912 18.9998 9.04354C19.0003 9.09745 18.9986 9.14954 18.9945 9.2033C18.9527 9.75484 18.6636 13.1249 17.5951 16.9084C17.2175 17.9615 16.3291 19 15.1068 19H4.89353C3.67128 19 2.78287 17.9615 2.40528 16.9084C1.33681 13.1249 1.04767 9.75483 1.00586 9.2033C1.00178 9.14954 1.00003 9.09745 1.00059 9.04354C1.01086 8.04913 1.21583 7.18877 1.95371 6.61072Z" stroke="#7A7A7A" stroke-width="1.5" stroke-linecap="round"/>
</svg>
