<svg width="327" height="106" viewBox="0 0 327 106" fill="none" xmlns="http://www.w3.org/2000/svg">
<path d="M0 78C0 89.2357 0 94.8535 2.69649 98.8891C3.86382 100.636 5.36383 102.136 7.11088 103.304C11.1465 106 16.7643 106 28 106H299C310.236 106 315.854 106 319.889 103.304C321.636 102.136 323.136 100.636 324.304 98.8891C327 94.8535 327 89.2357 327 78V28C327 16.7643 327 11.1465 324.304 7.11088C323.136 5.36383 321.636 3.86382 319.889 2.69649C315.854 0 310.236 0 299 0H208.163C203.427 0 199.057 2.54648 196.722 6.66667L193.36 12.5996C187.266 23.3535 175.861 30 163.5 30C151.139 30 139.734 23.3535 133.64 12.5996L130.278 6.66666C127.943 2.54648 123.573 0 118.837 0H28C16.7643 0 11.1465 0 7.11088 2.69649C5.36383 3.86382 3.86382 5.36383 2.69649 7.11088C0 11.1465 0 16.7643 0 28V78Z" fill="#B5B5B5"/>
</svg>
