<svg width="24" height="24" viewBox="0 0 24 24" fill="none" xmlns="http://www.w3.org/2000/svg">
<path d="M21 20.3247C21 20.6938 20.694 21 20.325 21H3.675C3.306 21 3 20.6938 3 20.3247C3 19.9555 3.306 19.6493 3.675 19.6493H20.325C20.694 19.6493 21 19.9555 21 20.3247Z" fill="white"/>
<path d="M15.051 5.26013L5.385 14.931C5.016 15.3001 4.422 15.3001 4.062 14.931H4.053C2.802 13.6703 2.802 11.6353 4.053 10.3837L10.488 3.94547C11.748 2.68484 13.782 2.68484 15.042 3.94547C15.411 4.29665 15.411 4.89995 15.051 5.26013Z" fill="white"/>
<path d="M19.938 8.83492L17.193 6.08854C16.824 5.71936 16.23 5.71936 15.87 6.08854L6.204 15.7594C5.835 16.1196 5.835 16.7139 6.204 17.083L8.949 19.8384C10.209 21.09 12.243 21.09 13.503 19.8384L19.929 13.4002C21.207 12.1396 21.207 10.0955 19.938 8.83492ZM12.684 16.966L11.595 18.0645C11.37 18.2896 11.001 18.2896 10.767 18.0645C10.542 17.8394 10.542 17.4702 10.767 17.2361L11.865 16.1376C12.081 15.9215 12.459 15.9215 12.684 16.1376C12.909 16.3627 12.909 16.7499 12.684 16.966ZM16.257 13.3912L14.061 15.5973C13.836 15.8134 13.467 15.8134 13.233 15.5973C13.008 15.3722 13.008 15.003 13.233 14.7689L15.438 12.5628C15.654 12.3467 16.032 12.3467 16.257 12.5628C16.482 12.7969 16.482 13.1661 16.257 13.3912Z" fill="white"/>
</svg>
