<svg width="24" height="24" viewBox="0 0 24 24" fill="none" xmlns="http://www.w3.org/2000/svg">
<path fill-rule="evenodd" clip-rule="evenodd" d="M5.51901 3.31262C4.34515 3.41376 3.40777 4.33831 3.29918 5.51183C2.8542 10.3205 2.94055 13.6909 3.32857 18.4438C3.42621 19.6397 4.37117 20.5949 5.56642 20.6968C10.3059 21.1009 13.6523 21.1019 18.453 20.6948C19.6454 20.5937 20.5904 19.6437 20.6891 18.4508C21.0864 13.6493 21.1253 10.2873 20.704 5.52576C20.5996 4.34603 19.661 3.41219 18.4814 3.31005C13.6947 2.89562 10.3443 2.89683 5.51901 3.31262ZM16.305 9.75451C16.5836 9.44802 16.561 8.97368 16.2545 8.69505C15.948 8.41642 15.4737 8.43901 15.1951 8.7455L10.7583 13.6259L8.81239 11.4205C8.53833 11.1099 8.06439 11.0802 7.75379 11.3543C7.4432 11.6283 7.41358 12.1023 7.68763 12.4129L10.0399 15.0788C10.4143 15.5032 11.0745 15.5081 11.4552 15.0893L16.305 9.75451Z" fill="#2883FF"/>
</svg>
