<svg width="50" height="16" viewBox="0 0 50 16" fill="none" xmlns="http://www.w3.org/2000/svg">
<path fill-rule="evenodd" clip-rule="evenodd" d="M7.36746 11.6816C7.36746 11.0682 7.37424 9.42867 7.35884 9.22666C7.37226 6.78697 5.56613 5.06598 4.4251 5.20015C3.63555 5.26744 2.9737 5.58364 2.61855 6.49325C2.28911 7.34098 2.58366 8.46856 3.67849 8.73314C4.84905 9.01729 5.53279 9.25371 6.02752 9.58726C6.63371 9.99558 7.12857 10.7757 7.14171 11.6826" fill="#0060AF"/>
<path fill-rule="evenodd" clip-rule="evenodd" d="M6.87815 11.6825C6.88197 10.8962 6.43513 10.2009 5.85113 9.8273C5.33309 9.49709 4.63762 9.28023 3.51566 9.00066C3.16885 8.91353 2.80607 8.71998 2.69376 8.47329C2.39667 8.76729 2.3427 9.42827 2.39497 9.81467C2.45572 10.2616 2.9876 10.9983 3.78845 11.0272C4.27753 11.0464 4.89586 10.9238 5.19239 10.8619C5.70392 10.7534 6.51326 11.0681 6.64209 11.6815" fill="#0060AF"/>
<path fill-rule="evenodd" clip-rule="evenodd" d="M7.78109 1.39777C6.42307 1.39777 5.25025 2.27727 5.25435 3.79916C5.25858 5.07894 6.30652 5.76407 6.6806 6.25342C7.24568 6.99085 7.55153 7.86369 7.58317 9.19925C7.60803 10.2622 7.60676 11.3118 7.61227 11.6837H7.9119C7.90682 11.2946 7.89326 10.1803 7.90865 9.16636C7.929 7.83039 8.24586 6.99085 8.81122 6.25342C9.18855 5.76407 10.2355 5.07894 10.2378 3.79916C10.243 2.27727 9.07059 1.39777 7.71398 1.39777" fill="#0060AF"/>
<path fill-rule="evenodd" clip-rule="evenodd" d="M8.12574 11.6816C8.12574 11.0682 8.11868 9.42867 8.1338 9.22666C8.12052 6.78697 9.92551 5.06598 11.0675 5.20015C11.8571 5.26744 12.5181 5.58364 12.8744 6.49325C13.2034 7.34098 12.9073 8.46856 11.8139 8.73314C10.6425 9.01729 9.9597 9.25371 9.4637 9.58726C8.85822 9.99558 8.39797 10.7757 8.38384 11.6826" fill="#0060AF"/>
<path fill-rule="evenodd" clip-rule="evenodd" d="M8.61466 11.6825C8.61043 10.8962 9.05712 10.2009 9.63943 9.8273C10.1597 9.49709 10.8559 9.28023 11.9769 9.00066C12.3244 8.91353 12.6868 8.71998 12.7971 8.47329C13.0956 8.76729 13.1495 9.42827 13.0971 9.81467C13.0353 10.2616 12.5047 10.9983 11.7052 11.0272C11.2164 11.0464 10.5947 10.9238 10.2994 10.8619C9.78988 10.7534 8.97829 11.0681 8.84889 11.6815" fill="#0060AF"/>
<path fill-rule="evenodd" clip-rule="evenodd" d="M9.03346 14.2209L8.85984 12.9757L9.27927 12.9133C9.38127 12.8997 9.50558 12.9171 9.55531 12.9799C9.61026 13.0455 9.62708 13.0997 9.63767 13.1858C9.65363 13.2923 9.62227 13.4152 9.50022 13.4766V13.4803C9.6364 13.4803 9.71876 13.5765 9.74278 13.7388C9.74617 13.7732 9.75662 13.8559 9.74617 13.925C9.71848 14.0894 9.61874 14.1424 9.45007 14.1656L9.03346 14.2209ZM9.30343 13.9981C9.35315 13.991 9.40359 13.9884 9.443 13.9637C9.50347 13.925 9.49796 13.8423 9.48948 13.7807C9.46857 13.6457 9.43269 13.5942 9.28676 13.6154L9.19493 13.6293L9.25314 14.0049L9.30343 13.9981ZM9.2157 13.4226C9.27122 13.4139 9.34637 13.4072 9.37774 13.3554C9.39426 13.3209 9.41517 13.2934 9.40133 13.2166C9.38423 13.1255 9.35358 13.0689 9.23562 13.0909L9.12585 13.1082L9.16922 13.4273L9.2157 13.4226Z" fill="#0060AF"/>
<path fill-rule="evenodd" clip-rule="evenodd" d="M10.8504 13.472C10.8537 13.4952 10.8575 13.521 10.8589 13.5441C10.8928 13.7711 10.8504 13.9593 10.5905 14.011C10.2061 14.0836 10.1325 13.8492 10.065 13.521L10.0289 13.3432C9.97597 13.0293 9.95323 12.7914 10.3279 12.7181C10.5391 12.6803 10.6786 12.7629 10.7367 12.9693C10.7457 13.0001 10.757 13.0305 10.7613 13.0616L10.5314 13.1082C10.5049 13.0305 10.4697 12.8919 10.3663 12.9036C10.1807 12.9256 10.242 13.1523 10.2611 13.2472L10.3301 13.5881C10.3509 13.6912 10.3922 13.8559 10.5528 13.8241C10.6832 13.7985 10.6262 13.5989 10.6146 13.5171" fill="#0060AF"/>
<path fill-rule="evenodd" clip-rule="evenodd" d="M11.2192 13.8488L11.1398 12.5601L11.4485 12.4676L12.0959 13.5884L11.8528 13.6598L11.6994 13.375L11.4294 13.4546L11.4643 13.7785L11.2192 13.8488ZM11.4068 13.2465L11.6019 13.191L11.3428 12.6696L11.4068 13.2465Z" fill="#0060AF"/>
<path fill-rule="evenodd" clip-rule="evenodd" d="M3.5919 12.8743C3.68852 12.5706 3.77498 12.3468 4.14384 12.4461C4.34119 12.5004 4.46353 12.5857 4.45774 12.8109C4.45675 12.861 4.43994 12.9122 4.42892 12.9616L4.19935 12.8994C4.22945 12.775 4.24852 12.6763 4.09256 12.6291C3.9123 12.5806 3.86836 12.7954 3.8435 12.888L3.75012 13.2257C3.72045 13.3261 3.68485 13.4919 3.8435 13.5347C3.9746 13.5693 4.05399 13.443 4.10146 13.2585L3.94097 13.2166L3.99649 13.0212L4.3741 13.1404L4.19483 13.7915L4.02107 13.7452L4.0602 13.6076H4.05526C3.97516 13.7202 3.87768 13.732 3.79222 13.7158C3.4146 13.6156 3.45402 13.3732 3.54415 13.0494" fill="#0060AF"/>
<path fill-rule="evenodd" clip-rule="evenodd" d="M4.99738 13.4243L4.88366 13.954L4.62768 13.8998L4.90047 12.6629L5.33685 12.7596C5.59227 12.8138 5.6694 12.9254 5.63323 13.1554C5.61261 13.2873 5.54635 13.4294 5.3846 13.4179L5.38291 13.4158C5.51965 13.4627 5.53124 13.5306 5.50736 13.6475C5.49705 13.6975 5.42599 13.9997 5.47501 14.0485L5.47671 14.0857L5.21183 14.0177C5.20081 13.934 5.23839 13.7834 5.25322 13.6998C5.26805 13.626 5.29193 13.522 5.21564 13.483C5.15603 13.4516 5.13371 13.4531 5.06618 13.438L4.99738 13.4243ZM5.04103 13.2327L5.21338 13.2783C5.31806 13.2933 5.37627 13.24 5.39689 13.1157C5.41554 13.0018 5.39138 12.9574 5.29744 12.9354L5.11266 12.8984L5.04103 13.2327Z" fill="#0060AF"/>
<path fill-rule="evenodd" clip-rule="evenodd" d="M6.63929 12.9391L6.89244 12.9679L6.78338 13.8376C6.73041 14.1133 6.62191 14.2337 6.3131 14.1961C5.99892 14.157 5.92433 14.0166 5.94326 13.7387L6.05316 12.8698L6.3083 12.8984L6.19881 13.7478C6.18709 13.8401 6.16547 13.9767 6.33245 13.9934C6.48064 14.0045 6.51427 13.9079 6.53108 13.788" fill="#0060AF"/>
<path fill-rule="evenodd" clip-rule="evenodd" d="M7.17141 14.2438L7.2477 13.0003L7.73394 13.021C7.96393 13.0323 8.02397 13.2165 8.01691 13.3924C8.01013 13.4994 7.97622 13.6189 7.88129 13.6837C7.80345 13.7387 7.70329 13.7518 7.61062 13.7473L7.45211 13.7387L7.42047 14.2599L7.17141 14.2438ZM7.45918 13.5491L7.58801 13.5562C7.6927 13.5599 7.76206 13.5193 7.7711 13.3683C7.77633 13.2234 7.72038 13.1988 7.58477 13.1929L7.48277 13.1895L7.45918 13.5491Z" fill="#0060AF"/>
<path fill-rule="evenodd" clip-rule="evenodd" d="M41.476 2.59953L39.5429 6.04568C38.8133 5.46364 37.9224 5.03547 36.7856 5.03547C34.0954 5.03547 33.0026 7.00482 33.0026 8.39213C33.0026 9.42203 33.6891 10.9413 36.0828 10.9413C37.0877 10.9413 38.5159 10.2549 38.927 9.94246L37.0152 13.9405C36.1039 14.1191 35.8044 14.2298 35.033 14.2533C30.7486 14.3788 29.0175 11.7939 29.0186 9.15273C29.0216 5.66094 32.1824 1.41451 37.4225 1.41451C37.7434 1.41451 38.1362 1.52371 38.472 1.64455L38.8114 1.21819" fill="#0060AF"/>
<path fill-rule="evenodd" clip-rule="evenodd" d="M49.4525 1.32629L50 13.8509H45.926L45.9238 11.703H43.1457L42.2316 13.8509H37.8132L42.4325 4.90729L41.3909 4.90063L43.3698 1.32629H49.4525ZM45.8972 5.15786L44.3267 8.80088H45.9447L45.8972 5.15786Z" fill="#0060AF"/>
<path fill-rule="evenodd" clip-rule="evenodd" d="M26.4468 1.32624C28.4643 1.33734 29.6043 2.41289 29.6043 3.96641C29.6043 5.39881 28.402 6.66652 27.0821 7.32209C28.441 7.81283 28.5585 9.01714 28.5585 9.86903C28.5585 11.9276 26.4556 13.8509 23.7219 13.8509H17.7599L20.0855 5.03183L19.1302 5.02642L21.083 1.32624C21.083 1.32624 24.8063 1.31514 26.4468 1.32624ZM24.4675 6.4043C24.8848 6.4043 25.6217 6.30051 25.8059 5.50731C26.0078 4.64612 25.3163 4.62295 24.9846 4.62295L23.7993 4.61796L23.386 6.4043H24.4675ZM22.7918 8.61755L22.2461 10.676H23.6418C24.1908 10.676 24.9391 10.4082 25.1224 9.73833C25.3035 9.06667 24.7804 8.61755 24.2334 8.61755H22.7918Z" fill="#0060AF"/>
<path fill-rule="evenodd" clip-rule="evenodd" d="M7.83479 15.39C5.77043 15.39 3.64913 14.8906 1.53051 13.9031L1.47852 13.8779L1.45366 13.8259C0.502919 11.8549 0 9.69923 0 7.59003C0 5.48389 0.482293 3.42034 1.4336 1.45196L1.45988 1.39966L1.51285 1.37357C3.47268 0.461742 5.58084 0 7.78111 0C9.8305 0 12.0195 0.514049 14.11 1.48942L14.1635 1.51287L14.1884 1.56615C15.1572 3.57351 15.6682 5.72877 15.6682 7.80314C15.6682 9.86919 15.1775 11.9347 14.2074 13.9408L14.182 13.9934L14.1281 14.0178C12.198 14.9151 10.0218 15.39 7.83479 15.39ZM1.72659 13.6328C3.7846 14.5837 5.83739 15.0638 7.83479 15.0638C9.9527 15.0638 12.0589 14.6091 13.9339 13.7472C14.8653 11.8033 15.3375 9.80259 15.3375 7.80314C15.3375 5.79537 14.8447 3.70712 13.9126 1.75873C11.8838 0.822063 9.76509 0.325357 7.78111 0.325357C5.65105 0.325357 3.60929 0.769062 1.70879 1.64454C0.796476 3.55228 0.332124 5.55146 0.332124 7.59003C0.332124 9.63222 0.814559 11.7214 1.72659 13.6328Z" fill="#0060AF"/>
</svg>
