<svg width="24" height="24" viewBox="0 0 24 24" fill="none" xmlns="http://www.w3.org/2000/svg">
<path d="M15.6739 6.80083C15.6739 8.89998 14.0288 10.6017 11.9995 10.6017C9.97024 10.6017 8.32516 8.89998 8.32516 6.80083C8.32516 4.70169 9.97024 3 11.9995 3C14.0288 3 15.6739 4.70169 15.6739 6.80083Z" fill="white"/>
<path d="M5.09611 17.1881C5.45599 14.6089 7.38633 12.5012 9.89889 12.3119C11.3344 12.2037 12.6698 12.2035 14.1026 12.3113C16.6141 12.5002 18.543 14.6077 18.9028 17.1859L18.9727 17.6873C19.1801 19.1732 18.1822 20.5602 16.7391 20.7202C13.3522 21.0959 10.658 21.0916 7.26617 20.7173C5.82081 20.5578 4.81961 19.1697 5.02726 17.6815L5.09611 17.1881Z" fill="white"/>
</svg>
