<svg width="24" height="24" viewBox="0 0 24 24" fill="none" xmlns="http://www.w3.org/2000/svg">
<path fill-rule="evenodd" clip-rule="evenodd" d="M20.6853 17.9554C21.0825 14.1045 21.1214 12.2508 20.7002 8.43186C20.5958 7.48567 19.6574 6.7367 18.4781 6.65478C18.3687 6.64719 18.2601 6.63977 18.1522 6.63252C17.4425 6.58484 16.7835 6.24405 16.3409 5.68714L15.7507 4.94453C15.2764 4.34777 14.5558 4 13.7935 4H10.2201C9.45009 4 8.72307 4.3548 8.24931 4.96177L7.69635 5.67022C7.25374 6.23729 6.58824 6.58503 5.87048 6.63292C5.754 6.6407 5.63668 6.64867 5.51848 6.65684C4.34486 6.73796 3.40769 7.47948 3.29912 8.42069C2.85423 12.2775 2.94056 14.1379 3.3285 17.9498C3.42612 18.909 4.37088 19.6751 5.56588 19.7568C10.3044 20.0809 13.65 20.0817 18.4497 19.7552C19.6418 19.6742 20.5866 18.9122 20.6853 17.9554ZM12 17C13.9277 17 15.5 15.4277 15.5 13.5C15.5 11.5723 13.9277 10 12 10C10.0723 10 8.5 11.5723 8.5 13.5C8.5 15.4277 10.0723 17 12 17ZM17 8.65002C16.5858 8.65002 16.25 8.98581 16.25 9.40002C16.25 9.81424 16.5858 10.15 17 10.15H18C18.4142 10.15 18.75 9.81424 18.75 9.40002C18.75 8.98581 18.4142 8.65002 18 8.65002H17Z" fill="white"/>
</svg>
