<svg width="37" height="28" viewBox="0 0 37 28" fill="none" xmlns="http://www.w3.org/2000/svg">
<path fill-rule="evenodd" clip-rule="evenodd" d="M12.5991 15.9469L13.5242 13.2904L13.8267 15.9469H14.804L14.2747 12.0452H13.0821L12.2923 14.3891L11.5026 12.0452H10.31L9.78055 15.9469H10.758L11.0603 13.2904L11.9856 15.9469H12.5991Z" fill="#231F20"/>
<path fill-rule="evenodd" clip-rule="evenodd" d="M20.1879 13.0455L19.5252 15.0746L18.8529 13.0455H17.7363L18.9929 15.947L18.4951 17.0852H19.5774L21.305 13.0455H20.1879Z" fill="#231F20"/>
<path fill-rule="evenodd" clip-rule="evenodd" d="M31.1486 11.7235V15.9435H32.161V14.4742L33.1992 15.9435H34.351L33.2081 14.3923L34.249 13.0454H33.0858L32.161 14.3125V11.7235H31.1486Z" fill="#231F20"/>
<path fill-rule="evenodd" clip-rule="evenodd" d="M22.4978 15.274V13.7478C22.7029 13.675 23.4458 13.4798 23.4458 14.4714C23.4458 15.482 22.6837 15.327 22.4978 15.274ZM21.4679 15.7975C21.4679 15.7975 22.0033 16.0081 22.7538 16.0081C23.5041 16.0081 24.4814 15.7629 24.4814 14.4045C24.4814 13.0455 23.1843 12.9965 23.0329 12.9965C22.7473 12.9965 22.5648 13.0782 22.4978 13.1144V11.7172H21.4679V15.7975Z" fill="#231F20"/>
<path fill-rule="evenodd" clip-rule="evenodd" d="M25.552 15.053C25.552 14.636 26.3052 14.6062 26.5122 14.606V15.3487C26.2967 15.3758 25.552 15.4404 25.552 15.053ZM25.0342 13.78C26.5118 13.3209 26.5122 13.8721 26.5122 13.9453V14.0438C25.3162 14.0544 24.6037 14.4138 24.6037 15.0654C24.6037 15.7263 25.267 16.014 26.1455 16.014C27.024 16.014 27.4718 15.7996 27.4718 15.7996V13.9942C27.4718 13.3577 27.0821 12.9537 26.1455 12.9537C25.2087 12.9537 24.8017 13.1864 24.8017 13.1864L25.0342 13.78Z" fill="#231F20"/>
<path fill-rule="evenodd" clip-rule="evenodd" d="M15.8833 15.053C15.8833 14.636 16.6365 14.6062 16.8431 14.606V15.3487C16.6277 15.3758 15.8833 15.4404 15.8833 15.053ZM15.3654 13.78C16.8431 13.3209 16.8431 13.8721 16.8431 13.9453V14.0438C15.6474 14.0544 14.9349 14.4138 14.9349 15.0654C14.9349 15.7263 15.5982 16.014 16.4765 16.014C17.3551 16.014 17.803 15.7996 17.803 15.7996V13.9942C17.803 13.3577 17.4134 12.9537 16.4765 12.9537C15.5399 12.9537 15.1328 13.1864 15.1328 13.1864L15.3654 13.78Z" fill="#231F20"/>
<path fill-rule="evenodd" clip-rule="evenodd" d="M29.7464 15.9407H30.7645V14.1045C30.7645 13.1497 30.1131 12.9475 29.31 12.9475C28.5075 12.9475 27.8616 13.18 27.8616 13.18V15.9407H28.8799V13.7453C29.6627 13.5045 29.7464 13.9001 29.7464 14.0921V15.9407Z" fill="#231F20"/>
<path fill-rule="evenodd" clip-rule="evenodd" d="M4.40223 12.8575C4.40223 12.8575 4.46775 12.5865 4.57238 12.4948C4.67721 12.4029 5.0538 12.1412 5.59769 11.9576C5.66245 11.9356 5.73765 11.9608 5.74107 11.962C5.73746 11.9845 5.73537 11.9999 5.73442 12.0049C5.72721 12.0479 5.69663 12.0752 5.69663 12.0752C5.80716 12.0906 5.87989 12.0081 5.90021 11.913C5.92072 11.8185 5.99042 11.4425 6.10398 11.4481C6.42093 11.4633 6.64787 12.5408 6.6247 12.5895C6.60932 12.6215 6.48493 12.5955 6.48493 12.5955C6.68262 12.923 6.94147 12.9198 6.99977 12.8681C7.05788 12.8163 7.02598 12.6477 7.02598 12.6477C7.64849 13.0365 7.61355 13.4986 7.61355 13.4986C7.79965 12.7336 7.36933 12.4059 7.36933 12.4059C7.53796 12.3997 7.72122 12.513 7.72122 12.513C7.45934 12.1428 6.9183 11.9376 6.9183 11.9376C6.9183 11.9376 6.28724 11.2001 6.08366 11.2277C5.91483 11.2507 5.81836 11.5763 5.77107 11.7989C5.74791 11.7969 5.70366 11.7951 5.64612 11.8023C5.60149 11.744 5.41253 11.508 5.33904 11.5857C5.31036 11.6157 5.30124 11.8283 5.29878 11.9176C4.99303 12.0455 4.47287 12.2858 4.3671 12.4623C4.27138 12.6231 4.24935 12.7426 4.24935 12.7426C4.24935 12.7426 3.6257 13.1648 3.47283 13.6243C3.47283 13.6243 3.89176 13.1098 4.40223 12.8575Z" fill="#231F20"/>
<mask id="mask0_1_2230" style="mask-type:luminance" maskUnits="userSpaceOnUse" x="2" y="10" width="7" height="8">
<path fill-rule="evenodd" clip-rule="evenodd" d="M2.64287 10.7448H8.82294V17.247H2.64287V10.7448Z" fill="white"/>
</mask>
<g mask="url(#mask0_1_2230)">
<path fill-rule="evenodd" clip-rule="evenodd" d="M5.73284 10.7448C4.02919 10.7448 2.64287 12.2035 2.64287 13.9957C2.64287 15.7883 4.02919 17.2471 5.73284 17.2471C7.43687 17.2471 8.823 15.7883 8.823 13.9957C8.823 12.2035 7.43687 10.7448 5.73284 10.7448ZM5.73284 11.0163C7.29672 11.0163 8.56473 12.35 8.56473 13.9957C8.56473 15.6413 7.29672 16.9752 5.73284 16.9752C4.16915 16.9752 2.90134 15.6413 2.90134 13.9957C2.90134 12.35 4.16915 11.0163 5.73284 11.0163Z" fill="#231F20"/>
</g>
<path fill-rule="evenodd" clip-rule="evenodd" d="M6.40915 12.5163C6.40022 12.1763 6.24051 11.9041 6.15885 11.8883C6.07757 11.8734 6.05136 12.1974 6.05136 12.1974C6.26672 12.3473 6.40915 12.5163 6.40915 12.5163Z" fill="#231F20"/>
<path fill-rule="evenodd" clip-rule="evenodd" d="M4.87608 12.4551C4.75093 12.5342 4.80638 12.6018 4.80638 12.6018C4.80638 12.6018 4.78606 12.5342 4.94026 12.4885C5.21525 12.4068 5.46384 12.323 5.45776 12.2529C5.45206 12.1826 5.26595 12.155 5.26595 12.155C5.31837 12.2283 5.00122 12.3754 4.87608 12.4551Z" fill="#231F20"/>
<path fill-rule="evenodd" clip-rule="evenodd" d="M5.00564 12.9046C5.04343 12.9046 5.07401 12.8727 5.07401 12.8329C5.07401 12.8111 5.0647 12.7924 5.05008 12.7792C5.09547 12.776 5.19916 12.782 5.19916 12.782C5.18757 12.7792 5.16137 12.8097 5.10306 12.8863C5.04495 12.963 4.98988 12.9046 4.98988 12.9046L4.98893 12.9012C4.99425 12.9024 4.99976 12.9046 5.00564 12.9046ZM4.78611 13.2321C4.78611 13.2321 4.86454 13.0395 4.92284 13.0151C4.92284 13.0151 5.02463 13.0425 5.0799 13.0209C5.13516 12.9997 5.2398 12.8529 5.28063 12.8497C5.28063 12.8497 5.17295 13.342 4.73655 13.333C4.73655 13.333 5.05084 13.5198 5.21074 13.3882C5.37083 13.2565 5.24853 13.1556 5.45515 12.9444C5.66158 12.733 5.52504 12.7242 5.5163 12.7274C5.50757 12.7302 5.44338 12.7088 5.44338 12.7088C5.44338 12.7088 5.47243 12.6691 5.53092 12.6419C5.58904 12.6139 5.92346 12.4551 5.92935 12.3596C5.93505 12.2651 5.68779 12.158 5.56283 12.1608C5.56283 12.1608 5.67601 12.2097 5.67032 12.2773C5.66462 12.3446 5.33893 12.4946 5.33893 12.6875C5.33893 12.6875 5.22252 12.6964 5.13801 12.6785C5.05369 12.6597 4.96348 12.6691 4.87043 12.733C4.77738 12.7975 4.77168 12.6539 4.78022 12.6353C4.78022 12.6353 4.6 12.7546 4.82694 12.9076C4.82694 12.9076 4.7337 13.0087 4.72496 13.0333C4.71623 13.0577 4.67843 13.1892 4.78611 13.2321Z" fill="#231F20"/>
<path fill-rule="evenodd" clip-rule="evenodd" d="M4.49816 13.8626C4.49816 13.8626 4.49379 13.6882 4.34091 13.725C4.08416 13.7865 3.99623 14.2664 3.99623 14.2664C4.28451 13.7066 4.49816 13.8626 4.49816 13.8626Z" fill="#231F20"/>
<path fill-rule="evenodd" clip-rule="evenodd" d="M4.59413 14.2895C4.73352 14.0511 4.56355 13.8994 4.34535 14.0277C4.12734 14.1564 4.07473 14.4641 4.07473 14.4641C4.50677 13.9684 4.59413 14.2895 4.59413 14.2895Z" fill="#231F20"/>
<path fill-rule="evenodd" clip-rule="evenodd" d="M6.65363 13.9819C6.65363 13.9819 6.49639 13.8355 6.51386 13.5641C6.53133 13.2932 6.57938 12.8852 6.14317 12.6003C6.14317 12.6003 6.32187 12.8896 6.25635 13.1741C6.19083 13.4588 5.97244 13.9446 5.99029 14.106C6.0296 14.4594 6.37865 14.5238 6.35244 15.0057C6.35244 15.0057 6.55754 14.7438 6.51842 14.4365C6.47911 14.1288 6.2216 13.9955 6.33497 13.7525C6.33497 13.7525 6.46582 13.9543 6.65363 13.9819Z" fill="#231F20"/>
<path fill-rule="evenodd" clip-rule="evenodd" d="M4.67043 15.3957C4.63093 15.3824 4.59617 15.2307 4.59617 15.2307C4.65296 15.2791 4.76861 15.2813 4.76861 15.2813C4.71392 15.336 4.70974 15.4095 4.67043 15.3957ZM5.10607 14.9124C5.10607 14.9124 5.24262 14.9184 5.2485 14.894C5.25439 14.8695 5.20482 14.701 5.20482 14.701C5.20482 14.701 5.3765 14.7194 5.37954 14.7778C5.38239 14.8355 5.28345 14.9829 5.07398 15.0777C5.07398 15.0777 5.11196 14.9612 5.10607 14.9124ZM4.21845 14.7564C4.23725 14.745 4.25491 14.7328 4.27105 14.7194C4.31359 14.6856 4.3455 14.6695 4.36696 14.6621C4.36259 14.7266 4.35898 14.8401 4.37816 14.9344C4.37816 14.9344 4.26517 14.8583 4.21845 14.7564ZM3.6719 14.1686C3.60505 14.1686 3.48579 13.9819 3.46547 13.9452C3.44515 13.9086 3.57865 13.8411 3.61967 13.8289C3.66031 13.8165 3.70323 13.8269 3.70969 13.8477C3.71558 13.8655 3.62556 13.9238 3.61379 13.9452C3.6022 13.9668 3.68519 14.0473 3.69811 14.0643C3.72127 14.0954 3.73894 14.1686 3.6719 14.1686ZM7.90966 12.701C7.90966 12.701 8.29118 13.7923 7.86067 14.7837C7.86067 14.7837 7.88516 14.6397 7.7792 14.3556C7.66563 14.0511 7.70361 13.6577 7.75014 13.5843C7.75014 13.5843 7.54048 13.8045 7.55226 14.172C7.56403 14.5388 7.6569 15.5734 6.94741 15.959C6.94741 15.959 7.21631 15.4417 7.11585 14.8355C7.11585 14.8355 7.20758 14.8727 7.25562 15.0011C7.25562 15.0011 7.44762 14.4687 7.19884 13.8165C7.19884 13.8165 7.33842 13.8443 7.42578 13.9222C7.42578 13.9222 7.5175 13.4557 7.01558 13.128C6.8891 13.0453 6.90639 12.9997 6.90639 12.9997C6.90639 12.9997 6.86727 13.1052 6.95006 13.2107C7.03286 13.3164 7.14662 13.523 7.12915 13.6287C7.12915 13.6287 6.99374 13.5274 6.79738 13.5552C6.79738 13.5552 7.17263 13.89 7.11585 14.6109C7.11585 14.6109 7.02014 14.5008 6.77573 14.4549C6.77573 14.4549 7.05052 14.9967 6.80612 15.5152C6.80612 15.5152 6.78864 15.3316 6.71021 15.2167C6.71021 15.2167 6.64906 15.5979 6.21285 15.7312C6.21285 15.7312 6.56607 15.2673 6.14733 15.0335C5.7284 14.7989 5.37498 15.3178 5.30528 15.7726C5.30528 15.7726 4.82102 15.8089 4.77298 15.6025C4.72493 15.3957 4.86451 15.3084 4.86451 15.3084C4.86451 15.3084 4.93877 15.359 5.10911 15.2765C5.27908 15.1939 5.63686 14.9688 5.60192 14.6842C5.56698 14.3999 5.14386 14.1198 4.80773 14.2343C4.47197 14.3494 4.27979 14.6615 4.10527 14.6569C3.93074 14.6523 3.71691 14.3722 3.74767 14.2255C3.77806 14.0785 3.89143 14.0371 3.93074 13.7891C3.93074 13.7891 3.86978 13.7953 3.82914 13.7678C3.78831 13.74 3.68063 13.6942 3.62252 13.7098C3.56422 13.725 3.42179 13.8261 3.41591 13.8075C3.41002 13.7891 3.43053 13.6787 3.43053 13.6787C3.43053 13.6787 3.27348 13.8531 3.29683 13.9238C3.32 13.9941 3.45673 14.1686 3.59916 14.2667C3.59916 14.2667 3.62556 14.4807 3.81167 14.6799C3.92277 14.7987 4.02645 14.8203 4.11495 14.8003C4.15236 14.8585 4.27979 15.0339 4.4828 15.0723C4.4828 15.0723 4.44767 14.8263 4.47311 14.6405C4.4809 14.6361 4.48869 14.6313 4.49514 14.6245C4.52705 14.5911 4.89945 14.2299 5.17577 14.5788C5.17577 14.5788 5.05062 14.6277 5.00124 14.7927C4.95187 14.9584 4.92281 15.3684 4.51261 15.1052C4.51261 15.1052 4.47767 15.3408 4.60282 15.4819C4.60282 15.4819 4.58535 15.7326 4.85578 15.8701C5.12639 16.0079 5.31554 15.904 5.49006 15.9957C5.49006 15.9957 5.47259 15.6191 5.62072 15.3897C5.76923 15.1602 5.97869 15.0836 6.08048 15.1728C6.18208 15.2613 6.24627 15.5979 5.85354 15.947C5.85354 15.947 6.30438 16.0079 6.61279 15.7602C6.61279 15.7602 6.57443 16.1973 6.26317 16.5678C7.39103 16.3132 8.23288 15.2583 8.23288 13.9955C8.23288 13.525 8.11533 13.0832 7.90966 12.701Z" fill="#231F20"/>
<path fill-rule="evenodd" clip-rule="evenodd" d="M6.09805 12.8036C6.09805 12.8036 5.80426 12.6296 5.67342 12.8098C5.55017 12.9799 5.63031 13.271 5.55795 13.453C5.55586 13.451 5.5532 13.4486 5.55112 13.4466C5.38818 13.2932 5.18763 13.5537 5.14965 13.63C5.11205 13.7067 5.06249 13.7155 5.06249 13.7155C4.7047 13.7923 4.78029 13.4894 4.66102 13.3977C4.54195 13.3055 4.34103 13.4406 4.34103 13.4406C4.54176 13.4003 4.58829 13.5475 4.58259 13.6054C4.57671 13.6638 4.61735 13.8354 4.67261 13.9301C4.72787 14.0248 4.95196 13.9575 5.13522 13.9733C5.31848 13.9883 5.42312 14.2236 5.42312 14.2236C5.53364 13.9421 5.23701 13.8138 5.23701 13.8138C5.23701 13.8138 5.32361 13.6408 5.42597 13.7004C5.75185 13.89 5.67038 14.6582 5.67038 14.6582C5.95106 14.1031 5.82743 13.7773 5.68101 13.5869C5.69943 13.4138 5.7828 12.868 6.09805 12.8036Z" fill="#231F20"/>
</svg>
