<svg width="37" height="28" viewBox="0 0 37 28" fill="none" xmlns="http://www.w3.org/2000/svg">
<path fill-rule="evenodd" clip-rule="evenodd" d="M7.60997 16.5341C7.60997 16.1616 7.61406 15.1662 7.60478 15.0435C7.61287 13.5622 6.52475 12.5173 5.83732 12.5987C5.36165 12.6396 4.96292 12.8316 4.74895 13.3839C4.55048 13.8986 4.72793 14.5832 5.38752 14.7439C6.09274 14.9164 6.50466 15.0599 6.80272 15.2624C7.16792 15.5104 7.46605 15.9841 7.47397 16.5347" fill="#0060AF"/>
<path fill-rule="evenodd" clip-rule="evenodd" d="M7.31523 16.5347C7.31753 16.0573 7.04833 15.6352 6.69649 15.4083C6.38439 15.2078 5.9654 15.0761 5.28947 14.9064C5.08053 14.8535 4.86197 14.736 4.7943 14.5862C4.61532 14.7647 4.58281 15.166 4.6143 15.4006C4.6509 15.672 4.97133 16.1193 5.45381 16.1368C5.74846 16.1485 6.12098 16.0741 6.29963 16.0365C6.60781 15.9706 7.0954 16.1617 7.17301 16.5341" fill="#0060AF"/>
<path fill-rule="evenodd" clip-rule="evenodd" d="M7.85922 10.2901C7.04107 10.2901 6.33449 10.8241 6.33696 11.7482C6.33951 12.5252 6.97085 12.9412 7.19622 13.2383C7.53666 13.6861 7.72092 14.216 7.73998 15.0269C7.75496 15.6723 7.75419 16.3096 7.75751 16.5354H7.93803C7.93497 16.2991 7.92679 15.6226 7.93607 15.007C7.94833 14.1958 8.13923 13.6861 8.47983 13.2383C8.70716 12.9412 9.3379 12.5252 9.33926 11.7482C9.34241 10.8241 8.63609 10.2901 7.81879 10.2901" fill="#0060AF"/>
<path fill-rule="evenodd" clip-rule="evenodd" d="M8.06681 16.5341C8.06681 16.1616 8.06255 15.1662 8.07166 15.0435C8.06366 13.5622 9.1511 12.5173 9.83912 12.5987C10.3148 12.6396 10.713 12.8316 10.9277 13.3839C11.1259 13.8986 10.9475 14.5832 10.2887 14.7439C9.58302 14.9164 9.17169 15.0599 8.87287 15.2624C8.5081 15.5104 8.23081 15.9841 8.2223 16.5347" fill="#0060AF"/>
<path fill-rule="evenodd" clip-rule="evenodd" d="M8.36138 16.5347C8.35883 16.0573 8.62794 15.6352 8.97876 15.4083C9.29222 15.2078 9.71164 15.0761 10.387 14.9064C10.5963 14.8535 10.8146 14.736 10.8811 14.5862C11.061 14.7647 11.0935 15.166 11.0619 15.4006C11.0246 15.672 10.7049 16.1193 10.2233 16.1368C9.92883 16.1485 9.55427 16.0741 9.37639 16.0365C9.0694 15.9706 8.58045 16.1617 8.50249 16.5341" fill="#0060AF"/>
<path fill-rule="evenodd" clip-rule="evenodd" d="M8.61371 18.0758L8.50911 17.3198L8.7618 17.2819C8.82325 17.2736 8.89814 17.2842 8.9281 17.3223C8.96121 17.3621 8.97133 17.3951 8.97772 17.4473C8.98734 17.512 8.96844 17.5866 8.89491 17.6239V17.6262C8.97695 17.6262 9.02657 17.6845 9.04104 17.7831C9.04308 17.804 9.04938 17.8542 9.04308 17.8961C9.0264 17.996 8.96631 18.0282 8.86469 18.0422L8.61371 18.0758ZM8.77635 17.9405C8.80631 17.9362 8.83669 17.9346 8.86044 17.9196C8.89686 17.8961 8.89354 17.8459 8.88844 17.8085C8.87584 17.7266 8.85422 17.6953 8.76631 17.7082L8.71099 17.7166L8.74605 17.9447L8.77635 17.9405ZM8.7235 17.5911C8.75694 17.5858 8.80222 17.5818 8.82112 17.5503C8.83107 17.5294 8.84367 17.5127 8.83533 17.466C8.82503 17.4107 8.80656 17.3764 8.7355 17.3897L8.66937 17.4002L8.6955 17.594L8.7235 17.5911Z" fill="#0060AF"/>
<path fill-rule="evenodd" clip-rule="evenodd" d="M9.70832 17.6212C9.71028 17.6352 9.71258 17.6509 9.71343 17.665C9.73385 17.8028 9.70832 17.917 9.55172 17.9484C9.32014 17.9925 9.2758 17.8502 9.23511 17.6509L9.21341 17.543C9.1815 17.3523 9.16779 17.208 9.3935 17.1634C9.52074 17.1405 9.60483 17.1906 9.63981 17.316C9.64525 17.3347 9.65206 17.3531 9.65462 17.372L9.51614 17.4003C9.50014 17.3531 9.47895 17.2689 9.41665 17.276C9.30482 17.2894 9.34176 17.4271 9.35325 17.4847L9.39486 17.6917C9.40737 17.7543 9.43223 17.8543 9.529 17.835C9.60755 17.8194 9.57325 17.6982 9.56627 17.6485" fill="#0060AF"/>
<path fill-rule="evenodd" clip-rule="evenodd" d="M9.93054 17.8499L9.88271 17.0675L10.0687 17.0113L10.4587 17.6918L10.3123 17.7352L10.2198 17.5623L10.0572 17.6106L10.0782 17.8072L9.93054 17.8499ZM10.0436 17.4843L10.1611 17.4506L10.005 17.134L10.0436 17.4843Z" fill="#0060AF"/>
<path fill-rule="evenodd" clip-rule="evenodd" d="M5.33535 17.2583C5.39356 17.0739 5.44565 16.9381 5.66787 16.9984C5.78676 17.0313 5.86047 17.0831 5.85698 17.2198C5.85638 17.2503 5.84626 17.2813 5.83962 17.3113L5.70132 17.2736C5.71944 17.198 5.73093 17.1381 5.63697 17.1095C5.52837 17.08 5.5019 17.2104 5.48693 17.2667L5.43067 17.4717C5.4128 17.5326 5.39135 17.6333 5.48693 17.6593C5.56591 17.6803 5.61374 17.6036 5.64233 17.4916L5.54565 17.4662L5.5791 17.3475L5.80659 17.4199L5.69859 17.8153L5.59391 17.7871L5.61748 17.7036H5.6145C5.56625 17.772 5.50752 17.7791 5.45603 17.7693C5.22853 17.7084 5.25228 17.5613 5.30658 17.3646" fill="#0060AF"/>
<path fill-rule="evenodd" clip-rule="evenodd" d="M6.1821 17.5923L6.11358 17.9139L5.95937 17.8809L6.12371 17.1299L6.38661 17.1887C6.54049 17.2216 6.58696 17.2893 6.56517 17.429C6.55275 17.5091 6.51283 17.5954 6.41538 17.5884L6.41436 17.5871C6.49674 17.6156 6.50372 17.6568 6.48934 17.7278C6.48313 17.7581 6.44032 17.9416 6.46985 17.9713L6.47087 17.9938L6.31129 17.9526C6.30465 17.9018 6.32729 17.8103 6.33623 17.7596C6.34516 17.7147 6.35955 17.6516 6.31359 17.6279C6.27767 17.6089 6.26423 17.6098 6.22354 17.6006L6.1821 17.5923ZM6.20839 17.4759L6.31223 17.5036C6.37529 17.5127 6.41036 17.4804 6.42278 17.4049C6.43402 17.3357 6.41946 17.3088 6.36287 17.2954L6.25154 17.273L6.20839 17.4759Z" fill="#0060AF"/>
<path fill-rule="evenodd" clip-rule="evenodd" d="M7.17126 17.2977L7.32378 17.3152L7.25807 17.8432C7.22616 18.0106 7.16079 18.0837 6.97475 18.0609C6.78546 18.0371 6.74053 17.9519 6.75193 17.7832L6.81815 17.2556L6.97185 17.273L6.90589 17.7887C6.89883 17.8447 6.88581 17.9277 6.98641 17.9378C7.07569 17.9446 7.09594 17.8859 7.10607 17.8131" fill="#0060AF"/>
<path fill-rule="evenodd" clip-rule="evenodd" d="M7.49189 18.0897L7.53785 17.3348L7.83079 17.3473C7.96935 17.3541 8.00552 17.466 8.00127 17.5728C7.99718 17.6378 7.97675 17.7103 7.91956 17.7496C7.87267 17.7831 7.81232 17.791 7.75649 17.7883L7.661 17.7831L7.64194 18.0995L7.49189 18.0897ZM7.66526 17.6679L7.74287 17.6722C7.80594 17.6745 7.84773 17.6498 7.85318 17.5582C7.85632 17.4702 7.82262 17.4552 7.74092 17.4517L7.67947 17.4496L7.66526 17.6679Z" fill="#0060AF"/>
<path fill-rule="evenodd" clip-rule="evenodd" d="M28.1591 11.0198L26.9944 13.1122C26.5548 12.7588 26.0181 12.4988 25.3333 12.4988C23.7125 12.4988 23.0541 13.6945 23.0541 14.5369C23.0541 15.1622 23.4678 16.0846 24.9099 16.0846C25.5152 16.0846 26.3757 15.6679 26.6234 15.4782L25.4716 17.9057C24.9225 18.0141 24.7421 18.0813 24.2774 18.0955C21.6962 18.1718 20.6533 16.6023 20.654 14.9987C20.6558 12.8786 22.56 10.3003 25.7169 10.3003C25.9103 10.3003 26.1469 10.3666 26.3492 10.44L26.5537 10.1811" fill="#0060AF"/>
<path fill-rule="evenodd" clip-rule="evenodd" d="M32.9645 10.2468L33.2943 17.8513H30.84L30.8386 16.5472H29.1649L28.6142 17.8513H25.9523L28.7352 12.421L28.1077 12.417L29.2999 10.2468H32.9645ZM30.8226 12.5732L29.8764 14.7851H30.8512L30.8226 12.5732Z" fill="#0060AF"/>
<path fill-rule="evenodd" clip-rule="evenodd" d="M19.1045 10.2468C20.3199 10.2535 21.0068 10.9066 21.0068 11.8498C21.0068 12.7195 20.2824 13.4892 19.4872 13.8873C20.3059 14.1852 20.3767 14.9165 20.3767 15.4337C20.3767 16.6836 19.1098 17.8513 17.4628 17.8513H13.871L15.272 12.4967L14.6965 12.4934L15.873 10.2468C15.873 10.2468 18.1161 10.2401 19.1045 10.2468ZM17.912 13.33C18.1634 13.33 18.6074 13.267 18.7184 12.7854C18.84 12.2625 18.4234 12.2485 18.2235 12.2485L17.5095 12.2454L17.2604 13.33H17.912ZM16.9025 14.6738L16.5737 15.9236H17.4146C17.7453 15.9236 18.1961 15.7611 18.3066 15.3543C18.4157 14.9465 18.1006 14.6738 17.771 14.6738H16.9025Z" fill="#0060AF"/>
<path fill-rule="evenodd" clip-rule="evenodd" d="M7.89154 18.7857C6.64784 18.7857 5.36984 18.4825 4.09347 17.8829L4.06215 17.8676L4.04717 17.8361C3.47438 16.6393 3.1714 15.3305 3.1714 14.0498C3.1714 12.7711 3.46196 11.5181 4.03508 10.323L4.05091 10.2913L4.08283 10.2754C5.26354 9.72179 6.53362 9.44143 7.8592 9.44143C9.09387 9.44143 10.4126 9.75355 11.6721 10.3458L11.7043 10.36L11.7193 10.3923C12.303 11.6111 12.6108 12.9197 12.6108 14.1792C12.6108 15.4337 12.3152 16.6878 11.7308 17.9058L11.7155 17.9377L11.683 17.9526C10.5202 18.4973 9.20911 18.7857 7.89154 18.7857ZM4.2116 17.7188C5.45146 18.2962 6.68818 18.5877 7.89154 18.5877C9.16749 18.5877 10.4364 18.3116 11.566 17.7883C12.1272 16.608 12.4116 15.3932 12.4116 14.1792C12.4116 12.9602 12.1147 11.6923 11.5532 10.5093C10.3309 9.94056 9.05446 9.63898 7.85919 9.63898C6.57592 9.63898 5.34584 9.90838 4.20087 10.4399C3.65124 11.5983 3.37149 12.8121 3.37149 14.0498C3.37149 15.2898 3.66213 16.5583 4.2116 17.7188Z" fill="#0060AF"/>
</svg>
