<svg width="48" height="48" viewBox="0 0 48 48" fill="none" xmlns="http://www.w3.org/2000/svg">
<g clip-path="url(#clip0_368_6819)">
<path d="M47.9741 1.74219C47.9521 1.56982 47.9141 1.40381 47.8511 1.24805C47.8491 1.24414 47.8491 1.23877 47.8481 1.23389C47.8481 1.23291 47.8472 1.23193 47.8462 1.23096C47.7769 1.06689 47.6821 0.917969 47.5752 0.779785C47.5488 0.74707 47.5229 0.714844 47.4951 0.684082C47.3809 0.555176 47.2568 0.436035 47.1128 0.338867C47.1089 0.335937 47.104 0.334961 47.1001 0.332031C46.9609 0.240234 46.8071 0.170898 46.646 0.116211C46.606 0.102051 46.5669 0.0898438 46.5259 0.0791015C46.3569 0.0332031 46.1831 0 46 0H32C30.896 0 30 0.895996 30 2C30 3.104 30.896 4 32 4H41.1709L29.2339 15.937C26.0508 13.3911 22.1318 12 18 12C8.0752 12 0 20.0752 0 30C0 39.9248 8.0752 48 18 48C27.9248 48 36 39.9248 36 30C36 25.8701 34.6099 21.9521 32.062 18.7661L44 6.82812V16C44 17.104 44.896 18 46 18C47.104 18 48 17.104 48 16V2C48 1.95801 47.9902 1.91797 47.9878 1.87695C47.9849 1.83105 47.98 1.78711 47.9741 1.74219ZM18 44C10.2798 44 4 37.7202 4 30C4 22.2798 10.2798 16 18 16C21.7378 16 25.2568 17.4551 27.9028 20.0918C30.5449 22.7432 32 26.2622 32 30C32 37.7202 25.7202 44 18 44Z" fill="#7A7A7A"/>
</g>
<defs>
<clipPath id="clip0_368_6819">
<rect width="48" height="48" fill="white"/>
</clipPath>
</defs>
</svg>
