<svg width="24" height="24" viewBox="0 0 24 24" fill="none" xmlns="http://www.w3.org/2000/svg">
<path d="M8.64975 8.53088C8.10853 8.56345 7.5478 8.60343 6.95881 8.65084C6.046 8.72431 5.31708 9.39586 5.23264 10.2483C4.88662 13.7411 4.95377 15.691 5.25551 19.1433C5.33143 20.012 6.06625 20.7058 6.99569 20.7798C10.6812 21.0733 13.2834 21.074 17.0165 20.7784C17.9437 20.7049 18.6785 20.0148 18.7552 19.1484C19.0642 15.6608 19.0944 13.717 18.7668 10.2584C18.6856 9.40147 17.9558 8.72317 17.0385 8.64898C16.4623 8.60238 15.9129 8.56302 15.3818 8.53088" stroke="white" stroke-width="1.5" stroke-linecap="round"/>
<path d="M8.5 6.00006L11.8698 3.11163C11.9447 3.04743 12.0553 3.04743 12.1302 3.11163L15.5 6.00006M12 17.0001V3.06348" stroke="white" stroke-width="1.5" stroke-linecap="round"/>
</svg>
