<svg width="24" height="24" viewBox="0 0 24 24" fill="none" xmlns="http://www.w3.org/2000/svg">
<path d="M7.77588 5C6.76976 5.4789 5.86612 6.15746 5.12062 6.99825C4.17707 8.0624 3.51797 9.35135 3.20551 10.7435C2.89304 12.1357 2.93751 13.5851 3.33471 14.9551C3.73192 16.3251 4.46877 17.5706 5.47575 18.5739C6.48273 19.5772 7.72664 20.3054 9.09014 20.6897C10.4536 21.074 11.8918 21.1018 13.2689 20.7704C14.646 20.4391 15.9166 19.7595 16.961 18.7958C17.8118 18.0107 18.4896 17.0581 18.9544 16" stroke="#404148" stroke-width="1.5" stroke-linecap="round"/>
<path d="M19.4337 13C20.3652 13 21.1347 12.2397 20.9801 11.3211C20.8538 10.5701 20.6428 9.83398 20.35 9.1271C19.8414 7.89924 19.096 6.78357 18.1562 5.84381C17.2164 4.90404 16.1008 4.15858 14.8729 3.64999C14.166 3.35719 13.4299 3.14619 12.6789 3.01986C11.7603 2.86531 11 3.63479 11 4.56635L11 11.3133C11 12.2448 11.7552 13 12.6867 13H19.4337Z" stroke="#2782CD" stroke-width="1.5"/>
</svg>
