<svg width="24" height="24" viewBox="0 0 24 24" fill="none" xmlns="http://www.w3.org/2000/svg">
<path d="M9.3 21H14.7C19.2 21 21 19.2 21 14.7V9.3C21 4.8 19.2 3 14.7 3H9.3C4.8 3 3 4.8 3 9.3V14.7C3 19.2 4.8 21 9.3 21Z" stroke="#404148" stroke-width="1.5" stroke-linecap="round" stroke-linejoin="round"/>
<path d="M10.2989 11.235H7.91393C7.34693 11.235 6.88794 11.694 6.88794 12.261V16.869H10.2989V11.235Z" stroke="#202734" stroke-width="1.5" stroke-linecap="round" stroke-linejoin="round"/>
<path d="M12.6851 7.13995H11.317C10.7501 7.13995 10.2911 7.59897 10.2911 8.16597V16.86H13.7021V8.16597C13.7021 7.59897 13.2521 7.13995 12.6851 7.13995Z" stroke="#202734" stroke-width="1.5" stroke-linecap="round" stroke-linejoin="round"/>
<path d="M16.0932 12.765H13.7083V16.86H17.1193V13.791C17.1103 13.224 16.6512 12.765 16.0932 12.765Z" stroke="#202734" stroke-width="1.5" stroke-linecap="round" stroke-linejoin="round"/>
</svg>
