<svg width="24" height="24" viewBox="0 0 24 24" fill="none" xmlns="http://www.w3.org/2000/svg">
<path fill-rule="evenodd" clip-rule="evenodd" d="M21 12C21 16.9706 16.9706 21 12 21C7.02944 21 3 16.9706 3 12C3 7.02944 7.02944 3 12 3C16.9706 3 21 7.02944 21 12ZM12 14.25C11.5858 14.25 11.25 13.9142 11.25 13.5V8.5C11.25 8.08579 11.5858 7.75 12 7.75C12.4142 7.75 12.75 8.08579 12.75 8.5V13.5C12.75 13.9142 12.4142 14.25 12 14.25ZM12.01 16.8C12.4518 16.8 12.81 16.4418 12.81 16C12.81 15.5582 12.4518 15.2 12.01 15.2H12C11.5582 15.2 11.2 15.5582 11.2 16C11.2 16.4418 11.5582 16.8 12 16.8H12.01Z" fill="white"/>
</svg>
