<svg width="242" height="220" viewBox="0 0 242 220" fill="none" xmlns="http://www.w3.org/2000/svg">
<path d="M4 220L3.99999 0" stroke="#EBEBEB" stroke-dasharray="4 4"/>
<rect x="3" y="164" width="2" height="44" rx="1" fill="#F56F6F"/>
<rect y="167" width="8" height="38" rx="4" fill="#F56F6F"/>
<path d="M30 220L30 0" stroke="#EBEBEB" stroke-dasharray="4 4"/>
<rect x="29" y="106" width="2" height="88" rx="1" fill="#46C254"/>
<rect x="26" y="109" width="8" height="82" rx="4" fill="#46C254"/>
<path d="M56 220L56 0" stroke="#EBEBEB" stroke-dasharray="4 4"/>
<rect x="55" y="103" width="2" height="22" rx="1" fill="#F56F6F"/>
<rect x="52" y="106" width="8" height="16" rx="4" fill="#F56F6F"/>
<path d="M82 220L82 0" stroke="#EBEBEB" stroke-dasharray="4 4"/>
<rect x="81" y="106" width="2" height="44" rx="1" fill="#46C254"/>
<rect x="78" y="109" width="8" height="38" rx="4" fill="#46C254"/>
<path d="M108 220L108 0" stroke="#EBEBEB" stroke-dasharray="4 4"/>
<rect x="107" y="88" width="2" height="108" rx="1" fill="#F56F6F"/>
<rect x="104" y="91" width="8" height="102" rx="4" fill="#F56F6F"/>
<path d="M134 220L134 0" stroke="#EBEBEB" stroke-dasharray="4 4"/>
<rect x="133" y="85" width="2" height="18" rx="1" fill="#46C254"/>
<rect x="130" y="88" width="8" height="12" rx="4" fill="#46C254"/>
<path d="M160 220L160 0" stroke="#EBEBEB" stroke-dasharray="4 4"/>
<rect x="159" y="50" width="2" height="71" rx="1" fill="#F56F6F"/>
<rect x="156" y="53" width="8" height="65" rx="4" fill="#F56F6F"/>
<path d="M186 220L186 0" stroke="#EBEBEB" stroke-dasharray="4 4"/>
<rect x="185" y="106" width="2" height="69" rx="1" fill="#46C254"/>
<rect x="182" y="109" width="8" height="63" rx="4" fill="#46C254"/>
<path d="M212 220L212 0" stroke="#EBEBEB" stroke-dasharray="4 4"/>
<rect x="211" y="116" width="2" height="18" rx="1" fill="#46C254"/>
<rect x="208" y="119" width="8" height="12" rx="4" fill="#46C254"/>
<path d="M238 220L238 0" stroke="#EBEBEB" stroke-dasharray="4 4"/>
<rect x="237" y="75" width="2" height="44" rx="1" fill="#46C254"/>
<rect x="234" y="78" width="8" height="38" rx="4" fill="#46C254"/>
</svg>
